<?xml version="1.0" encoding="utf-8"?>
<!-- Generator: Adobe Illustrator 23.0.2, SVG Export Plug-In . SVG Version: 6.00 Build 0)  -->
<svg version="1.1" xmlns="http://www.w3.org/2000/svg" xmlns:xlink="http://www.w3.org/1999/xlink" x="0px" y="0px"
	 viewBox="0 0 709.97 653.29" style="enable-background:new 0 0 709.97 653.29;" xml:space="preserve">
<style type="text/css">
	.st0{fill:#45D62F;stroke:#000000;stroke-width:2;stroke-linecap:round;stroke-linejoin:round;}
	.st1{fill:#E72A8B;}
	.st2{fill:#FFFFFF;stroke:#000000;stroke-width:2;stroke-linecap:round;stroke-linejoin:round;stroke-miterlimit:10;}
	.st3{fill:none;stroke:#000000;stroke-width:2;stroke-linecap:round;stroke-linejoin:round;stroke-miterlimit:10;}
	.st4{fill:#FFEC00;stroke:#000000;stroke-width:2;stroke-linecap:round;stroke-linejoin:round;}
	.st5{fill:#FFEC00;}
</style>
<g>
	<g>
		<path class="st0" d="M277.7,369.03c0,0,0.63,12.89,4.86,25.78c4.23,12.89,8.03,19.02,6.76,24.51c-1.27,5.49-3.17,11.2-3.38,15.42
			c-0.21,4.23,0.85,9.72,2.32,10.56c1.48,0.85,11.88,2.83,23.95,2.64c12.07-0.19,42.48-0.6,42.48-0.6l9.18,0.8l-2.39-4.92
			c0,0,3.46,0.13,3.99,0.8c0.53,0.66,1.6,1.6,1.6,1.6s-1.46-6.25-3.06-7.45c-1.6-1.2-5.59-2.53-5.59-2.53s-3.99-4.52-7.31-4.39
			c-3.32,0.13-12.1,0.13-16.89-1.33c-4.79-1.46-23.54-3.86-23.54-3.86s11.44-11.3,19.02-17.69s17.02-18.35,19.95-28.86
			c2.93-10.51,6.92-30.72,6.92-30.72"/>
		<path class="st0" d="M192.93,338.08c0,0-9.38,4.8-10.26,7.64c-0.87,2.84-1.31,10.04,3.93,25.31c5.24,15.28,13.09,32.3,13.75,37.1
			s0,10.04,0,10.04l3.93-6.11c0,0,1.31,5.02,0.65,7.64s-1.96,3.93-1.96,3.93s6.11-7.42,6.33-11.35s-1.09-7.2-1.09-7.2l-3.06-40.59
			c0,0,23.79,15.71,38.84,19.2c15.06,3.49,28.59,7.86,39.72-3.27c11.13-11.13,10.69-20.51,10.69-20.51L192.93,338.08z"/>
		<path class="st0" d="M406.94,240.77c0,0,8.48,6.72,13.32,5.06c4.84-1.65,8.81-9.69,8.81-9.69s-2.05-3.68,0.92-5.44
			c2.97-1.76,5.03-0.32,6.06,0.38c1.62,1.09,3.36,2.53,3.25,5.94s-3.08,2.75-3.63,2.53s-2.31,4.95-4.84,9.03
			c-2.53,4.07-4.95,7.93-10.13,9.03c-5.17,1.1-13.43,0.99-18.06-5.62"/>
		<path class="st0" d="M408.88,120.92c0,0,1.32-4.11,0.15-7.49c-1.17-3.38-3.08-7.05-3.08-7.05s-3.97,8.52-5.73,6.9
			c-1.76-1.62-5.29-8.67-5.29-8.67s-0.73,7.05-3.82,8.37c-3.08,1.32-6.32-1.91-8.81-3.97s-7.2-6.76-7.2-6.76s5.87,17.92,2.79,19.97
			s-8.67-0.15-8.67-0.15s4.55,6.02,0.73,8.08c-3.82,2.06-13.22-1.62-13.22-1.62s8.22,6.02,8.08,11.31s-3.08,7.78-4.41,6.02
			c-1.32-1.76-2.06-4.55-2.06-4.55s-2.64,2.94-4.41,0.29c-1.76-2.64-1.47-5.87-1.47-5.87s-1.32,5.58-6.32,3.38s-8.37-7.05-8.37-7.05
			s3.23,6.76,1.91,10.28s-3.97,5.58-3.97,5.58s2.2,0.73,2.2,3.52s-0.73,1.91-0.73,1.91s5.14,0.88,4.55,3.08s-0.73,4.99-6.02,4.7
			c-5.29-0.29-5.87-5.87-5.87-5.87s0,2.79-6.02,2.35c-6.02-0.44-9.84-1.32-9.84-1.32s3.52,4.41,0.44,6.17
			c-3.08,1.76-6.32,1.91-6.32,1.91s4.99,3.97,5.29,8.08c0.29,4.11-1.76,6.02-1.76,6.02s4.99,2.2,3.52,5.29
			c-1.47,3.08-5.14,1.91-5.14,1.91s1.76,2.94-2.64,4.7c-4.41,1.76-6.32-2.64-6.32-2.64s-2.5,3.82-6.02,2.79s-5.58-4.55-5.58-4.55
			s-1.91,2.35-5.29,0.15c-3.38-2.2-4.85-4.11-4.85-4.11s4.85,6.17,4.55,11.31c-0.29,5.14-2.64,6.76-2.64,6.76s2.06,2.64,2.06,6.02
			s-2.79,5.14-2.79,5.14s6.46,1.03,7.34,5.14c0.88,4.11-0.73,6.32-0.73,6.32s3.23,3.82,0.59,6.76c-2.64,2.94-6.02-0.44-6.02-0.44
			s0,5.43-3.82,5.43c-3.82,0-7.93-2.06-7.93-2.06s4.99,4.85,5.29,8.22c0.29,3.38-2.06,5.58-2.06,5.58s5.43,3.23,3.23,5.87
			c-2.2,2.64-4.85,1.32-4.85,1.32s1.91,5.43-2.2,5.43c-4.11,0-7.93-3.08-7.93-3.08s3.97,7.64,1.91,9.84s-3.97,0.59-3.97,0.59
			s0.15,5.29-4.11,5.29c-4.26,0-5.87-3.97-5.87-3.97s1.17,7.78-2.64,12.92s-6.17,1.91-6.17,1.91l-1.76-3.97c0,0-2.2,4.55-4.26,4.99
			c-2.06,0.44-6.02-3.38-6.02-3.38s-5.58,1.17-8.96-0.88c-3.38-2.06-3.52-7.05-3.52-7.05s-5.87,6.9-8.22,4.7
			c-2.35-2.2-0.44-12.92-0.44-12.92s-3.97,4.26-6.46,3.82c-2.5-0.44-4.41-1.47-4.41-1.47s1.47,3.23-1.91,2.5
			c-3.38-0.73-6.9-5.14-7.05-7.05c-0.15-1.91-1.17-4.7-1.17-4.7s-2.64,4.11-4.55,1.32c-1.91-2.79-1.47-4.99-1.47-4.99
			s-5.73,0.59-8.67-3.08c-2.94-3.67-4.7-8.96-4.7-8.96s-3.38,2.2-7.34,0.59c-3.97-1.62-4.99-5.43-4.99-5.43s-6.32-0.29-10.28-2.2
			s-5.29-3.82-5.29-3.82s-1.91,1.03-3.38-0.29s-4.11-1.17-4.99-2.64c-0.88-1.47-2.64-4.7-2.64-4.7s-0.59,3.67-3.82,3.23
			c-3.23-0.44-5.29-1.47-7.93-1.17s-11.9,3.52-11.9,3.52s60.51,27.02,74.91,39.36c14.39,12.34,45.24,30.99,72.12,27.02
			c26.88-3.97,47-27.61,59.63-48.03c12.63-20.42,28.93-55.22,41.12-68.74C364.38,164.39,408.88,120.92,408.88,120.92z"/>
		<path class="st1" d="M455.6,183.87c0,0,17.29,11.58,12.98,36.75c-4.1,23.93,12.29,42.36,12.29,42.36s-0.42-16.88,1.32-20.35
			c1.74-3.47,6.17,6.91,12.11,18.67c5.94,11.75,5.53,31.09,12.88,50.98c7.35,19.89,30.26,17.79,39,32.01
			c8.61,13.99,15.74,15.53,15.74,15.53l-4.15-13.55c0,0,10.4-2.88,30.85,18.23c20.45,21.11,20.48,32.91,31.92,42.91
			c8.51,7.45,14.74,9.96,20.35,12.1c3.16,1.2-26.97-23.04-21.63-49.41c3.96-19.55-5.11-52.94-17.05-59.55
			c-11.94-6.6-21.41-21.06-15.46-27.18s6.47-14.35-1.29-24.07c-7.77-9.72-37.52-15.37-41.46-25.78
			c-3.94-10.41,11.37-3.99,11.37-3.99s-9.01-31.79-38.22-36.3c-57.74-8.91-103.52-37.98-103.52-37.98l10.17,10.47L455.6,183.87z"/>
		<path class="st2" d="M454.87,184.99c0,0,1.35-2.17,1.48-3.99c0.13-1.82-0.26-3.08-0.26-3.08l-5.21,3.69L454.87,184.99z"/>
		<path class="st2" d="M449.2,181.65c0,0,1.02-2.34,0.89-4.16c-0.13-1.82-0.7-3.01-0.7-3.01l-4.63,4.39L449.2,181.65z"/>
		<path class="st2" d="M443.87,179.78c0,0,1.02-2.34,0.89-4.16c-0.13-1.82-0.7-3.01-0.7-3.01l-4.63,4.39L443.87,179.78z"/>
		<path class="st2" d="M439.4,178.52c0,0,1.02-2.34,0.89-4.16c-0.13-1.82-0.7-3.01-0.7-3.01l-4.63,4.39L439.4,178.52z"/>
		<path class="st2" d="M434.5,175.79c0,0,1.02-2.34,0.89-4.16c-0.13-1.82-0.7-3.01-0.7-3.01l-4.63,4.39L434.5,175.79z"/>
		<path class="st2" d="M426.9,156.09c0,0-1.1,2.3-1.04,4.13c0.07,1.83,0.59,3.03,0.59,3.03l4.78-4.23L426.9,156.09z"/>
		<path class="st2" d="M431.59,158.43c0,0-1.1,2.3-1.04,4.13c0.07,1.83,0.59,3.03,0.59,3.03l4.78-4.23L431.59,158.43z"/>
		<path class="st2" d="M437.22,160.27c0,0-1.1,2.3-1.04,4.13c0.07,1.83,0.59,3.03,0.59,3.03l4.78-4.23L437.22,160.27z"/>
		<path class="st2" d="M442.35,162.89c0,0-1.1,2.3-1.04,4.13c0.07,1.83,0.59,3.03,0.59,3.03l4.78-4.23L442.35,162.89z"/>
		<path class="st2" d="M447.81,165.12c0,0-1.1,2.3-1.04,4.13c0.07,1.83,0.59,3.03,0.59,3.03l4.78-4.23L447.81,165.12z"/>
		<path class="st2" d="M452.94,167.58c0,0-1.1,2.3-1.04,4.13c0.07,1.83,0.59,3.03,0.59,3.03l4.78-4.23L452.94,167.58z"/>
		<path class="st2" d="M458.12,169.08c0,0-1.1,2.3-1.04,4.13c0.07,1.83,0.59,3.03,0.59,3.03l4.78-4.23L458.12,169.08z"/>
		<g>
			<path d="M466.69,403.68c0,0,2.55-0.52,6.19,0.39s5.35,0.14,6.5-0.56c2.11-1.29,2.93-4.04,1.19-8.08
				c-1.48-3.45-9.62-4.48-9.62-4.48l0.29,1.34c0,0-7.53-1.86-13.86,2.14c-6.32,4-6.42,14.04-6.42,14.04l1.95-0.28
				c0,0-0.46,5.86,1.86,8.56c2.32,2.7,2.88,2.79,2.88,2.79s-1.21-4.74,0.37-5.67s3.25,0.28,3.25,0.28l1.14-1.02
				c2.25-2.01,3.69-4.77,4.06-7.76L466.69,403.68z"/>
			<path class="st3" d="M479.34,402.45c0,0,0.43,16.21-0.94,18.6s-4.44,4.95-7.76,4.95s-6.4-2.05-6.4-2.05"/>
			<path class="st3" d="M468.01,408.31c0,0,2.24,0.54,2.71,1.16"/>
			<path class="st3" d="M477.68,408.16c0,0-2.24,0.54-2.71,1.16"/>
			<path class="st3" d="M472.59,413.63c0,0-0.24,2.43,0.84,2.8"/>
			<circle cx="469.17" cy="412.38" r="0.92"/>
			<circle cx="475.57" cy="412.38" r="0.92"/>
			<circle class="st3" cx="470.08" cy="420.21" r="1.78"/>
			<path class="st3" d="M455.72,415.95c0,0,1.35,3.27,2.87,4.06c1.51,0.8,1.51,0.8,1.51,0.8l-0.32,3.27c0,0-27.66,2.05-36.96,6.59
				c-9.31,4.54-28.03,26.9-28.03,26.9l7.04,9.65c0,0,13.39-14.19,19.86-18.04c6.47-3.86,14.19-5.79,14.19-5.79l-7.38,23.49
				l-19.75,6.92c0,0-2.04,1.93,0.91,6.13c2.95,4.2,6.01,4.54,6.01,4.54s16.57-13.16,23.38-22.36s17.02-28.03,19.18-33.82"/>
			<line class="st3" x1="428.49" y1="466.87" x2="439.05" y2="462.1"/>
			<path class="st3" d="M396.26,460.06c0,0-4.43,2.61-5.9,3.29s-3.29,2.5-3.29,2.5s-2.16-1.25-2.5,0.23s0,3.06,2.27,6.01
				c2.27,2.95,4.54,3.86,7.04,3.4c2.5-0.45,3.63-4.2,4.65-6.13s1.7-4.2,1.7-4.2"/>
			<path class="st3" d="M459.78,424.07c0,0,3.33,5.46,6.05,5.35c2.71-0.1,5.74-2.4,5.74-2.4s-1.67,9.49-1.67,9.18
				c0-0.31-4.07-6.05-4.07-6.05l-4.59,5.32l-4.28-11.06"/>
			<polyline class="st3" points="454.04,425.15 449.35,432.14 450.7,434.54 447.99,436.21 443.19,456.14 			"/>
			<path class="st3" d="M471.05,431.41c0,0,3.23,18.36,7.51,27.13c4.28,8.76,10.85,27.13,10.85,28.8s-6.89-26.61-7.3-31.72
				c-0.42-5.11,1.46-10.96,2.3-16.28c0.83-5.32-0.94-12.31-0.94-12.31l-6.89-3.44"/>
			<path class="st3" d="M489.41,487.33c0,0-1.04,2.5-3.76,0.83s-9.81-5.53-14.09-6.89c-4.28-1.36-6.75-1.57-6.75-1.57"/>
			<path class="st3" d="M483.46,427.03c0,0,13.88,6.16,18.78,7.62c4.9,1.46,16.37,2.16,20.87,1.98c5.22-0.21,7.09,0.21,7.09,0.21
				l-3.76,12.42c0,0-21.7,1.36-27.44-0.1c-5.74-1.46-15.02-4.9-15.02-4.9"/>
			<path class="st3" d="M530.21,436.83c0,0,5.84-1.04,7.72-1.77s8.03-3.44,9.08-2.4"/>
			<path class="st3" d="M543.77,435.48c0,0,2.19,4.38,0.52,5.53s-1.88,0.21-2.5-0.31c-0.63-0.52-1.04-1.77-1.04-1.77l-2.5,1.57"/>
			<path class="st3" d="M528.33,444.56c0,0,6.78-0.73,8.03-0.21c1.25,0.52,3.13,0.63,3.13,0.63"/>
			<path class="st3" d="M544.92,436.1c0,0,3.55-3.76,4.28-2.3c0.73,1.46-0.21,5.74-2.61,8.56c-2.4,2.82-3.28,3.13-4.17,3.13
				c-1.77,0-3.44-2.82-1.98-4.59"/>
			<path class="st3" d="M547.16,451.1c0,0-5.41-1.17-7.24-6.65"/>
			<path class="st3" d="M555.03,433.2c0,0-2.96-2.69-7.2-0.42"/>
			<path class="st3" d="M570.44,471.33c0.96,0.59-7.76-1.9-15.82-5.27c-6.12-2.56-12.78-6.35-12.78-6.35s15.59-38.63,17.67-39.84
				s30.31,5.54,30.31,5.54l-1.21,10.57L570.44,471.33z"/>
			<path class="st3" d="M559.52,419.87c0,0,6.39,3.62,14.54,8.51c7.86,4.72,14.56,7.6,14.56,7.6"/>
			<path class="st3" d="M474.51,449.41c0,0-2.73,11.74-6.14,20.88c-3.41,9.14-6.41,13.24-7.1,15.01c-0.68,1.77-3,10.24-3,10.24"/>
			<path class="st3" d="M431.52,470.97c0,0-0.27,4.09,0,4.78s-2.32,5.32-3.55,7.1c-1.23,1.77-3.55,12.42,0.55,18.29
				c4.09,5.87,18.29,12.56,25.11,15.56c6.82,3,10.92,3,11.33,3.55s3.82,17.2,7.1,25.11c3.28,7.92,7.78,18.29,7.78,18.29l12.15-8.05
				c0,0-11.74-46.54-12.83-48.04c-1.09-1.5-29.62-16.24-31.53-17.2"/>
			<path class="st3" d="M432.14,475.85c0,0,10.18,5.54,19.74,5.27c9.56-0.27,12.94-1.41,12.94-1.41"/>
			<path class="st3" d="M430.18,479.51c0,0,8.49,5.45,18.49,5.99s12.61-0.19,12.61-0.19"/>
			<path class="st3" d="M452.22,516.34c0,0-4.59,15-6.12,16.69c-1.53,1.68-32.91,23.88-32.91,23.88s-5.66-3.83-7.04-6.43
				c-1.38-2.6-3.21-5.36-3.21-5.36s27.09-18.98,27.71-19.59c0.61-0.61,5.82-17.3,5.82-17.3"/>
			<line class="st3" x1="480.46" y1="563.19" x2="482.84" y2="569.88"/>
			<line class="st3" x1="487.87" y1="558.51" x2="490.1" y2="563.55"/>
			<path class="st3" d="M481.04,570.39c0,0,3.49,0.08,5.83-1.22c3.89-2.16,4.68-6.76,4.68-6.76s13.67-5.32,15.25-4.89
				c1.58,0.43,4.53,3.17,4.53,3.17l-16.19,14.1l0.79,0.86l-7.92,5.68c0,0-2.59-2.16-4.68-5.32S481.04,570.39,481.04,570.39z"/>
			<line class="st3" x1="403.85" y1="546.81" x2="397.64" y2="550.25"/>
			<line class="st3" x1="409.25" y1="554.05" x2="404.37" y2="557.29"/>
			<path class="st3" d="M397.15,548.49c0,0,0.2,3.48,1.68,5.71c2.46,3.7,7.11,4.13,7.11,4.13s6.39,13.21,6.08,14.82
				c-0.31,1.61-2.8,4.77-2.8,4.77l-15.34-15.02l-0.8,0.86l-6.29-7.44c0,0,1.95-2.75,4.94-5.08
				C394.73,548.9,397.15,548.49,397.15,548.49z"/>
			<polygon class="st4" points="463.33,433.6 464.06,437.98 467.19,437.88 468.44,434.33 465.83,430.16 			"/>
			<path class="st4" d="M467.92,438.09c0,0-1.57,14.09-7.51,20.35c-3.41,3.59-9.7,6.36-14.82,5.53s-13.98-5.01-13.98-5.01
				s-2.71-9.49-2.3-9.29s10.02-2.5,10.02-2.5s9.81,6.78,14.71,7.3c4.9,0.52,10.02-16.49,10.02-16.49L467.92,438.09z"/>
		</g>
		<path class="st0" d="M415.59,151.37c0,0,7.77,8.18,17.73,10.77c9.96,2.59,32.32,13.09,32.32,13.09s4.23-5.59,2.45-11.05
			c-1.77-5.46-6.96-12.14-9.82-18c-2.86-5.86-3.96-7.77-3.96-7.77s4.5-7.23,2.18-8.86c-2.32-1.64-5.59-0.68-6.55-2.32
			c-0.95-1.64-1.09-5.18-4.36-7.09s-6.82-1.09-8.73-2.32c-1.91-1.23-5.59-4.64-9-4.77s-10.91,1.64-14.59,4.23
			c-3.68,2.59-9.14,5.18-9.14,5.18s-13.81,7.85-18.14,10.64c-17.39,11.19-44.39,48.04-49.82,56.99
			c-3.16,5.21-9.34,18.64-16.29,29.71c-6.95,11.07-32.54,58.37-51.7,64.85c-19.16,6.47-45.67,4.13-70.39-11
			c-24.72-15.13-40.29-28.22-51.49-34.91c-11.2-6.69-23.71-11.64-37.23-10.62s-21.23,10.76-21.23,10.76s22.83-4.07,40,14.69
			s33.31,44.21,36.8,52.36c3.49,8.14,38.79,52.47,75.48,63.95c50.88,15.92,83.28,14.83,108.62,7.03s36.27-30.42,41.04-45.15
			c4.76-14.73,17.54-81,18.19-89.45c0.65-8.45,13-59.13,13-59.13s21.58,9.28,26.92,7.93c5.34-1.36,7.69-6.78,7.69-6.78
			s-1.99-4.16-10.67-7.24c-8.68-3.08-13.11-6.24-20.35-11.58c-7.24-5.34-10.13-7.6-10.76-10.13
			C413.16,152.86,415.59,151.37,415.59,151.37z"/>
		<path class="st0" d="M408.72,129.44c-0.26-0.09-5.76-11.09-9.26-10.13s-6.2,7.51-3.58,11.35c2.62,3.84,5.15,3.84,5.15,3.84"/>
		<path class="st0" d="M332.46,200.59c0,0-9.29-8.74-18.4-8.93c-9.11-0.18-16.39,6.74-16.39,6.74s-8.93,0.73-9.65,3.1
			c-0.73,2.37-0.36,9.84,5.46,11.29c5.83,1.46,8.56-8.38,8.56-8.38s9.07-6.14,14.17-2.86s12.6,12.33,12.6,12.33"/>
		<path class="st3" d="M287.85,204.91c0,0,3.5-0.91,4.8-1.68"/>
		<path class="st3" d="M289.6,208.51c0,0,3.5-0.91,4.8-1.68"/>
		<path class="st3" d="M291.6,210.97c0,0,3.5-0.91,4.8-1.68"/>
		<path class="st3" d="M420.97,183.19c0,0-15.87-8.72-22.14-15.62"/>
		<path class="st2" d="M428.27,134.5c0,0,2.09-2.91,8-0.36c5.91,2.54,4.72,4.45,4.72,4.45s-3.63,0.91-7.18,0.27
			C430.26,138.22,428.27,134.5,428.27,134.5z"/>
		<line class="st3" x1="435.26" y1="133.86" x2="433.26" y2="138.04"/>
		<g>
			<path class="st2" d="M288.21,446.77v28.29h-2.86v4.97h83.22v-4.21c0,0-0.75-17.31-2.41-22.42s-4.21-6.77-4.21-6.77L288.21,446.77
				z"/>
			<circle class="st2" cx="303" cy="479.13" r="3.31"/>
			<circle class="st2" cx="310.67" cy="479.13" r="3.31"/>
			<circle class="st2" cx="331.76" cy="479.13" r="3.31"/>
			<circle class="st2" cx="362.54" cy="479.92" r="3.31"/>
			<circle class="st2" cx="354.47" cy="479.92" r="3.31"/>
			<rect x="337.27" y="448.24" class="st2" width="8.56" height="29.12"/>
			<path class="st2" d="M348.83,448.77h13.32c0,0,2.21,1.85,3.18,5.47c0.97,3.62,0.88,5.03,0.88,5.03h-17.82L348.83,448.77z"/>
			<rect x="322.45" y="449.21" class="st2" width="12" height="12.09"/>
			<rect x="309.05" y="449.21" class="st2" width="7.24" height="12.09"/>
			<rect x="292.8" y="449.21" class="st2" width="12" height="12.09"/>
			<path class="st3" d="M321.43,481c0,0-4.34-19.93-0.48-36.25c3.86-16.32,7.42-18.55,7.42-18.55s-7.17,13.65-6.77,29.38
				c0.4,15.73,5.18,25.21,5.18,25.21"/>
			<path class="st3" d="M328.37,426.2c0,0-3.56-10.09,0.4-12.17c3.96-2.08,1.19,10.49,1.19,10.49s3.86-8.51,8.11-6.23
				c4.25,2.28-7.32,8.11-7.32,8.11s0.49,1.68,4.65,0.89c4.15-0.79,6.33-1.88,6.33-1.88"/>
		</g>
		<g>
			<path class="st2" d="M179.71,339.92l-27.18,7.86l-0.79-2.75l-4.77,1.38l23.11,79.94l4.05-1.17c0,0,16.42-5.53,20.87-8.54
				c4.46-3.01,5.33-5.93,5.33-5.93L179.71,339.92z"/>
			<circle class="st2" cx="152.74" cy="363.11" r="3.31"/>
			<circle class="st2" cx="154.87" cy="370.48" r="3.31"/>
			<circle class="st2" cx="160.73" cy="390.74" r="3.31"/>
			<circle class="st2" cx="168.51" cy="420.53" r="3.31"/>
			<circle class="st2" cx="166.27" cy="412.78" r="3.31"/>
			
				<rect x="174.85" y="381.06" transform="matrix(0.2778 0.9607 -0.9607 0.2778 509.4233 113.6498)" class="st2" width="8.56" height="29.12"/>
			<path class="st2" d="M194.63,398.71l3.7,12.8c0,0-1.17,2.63-4.37,4.57s-4.59,2.24-4.59,2.24l-4.95-17.12L194.63,398.71z"/>
			
				<rect x="176.69" y="374.93" transform="matrix(0.9607 -0.2778 0.2778 0.9607 -98.6143 65.7442)" class="st2" width="12.09" height="12"/>
			
				<rect x="172.31" y="362.15" transform="matrix(0.9607 -0.2778 0.2778 0.9607 -94.5766 63.9305)" class="st2" width="12.09" height="7.24"/>
			
				<rect x="168.46" y="346.45" transform="matrix(0.9607 -0.2778 0.2778 0.9607 -91.0282 62.3366)" class="st2" width="12.09" height="12"/>
			<path class="st3" d="M156.06,381.34c0,0,17.94-9.71,34.69-10.54s19.88,1.98,19.88,1.98s-15.1-3.1-30.1,1.65
				s-22.78,11.98-22.78,11.98"/>
			<path class="st3" d="M210.63,372.78c0,0,8.7-6.22,11.8-3c3.09,3.22-9.74,4.05-9.74,4.05s9.24,1.34,8.24,6.06
				c-1,4.72-9.83-4.78-9.83-4.78s-1.48,0.94,0.44,4.71s3.56,5.56,3.56,5.56"/>
		</g>
		<path d="M132.03,358.58l2.72,0.52l-1.17,1.55l0.52,4.14l-2.46,2.98l4.62,1.11l2.89-2.4l2.07,1.55l-1.8,0.24l-2.99,2.35l-5.57-0.39
			l-1.94,3.37c0,0-1.29,5.83-2.59,5.83c-1.29,0,0.78-4.79,0.78-4.79s-1.68,0.78-2.33,0.39c-0.65-0.39,0.04-1.87,0.04-1.87
			s-4.68,1.42-5.09,0.71c-0.61-1.06,6.09-2.72,6.09-2.72l6.31-6.91L132.03,358.58z"/>
		<path d="M95.8,370.41l2.49,1.66l-2.69,3.73l2.55,4.14l2.62-0.28l1.31-0.97c0,0,4.21-0.35,4.35,0.07s0.07,1.24-0.97,1.17
			c-1.04-0.07-2.97,0-2.97,0l-1.1,1.24l0.41,0.62c0,0,1.73,0.48,1.8,1.24c0.07,0.76-0.9,1.17-1.38,1.1s-1.04-0.48-1.04-0.48
			s0.48,1.31,1.8,2.14c1.31,0.83,1.24,1.45,1.04,1.8s-1.04,0.48-3.18-1.1c-2.14-1.59-8.42-6.56-8.42-6.56l-2.69-0.62l-1.52-4.42
			l-2-1.24l3.59-0.41l1.45,3.94l3.18,0.83l-1.31-2.62l2.62-3.04L95.8,370.41z"/>
		<path class="st1" d="M461.22,245.2c0,0-1.39,13.64,4.43,20.66c11.26,13.59,12.49,26.08,12.49,26.08l-5.69-4.35
			c0,0,2.67,2.94,4.52,13.27s1.03,16.94,0.66,22.85s6.81,12.62,4.26,26.27c-0.01,0.05-0.02,0.11-0.03,0.17
			c-0.32,1.76-2.79,1.91-3.28,0.19c-2.05-7.17-5.53-15.46-11.08-18.8c-7.98-4.8-11.81-16.6-12.17-20.29
			c-0.37-3.69-2.94-0.56-2.95,5.53c-0.01,2.95,3.69,9.22,3.69,9.22s-8.34-5.13-10.79-12.71c-2.3-7.11-3.23-20.5,1.57-31.56
			c4.8-11.07,3.69-13.65,3.69-13.65l-6.27,2.95c0,0,4.46-12.02,4.83-19.76c0.37-7.75,4.82-24.21,6.72-31.79
			c3.28-13.11-2.33-25.55-2.33-25.55s8.55,7.85,9.21,25.88C462.95,227.04,461.22,245.2,461.22,245.2z"/>
		<line class="st3" x1="401.71" y1="582.18" x2="127.57" y2="534.45"/>
		<line class="st3" x1="378.98" y1="543.87" x2="230.12" y2="493.18"/>
	</g>
	<path class="st5" d="M476.09,197.33c0,0-3.12,14.56,3.72,25.33c5.24,8.25,28.31,17.88,32.03,26.07c3.72,8.19,0.4,18.81,3.63,34.05
		c1.76,8.31,12.01,22.57,12.01,22.57s-9.15-26.11-3.93-44.74c5.21-18.62-14.69-44.66-14.69-44.66l14.9,6.7
		c0,0-5.37-20.94-15.64-18.62C490.96,207.91,476.09,197.33,476.09,197.33z"/>
</g>
</svg>
