<?xml version="1.0" encoding="utf-8"?>
<!-- Generator: Adobe Illustrator 23.0.2, SVG Export Plug-In . SVG Version: 6.00 Build 0)  -->
<svg version="1.1" xmlns="http://www.w3.org/2000/svg" xmlns:xlink="http://www.w3.org/1999/xlink" x="0px" y="0px"
	 viewBox="0 0 709.97 653.29" style="enable-background:new 0 0 709.97 653.29;" xml:space="preserve">
<style type="text/css">
	.st0{fill:#808080;stroke:#212121;stroke-width:2;stroke-linecap:round;stroke-linejoin:round;stroke-miterlimit:10;}
	.st1{fill:#FFFFFF;stroke:#000000;stroke-width:2;stroke-linecap:round;stroke-linejoin:round;stroke-miterlimit:10;}
	.st2{fill:#E72A8B;}
	.st3{fill:#FFFFFF;}
	.st4{fill:#FFFFFF;stroke:#212121;stroke-width:2;stroke-linecap:round;stroke-linejoin:round;stroke-miterlimit:10;}
	.st5{fill:#FFEC00;stroke:#000000;stroke-width:2;stroke-linecap:round;stroke-linejoin:round;}
	.st6{fill:none;stroke:#212121;stroke-width:2;stroke-linecap:round;stroke-linejoin:round;stroke-miterlimit:10;}
	.st7{fill:#45D62F;stroke:#000000;stroke-width:2;stroke-linecap:round;stroke-linejoin:round;}
	.st8{fill:none;stroke:#000000;stroke-width:2;stroke-linecap:round;stroke-linejoin:round;stroke-miterlimit:10;}
</style>
<path class="st0" d="M294.02,367.3c0,2.86-13.57,159.27-13.57,159.27l10.37-0.16l32.48-153.4L294.02,367.3z"/>
<path class="st0" d="M475.07,367.3c0,2.86,13.57,159.27,13.57,159.27l-10.37-0.16l-32.48-153.4L475.07,367.3z"/>
<path class="st0" d="M254.15,338.3c-1.57-11.91-4.15-45.39,1.62-53.92c5.26-7.77,61.17-25.07,61.17-25.07s90.64-2.82,97.49,0.4
	c6.85,3.22,80.32,4.09,85.16,16.18s5.67,47.24-5.2,86.92c-5.72,20.89-54.02,25.81-118.64,26.22c-57.32,0.36-91.89-1.51-103.98-14
	S255.88,351.41,254.15,338.3z"/>
<path class="st1" d="M422.06,211.4c0,0,33.22,17.67,43.55,24.55c13.2,8.8,18.07,13.43,31.27,28.49
	c13.04,14.87,26.47,34.65,29.18,40.51c2.7,5.86,4.66,12.42,7.46,22.79c2.79,10.37,3.2,25.11,2.72,28.25s-4.04,13.59-6.77,14.92
	c-2.73,1.33-2.46,0.07-2.57-4.64c-0.11-4.71,1.42-11.25,1.47-14.54s-4.89-14.45-4.89-14.45s-2.01,2.28-1.22,7.53
	c0.79,5.25,2.73,9.76,0.18,10.87c-2.55,1.1-6.06-12.06-8.09-19.23c-2.03-7.17-1.01-18.81-0.33-21.97
	c0.68-3.16-17.33-24.01-25.02-32.2c-7.69-8.18-39.77-28.56-46.1-33.81c-6.33-5.25-20.85-10.85-25.4-14.86
	C412.95,229.59,422.06,211.4,422.06,211.4z"/>
<path class="st2" d="M334.19,529.17c-8.19-9.06-6.18-37.35,19.59-44.75c13.03-3.74,24.87-14.11,31.83-22.12
	c2.24-2.58,6.48-0.65,6.02,2.74c-0.56,4.21-1.72,8.78-4,12.35c-5.76,9.02-9.2,23.01-9.2,23.01s7.42-24.89,24.72-31.15
	c17.31-6.26,60.87-9.96,71.09-25.59c10.22-15.63,14.03-35.81,32.42-43.79c11.29-4.9,19.87-10.78,25.62-15.44
	c2.79-2.26,6.75,0.67,5.45,4.02c-2.5,6.43-6.82,14.04-14.15,19.23c-14.98,10.61-15.28,21.61-17.95,29.5
	c-2.66,7.88-7.4,14.99-7.4,14.99s22.06-13.97,28.59-29.09c6.54-15.12,18.52-28.26,34.73-38.83c8.39-5.47,15.07-14.44,19.56-21.81
	c1.97-3.23,6.93-1.48,6.46,2.27c-0.78,6.27-2.71,13.73-7.08,20.67c-10.24,16.24-24.3,37.89-24.3,37.89s16.61-3.22,23.68-15.26
	c1.2-2.05,2.56-3.97,3.99-5.75c2.47-3.08,7.34-0.28,6,3.42c-1.48,4.06-2.78,8.79-3.57,14.13c-3,20.12-21.8,36.13-31.89,46.87
	c-10.09,10.74-2.12,24.2-11.28,41.09c-8.1,14.92-24.22,26.17-39.62,29.74c-37.92,8.78-34.25-15.74-110.72-4.46
	C350.71,539.24,340.48,536.13,334.19,529.17z"/>
<path class="st3" d="M416.7,519.8c0,0,34.2-22.73,38.39-32.15s22.39-32.81,27.16-35.84c4.77-3.03,10.54-7.03,10.54-7.03
	s-10.69,11.59-13.68,29.85c-2.99,18.26-6.57,23.44-6.57,23.44s6.5-2.16,13.55-9.94c7.05-7.78,17.52-15.19,17.52-15.19
	s-9.43,21.79-11.95,30.71c-2.51,8.92-11.61,16.28-11.61,16.28s6.09,0.71,11.52-2.68c1.92-1.2,6.41-5.89,6.41-5.89
	s-4.63,12.46-14.18,15.17c-9.55,2.72-22.16-1.69-33.57-4.93C438.81,518.36,416.7,519.8,416.7,519.8z"/>
<polygon class="st4" points="407.48,443.23 399.44,480.78 419.76,483.94 428.85,454.86 "/>
<path class="st4" d="M245.02,485.97l-13.15,33.48c0,0,5.09,13.66,12.73,14.93c7.64,1.27,12.45-6.67,12.45-6.67l15.29-38.33
	L245.02,485.97z"/>
<g>
	<path class="st5" d="M178.92,547.24c0,0,1.25-9.59,2.46-13.26c1.21-3.67,10.24-5.05,23.52-8.2c13.28-3.15,15.6-8.12,15.6-8.12
		s4.1-8.23,11.89-5.32c8.15,3.04,3.74,11.98,7.76,12.03c3.86,0.05,12.31-0.34,18.48-0.66c3.85-0.2,6.99,3.06,6.65,6.9l-1.47,16.46
		c0,0-15.46,2.79-41.22,2.29C192.23,548.77,178.92,547.24,178.92,547.24z"/>
	<path class="st5" d="M176.39,547.75c0.21-1.1,1.34-1.72,2.61-1.46c6.02,1.25,85.3-0.85,85.3-0.85l-0.48,7.54h-88.25L176.39,547.75z
		"/>
	<path class="st6" d="M216.42,522.77c0,0,5.19,2.15,10.49,9.19"/>
	<path class="st6" d="M209.29,525.22c0,0,5.19,2.15,10.49,9.19"/>
	<path class="st6" d="M201.18,527.4c0,0,5.19,2.15,10.49,9.19"/>
</g>
<path class="st2" d="M105.61,505.57c-10.1-18.04-9.23-34.88,1.54-58.47c14.49-31.73,41.03-29.75,52.83-37.96
	c11.8-8.21,14.36-23.59,24.62-32.31c1.76-1.5,3.42-2.81,4.95-3.97c2.33-1.75,5.33,1.02,3.83,3.52c-2.31,3.83-4.41,8.29-5.19,12.76
	c-2.05,11.8-7.69,23.59-7.69,23.59s15.39-5.13,18.98-14.36c3.59-9.23,2.97-24.09,16.41-30.26c10.06-4.62,17.45-13.34,22.05-20.24
	c1.52-2.27,5.06-1.01,4.83,1.71c-0.64,7.39-1.69,16.8-3.28,23.66c-3.64,15.72-11.28,12.82-13.85,23.08
	c-2.56,10.26-5.94,35.62-13.78,45.67c-10.15,13.01-29.82,17.93-29.82,17.93s16.81,3.14,33.98-14.55c8.73-9,17.6-12.08,22.97-13.13
	c2.17-0.42,3.86,1.88,2.82,3.83c-6.64,12.55-26.31,48.8-39.77,64.37c-16.41,18.98-33.34,25.65-58.99,25.13
	C127.13,525.25,112.79,518.39,105.61,505.57z"/>
<path class="st1" d="M382.21,351.34l-65.87,26.65l-45.09,122.4c0,0-14.4,5.61-31.97-4.39c-22.96-13.07-40.65-10.59-40.65-10.59
	s58.3-136.94,71.02-151.05c14.23-15.79,95.25-37.76,95.25-37.76L382.21,351.34z"/>
<path class="st1" d="M424.86,295.15c1.69-0.04,60.77,20.2,65.59,33.05c4.81,12.85-8.52,43.97-22.52,71.92
	c-14,27.96-32.12,72.36-32.12,72.36s-17.09-7.49-30.97-22.38c-13.88-14.89-26.17-12.6-26.17-12.6s19.36-37.41,29.66-54.57
	c10.31-17.16,18.63-30.87,18.63-30.87l-34.22-8.79L424.86,295.15z"/>
<path class="st5" d="M394.97,487.11c0,0,3.85-16.03,14.95-14.34s12.55,7.84,12.35,13.05s-0.53,32.87,0.03,42.62
	c0.56,9.75-4.36,22.23-16.39,22.51c-12.03,0.28-16.75-6.76-16.83-23.68C389.01,510.35,394.97,487.11,394.97,487.11z"/>
<path class="st6" d="M389.52,532.78c0,0,0.45,10.92,15,12.65c14.56,1.73,17.26-11.53,17.26-11.53"/>
<path class="st6" d="M401.99,492.55c0,0,7.41-4.98,14.25,0.96"/>
<path class="st6" d="M401.18,499.66c0,0,7.41-4.98,14.25,0.96"/>
<path class="st6" d="M400.55,507.45c0,0,7.41-4.98,14.25,0.96"/>
<path class="st7" d="M436.62,262.51c0,0,8.83-10.32,14.05-14.41c8.66-6.79,19.34-16.13,19.34-16.13s-36.74-28.44-49.93-30.94
	c-8.74-1.66-35.07-1.16-43.53-1.35c-8.46-0.18-20.18-3.89-35.54-0.43c-16.15,3.64-31.83,27.93-31.83,27.93l33.29,17.49l-14.33,63.19
	c0,0,13.68,26.51,73,2.44c14.7-5.96,21.06-6.39,28.02-7.15c6.96-0.75,12.79-0.94,12.79-0.94L436.62,262.51z"/>
<g>
	<path class="st3" d="M393.36,200.24c0,0-3.08,9.1-13.51,6.42c-9.94-2.55-6.96-13.51-6.69-18.19c0.27-4.68-0.96-4.91-1.42-6.4
		c-0.45-1.49-5.67-7.91-2.59-11.12c3.08-3.21,6.15-0.8,6.15-0.8s-0.27-18.73,11.64-20.33c11.9-1.61,27.42-2.14,27.55,8.16
		c0.13,10.3,0.4,24.61-4.55,30.5S393.36,200.24,393.36,200.24z"/>
	<path d="M371.74,182.07c0,0-28.33-2.51-10.9-35.96c7.27-13.96,21.65-10.39,28.65-17.67c7-7.28,9.68-17.7,17.83-21.27
		c8.14-3.57,19.17-1.16,19.17-1.16s-4.86,2.43-7.71,5.71s-4.14,7.14-4.14,7.14s11.57-11.85,29.99-11.28
		c18.42,0.57,26.85-3,31.28-6.43c4.43-3.43,7.43-9.71,7.43-9.71s2.71,11.28-1.29,18.28s-5.71,7-5.71,7s2.67,0.04,5.14-1.86
		c1.23-0.94,3.46-4.47,3.46-4.47s3.69,5.64,0.65,14.18c-2.77,7.77-6.82,11.29-10.54,14.86c-3.71,3.57-4.95,11-4.95,11
		s1.96-6.14,5.67-9.14c3.71-3,7-4.14,7-4.14s-5.14,6.14-8.14,17.57c-3,11.43-8.14,22.42-17.71,25.71s-22,1-27.28,3.57
		s-9,9.85-11.57,12.43s-7.55,3.83-7.55,3.83s-17.38,0.11-17.12-0.23c0.79-1.01-0.68-3.54-0.68-3.54s9.15-2.08,13.47-10.06
		c4.93-9.11,5.76-20.33,4.7-26.05c-1.42-7.69-13.98-9.49-21.43-8.04c-10.28,2.01-12.28,19.2-12.28,19.2s-2.09-3.83-4.69-3.24
		C363.26,170.41,371.74,182.07,371.74,182.07z"/>
	<path class="st8" d="M376.96,173.14c0,0-0.68-4.17-4.18-4.53c-3.49-0.36-5.76,4.55-4.53,8.04c0.88,2.5,3.15,4.56,4.38,5.53
		c0.5,0.4,0.77,1.02,0.71,1.66l-1.23,13.3c-0.4,4.29,2.34,8.26,6.5,9.38c1.06,0.28,2.22,0.51,3.49,0.65c0.91,0.1,1.83,0.13,2.73,0.1
		c4.13-0.1,7.59-3.17,8.35-7.24v0c0.22-1.2,1.49-3.06,0.28-2.91c-8.89,1.09-11.51-4.84-11.42-5.09"/>
	<path class="st8" d="M408.86,168.97c0,0-3.65-2.03-6.28-0.97c-3.07,1.24-3.62,5.39-3.78,7.36c-0.17,1.97-0.17,5.91-0.17,5.91
		s-3.21,0.8-4.73-0.61"/>
	<path class="st8" d="M388.16,164.17c0,0,5.22-0.6,7.81,1.76"/>
	<path class="st8" d="M388.95,168.93c0,0,1.11,2.54,4.62,1.89"/>
	<path class="st8" d="M402.48,172.93c0,0,1.38,2.4,4.8,1.38"/>
	<path class="st8" d="M388.69,184.43l9.1,2.85c0,0-1.88,3.93-5.98,2.69C387.77,188.75,388.69,184.43,388.69,184.43z"/>
</g>
<path class="st8" d="M216.99,169.8c0,0,10.95,20.85,40.86,31.38"/>
<path class="st8" d="M218.88,184.58c0,0,16.36,16.95,48.01,18.67"/>
<path class="st8" d="M221.5,194.21c0,0,18.99,13.92,50.49,10.25"/>
<path class="st8" d="M225.02,202.3c0,0,20.09,12.29,51.17,6"/>
<path class="st8" d="M246.07,114.95c0,0-9.3,21.81,5.52,53.21c11.2,23.72,27.62,34.02,27.62,34.02"/>
<path class="st8" d="M236.76,120.42c0,0-6.81,22.71,11.44,52.26c13.78,22.32,31.26,30.72,31.26,30.72"/>
<path class="st8" d="M228.94,127.48c0,0-4.23,23.33,17.19,50.66c16.18,20.64,34.48,27.04,34.48,27.04"/>
<path class="st8" d="M220.84,140.93c0,0,0.94,23.69,27.81,45.7c20.29,16.63,39.54,18.89,39.54,18.89"/>
<path class="st8" d="M217.53,155.52c0,0,5.86,22.97,36.73,38.9c23.31,12.03,42.61,10.23,42.61,10.23"/>
<g>
	<path class="st8" d="M303.88,261.43c0,0-21.35-9.95-33.29-39.32"/>
	<path class="st8" d="M288.72,256.19c0,0-18.65-14.39-23.86-45.66"/>
	<path class="st8" d="M278.87,254.65c0,0-15.94-17.34-15.76-49.05"/>
	<path class="st8" d="M269.78,250.78c0,0-13.77-17.33-10.95-48.91"/>
	<path class="st8" d="M356.8,227.17c0,0-20.94,11.12-53.49-1c-24.58-9.15-36.24-24.64-36.24-24.64"/>
	<path class="st8" d="M353.01,237.34c0,0-22.92,8.28-53.91-7.4c-23.4-11.84-33.25-28.54-33.25-28.54"/>
	<path class="st8" d="M345.76,245.31c0,0-22.89,6.2-51.93-12.84c-21.94-14.38-29.87-32.07-29.87-32.07"/>
	<path class="st8" d="M333.05,254.52c0,0-23.69,1.07-47.89-23.83c-18.28-18.81-22.17-37.8-22.17-37.8"/>
	<path class="st8" d="M318.79,259.05c0,0-23.39-3.9-41.87-33.3c-13.96-22.21-13.8-41.59-13.8-41.59"/>
</g>
<path class="st6" d="M260.76,111.36c0,0-8.86,8.82-8.06,31.74c0.5,14.36,8.31,42.32,24.68,59.69
	c16.37,17.38,61.46,25.69,82.11,16.37"/>
<path class="st6" d="M270.55,110.6c0,0-9.68,8.41-10.47,32.52c-0.47,14.36,2.22,36.33,20.78,55.05
	c16.81,16.95,58.03,21.85,78.69,12.53"/>
<ellipse transform="matrix(0.7974 -0.6034 0.6034 0.7974 -60.5647 206.9472)" class="st8" cx="277.94" cy="193.68" rx="44.12" ry="66.56"/>
<path class="st8" d="M338.85,251.62c0,0,17.61-9.47,20.44-31.71c2.47-19.38-0.7-50.04-32.42-82.46
	c-27.89-28.51-66.6-35.94-91.62-16.21c-20.09,15.85-21.85,46.51-16.56,65.19c5.29,18.68,14.07,32.79,27.49,46.51
	C291.63,279.46,338.85,251.62,338.85,251.62z"/>
<polygon class="st1" points="292.59,211.57 372.27,268.48 353.96,293.22 278.49,223.94 "/>
<path class="st1" d="M340.2,365.02c0,0-12.3-18.34-13.47-21.13c-1.16-2.79,3.95-22.52,23.91-51.08s36.68-42.02,44.34-43.65
	c7.66-1.63,19.97-2.09,29.02-0.46c9.05,1.63,24.61,10.68,24.61,10.68L340.2,365.02z"/>
<path class="st1" d="M419.43,256.48c-5.13,0.24-9.95,2.46-13.51,6.17c-2.6,2.71-6,6.66-10.26,12.39
	c-11.62,15.63-53.3,75.75-55.31,82.56s0,10.82,8.82,8.82c8.82-2,42.08-12.42,47.69-16.43s54.51-83.76,54.11-88.17
	c-0.4-4.41-6.01-4.41-17.23-5.21C428.37,256.22,423.28,256.3,419.43,256.48z"/>
<path class="st1" d="M294.4,229.14c0,0,0-3.96-1.26-4.5c-1.26-0.54-7.01-1.62-8.45-0.9s-2.7,7.01-3.42,8.63s5.32,11.03,5.32,14.63
	s-8.19,5.74-11.07,8.21c-2.8,2.4-5.75,5.21-7.55,10.43c-1.8,5.21-3.42,12.59-1.8,14.2c1.62,1.62,19.6,7.91,25.71,0.36
	c6.11-7.55,6.47-15.64,11.15-18.16c4.67-2.52,7.38-6.02,12.05-11.23s10.37-10.22,10.55-12.38c0.18-2.16-1.61-3.98-1.61-3.98
	s1.97-2.5,1.13-4.06c-1.34-2.51-5.16-2.41-5.16-2.41s2.29-2.76,0.67-4.56c-1.62-1.8-5.04-0.77-5.04-0.77s-0.66-3.66-3.06-3.6
	c-2.89,0.07-11.87,5.21-14.02,7.19C296.38,228.24,294.4,229.14,294.4,229.14z"/>
<path class="st8" d="M315.62,222.66c0,0-4.07,2.37-7.55,4.65s-8.58,6.7-8.58,6.7"/>
<path class="st8" d="M320.04,228.02c0,0-4.07,2.37-7.55,4.65c-3.48,2.28-8.58,6.7-8.58,6.7"/>
<path class="st8" d="M324.33,233.52c0,0-4.07,2.37-7.55,4.65s-8.58,6.7-8.58,6.7"/>
<path class="st8" d="M294.4,229.14c0,0-3.35,3-4.96,3s-2.95-0.4-2.95-0.4"/>
<path class="st6" d="M278.78,111.26c0,0-9.33,10.84-11.6,28.24c-3.29,25.21,5.04,39.84,5.04,39.84"/>
<path class="st6" d="M285.08,113.78c0,0-9.33,10.84-11.6,28.24c-3.29,25.21,5.04,39.84,5.04,39.84"/>
<path class="st6" d="M293.49,116.12c0,0-10.14,10.09-13.74,27.26c-5.23,24.88,1.95,40.11,1.95,40.11"/>
<path class="st6" d="M301.84,119.75c0,0-10.74,9.44-15.4,26.36c-6.75,24.51-0.53,40.15-0.53,40.15"/>
<path class="st6" d="M309.79,123.86c0,0-10.91,9.29-17.4,24.21c-7.56,17.4-9.33,38.58-9.33,38.58"/>
<path class="st6" d="M316.85,128.91c0,0-10.68,8.14-18.66,22.32c-9.31,16.53-13.23,37.42-13.23,37.42"/>
<path class="st6" d="M323.41,134.2c0,0-10.34,9.33-16.39,17.65c-9.55,13.13-18.41,37.32-18.41,37.32"/>
<path class="st6" d="M329.39,140.14c0,0-11.79,11.2-18.34,19.02c-13.09,15.61-19.85,33.64-19.85,33.64"/>
<path class="st6" d="M335.26,146.81c0,0-7.31,7.56-17.15,17.15c-9.83,9.58-30.01,29.25-30.01,29.25"/>
<path class="st6" d="M340.55,153.87c0,0-8.32,8.57-20.17,18.66c-10.46,8.9-31.09,23.06-31.09,23.06"/>
<path class="st6" d="M345.32,162.51c0,0-9.04,7.81-21.74,16.81c-11.2,7.94-33.46,17.66-33.46,17.66"/>
<path class="st6" d="M351.27,172.54c0,0-12.8,10.25-28.11,15.42c-10.26,3.47-30.02,9.13-30.02,9.13"/>
<path class="st6" d="M358.46,203.04c0,0-23.2,10.84-62.53,1.01"/>
<path class="st6" d="M357.63,193.67c0,0-22.23,12.71-62.24,6.15"/>
<path class="st6" d="M354.71,182.91c0,0-20,15.99-60.55,15.67"/>
<path class="st1" d="M262.41,175.94c0,0-28.45,29.69-33.4,38.6s-6.43,19.55-4.7,22.02c1.73,2.47,21.28,15.84,35.14,10.64
	s39.59-37.36,39.59-37.36s-0.25-15.59-10.89-24.74C277.5,175.94,262.41,175.94,262.41,175.94z"/>
<path class="st6" d="M426.96,352.05c0,0,4.21-7.94,12.92-12.29"/>
<path class="st3" d="M123.49,510.27c6,3.96,18.95,8.12,30.28,7.52s29.84-12.98,29.84-12.98s-10.49-2.52-15.98-0.32
	c-5.49,2.21-14.97,0.1-14.97,0.1s8.19-8.05,18.93-11.19c10.74-3.14,20.52-20.32,20.52-20.32s-13.09,10.59-21.38,11.36
	c-8.29,0.77-21.61-5.71-29.77,0.46c-16.28,12.32-32.41,6.85-32.41,6.85S113.48,503.67,123.49,510.27z"/>
</svg>
