<?xml version="1.0" encoding="utf-8"?>
<!-- Generator: Adobe Illustrator 23.0.2, SVG Export Plug-In . SVG Version: 6.00 Build 0)  -->
<svg version="1.1" xmlns="http://www.w3.org/2000/svg" xmlns:xlink="http://www.w3.org/1999/xlink" x="0px" y="0px"
	 viewBox="0 0 709.97 653.29" style="enable-background:new 0 0 709.97 653.29;" xml:space="preserve">
<style type="text/css">
	.st0{fill:#FFFFFF;}
	.st1{fill:#808080;stroke:#231F20;stroke-width:2;stroke-miterlimit:10;}
	.st2{fill:none;stroke:#231F20;stroke-linecap:round;stroke-linejoin:round;stroke-miterlimit:10;}
	.st3{fill:#FFFFFF;stroke:#231F20;stroke-width:2;stroke-linecap:round;stroke-linejoin:round;stroke-miterlimit:10;}
	.st4{fill:#808080;}
	.st5{fill:#231F20;}
	.st6{fill:none;stroke:#231F20;stroke-width:2;stroke-linecap:round;stroke-linejoin:round;stroke-miterlimit:10;}
	.st7{fill:#FFEC00;stroke:#000000;stroke-width:2;stroke-linecap:round;stroke-linejoin:round;}
	.st8{fill:none;stroke:#231F20;stroke-width:8;stroke-linecap:round;stroke-linejoin:round;stroke-miterlimit:10;}
	.st9{fill:none;stroke:#45D62F;stroke-width:14;stroke-linecap:round;stroke-linejoin:round;stroke-miterlimit:10;}
	.st10{fill:none;stroke:#231F20;stroke-width:12;stroke-linecap:round;stroke-linejoin:round;stroke-miterlimit:10;}
	.st11{fill:none;stroke:#231F20;stroke-width:4;stroke-linecap:round;stroke-linejoin:round;stroke-miterlimit:10;}
	.st12{fill:#E72A8B;}
	.st13{fill:#45D62F;stroke:#000000;stroke-width:2;stroke-linecap:round;stroke-linejoin:round;}
	.st14{fill:none;stroke:#000000;stroke-width:2;stroke-linecap:round;stroke-linejoin:round;stroke-miterlimit:10;}
</style>
<path class="st0" d="M417.3,158.16c0.1,0.29-0.1,3.72,2.06,6.76s3.72,3.92,3.72,3.92l-4.11,9.01c0,0,1.37,4.51,5.29,6.86
	s5.78,2.16,7.45,1.37c1.67-0.78,3.62-2.65,3.62-2.65s4.8,1.96,8.23,1.67c3.43-0.29,8.33-5.29,11.27-10.19s4.41-9.21,4.41-9.21
	s-10.97-1.76-17.05-2.35c-6.07-0.59-10.48-0.88-15.19-2.06S417.3,158.16,417.3,158.16z"/>
<path class="st0" d="M418.12,255.09c0,0-1.09,1.85-3.42,1.32c-2.33-0.54-15.32-11.83-20.57-19.23s-15.46-30.99-15.46-30.99"/>
<path class="st0" d="M517.85,286.23c0,0,1.08-5.94-0.45-8.81c-1.53-2.88-26.65-20.39-26.65-20.39s0.11-3.99-0.96-4.98
	c-1.08-0.99-18.83-13.96-20.03-14.99s-6.86-8.94-9.65-14.06c-2.79-5.13-8.18-15.56-10.34-19.43c-2.16-3.87-9.17-13.31-12.77-17.09
	c-3.6-3.78-7.29-6.57-7.29-6.57l-8.81-5.76l-5.76,2.07l-10.34,37.69l1.26,36c0,0,6.41,6.07,8.65,6.48c2.23,0.41,4.12-3.82,5.74-5.79
	c1.62-1.98,8.08-4.67,8.08-4.67l0.36-3.02l-5.17-5.37l9.6-8.52c0,0,4.23,7.38,10.52,12.86s18.17,15.2,20.24,16.91
	c2.07,1.71,10.7,9.98,12.5,10.16c1.8,0.18,3.96-1.44,4.14-1.98c0.18-0.54,0.18-0.54,0.18-0.54l8.18,4.5l8.54,6.3
	c0,0-1.8,3.51-0.99,5.85s1.53,4.32,3.24,5.58c1.71,1.26,7.11,4.59,9.26,4.41C511.28,292.89,517.85,286.23,517.85,286.23z"/>
<path class="st1" d="M545.28,295.01c-1.05-0.01-1.64-1.24-1.01-2.08c2.6-3.5,7.58-9.64,10.42-9.6c3.97,0.05,1.91,10.46,1.91,10.46
	s-1.31,3.79-5.96,2.2C548.48,295.24,546.65,295.02,545.28,295.01z"/>
<path class="st2" d="M555.85,294.58c0,0,3.52-9.18-0.36-11.23c-3.88-2.05-11.22,9.58-11.22,9.58"/>
<path class="st3" d="M521.69,296.43c0,0-5.3-5.08-20.68-1.62c-15.39,3.46-19.65,13.48-20.71,15.95c-1.06,2.47,0.45,17.7,0.45,17.7
	l38.68,2.25L521.69,296.43z"/>
<path class="st3" d="M554.86,318.83c0,0,3.19-3.24,4.01-8.4c0.48-3.04,1.71-21.05-17.42-23.31c-15.14-1.79-22.3,8.45-24.24,17.08
	c-1.29,5.73,0.67,10.83,0.69,10.88c0.16,0.33,20.77,10.42,24.83,11.19C546.79,327.03,554.86,318.83,554.86,318.83z"/>
<path class="st4" d="M555.93,297.13c0,0-1.75,4.44-8.98,4.1c-7.24-0.34-10.31-1.72-16.13,1.36c-9.1,4.81-12.24,0.34-12.24,0.34
	s3.23-13.76,17.61-15.01c8.71-0.76,13.82,2.83,15.05,3.74C554.55,294.11,555.93,297.13,555.93,297.13z"/>
<path class="st5" d="M545.81,313.16l-1.69-2.33c-0.34-0.5,0.02-1.18,0.63-1.17l2.38,0.02c0.66,0.01,0.99,0.8,0.53,1.27
	L545.81,313.16z"/>
<path class="st6" d="M529.61,306.82c0,0,6.05-0.57,8.76,2.09"/>
<path class="st6" d="M532.95,310.87c0,0,3.28-0.83,5.88,0.76"/>
<path class="st6" d="M561.54,307.33c0,0-5.82-0.56-9.55,2.03"/>
<path class="st6" d="M557.35,310.83c0,0-2.82-0.45-5.48,0.85"/>
<path class="st6" d="M540.04,291.27c0,0,2.35,1.96,2.63,5.1"/>
<path class="st6" d="M543.94,291.03c0,0,2.01,2.31,1.78,5.46"/>
<path class="st6" d="M548.14,291.16c0,0,1.67,2.57,1,5.65"/>
<path class="st1" d="M526.25,297.89c-0.93,0.49-2.03-0.3-1.88-1.35c0.62-4.31,2.07-12.09,4.59-13.41c3.52-1.85,6.66,8.28,6.66,8.28
	s0.65,3.96-4.19,4.78C529.18,296.57,527.46,297.25,526.25,297.89z"/>
<path class="st6" d="M535.34,292.48c0,0-1.27-9.75-5.67-9.71c-4.39,0.04-5.31,13.77-5.31,13.77"/>
<path class="st6" d="M530.14,287.43c0,0-1.78,2.32-2.01,5.97"/>
<ellipse transform="matrix(0.9988 -0.0495 0.0495 0.9988 -14.9472 27.378)" class="st6" cx="545.72" cy="315.71" rx="2.19" ry="2.3"/>
<path class="st6" d="M539.66,303.62c0,0,1.67-2.18,3.3-0.14"/>
<path class="st6" d="M548.45,303.31c0,0,1.66-2,3.22-0.13"/>
<circle class="st5" cx="541.38" cy="307.1" r="1.19"/>
<circle class="st5" cx="549.86" cy="306.75" r="1.19"/>
<g>
	<line class="st6" x1="433.49" y1="370.7" x2="465.07" y2="533.44"/>
	<line class="st6" x1="380.58" y1="405.69" x2="517.98" y2="498.44"/>
	<line class="st6" x1="367.91" y1="467.86" x2="530.65" y2="436.28"/>
	<line class="st6" x1="381.66" y1="500.01" x2="516.9" y2="404.12"/>
	<line class="st6" x1="402.9" y1="520.77" x2="495.66" y2="383.37"/>
	<line class="st6" x1="426.25" y1="531.69" x2="472.31" y2="372.44"/>
	<line class="st6" x1="491.11" y1="523.63" x2="407.45" y2="380.51"/>
	<line class="st6" x1="530.53" y1="468.47" x2="368.03" y2="435.66"/>
</g>
<g>
	<polyline class="st3" points="441.46,397.4 450.73,381.29 459.09,397.33 461.31,411.35 453.95,417.09 441.46,397.4 	"/>
	<g>
		<path class="st7" d="M483.55,368.84c0,0-3.18,0.24-6.06,0.51c-2.88,0.28-5.97,6.77-11.31,16.13c-5.33,9.36-9.4,10.25-9.4,10.25
			s2.34,8.55,0.16,15.8c-1.46,4.84-4.45,7.76-4.45,7.76s2.57,4.61,5.83,7.09c2.87,2.19,5.21,4.07,5.21,4.07s9.56-8.45,15.22-27.74
			C485.42,379.96,483.55,368.84,483.55,368.84z"/>
		<path class="st7" d="M484.92,367.14c-0.83-0.03-1.53,0.7-1.64,1.69c-0.52,4.7-2.32,18.21-6.88,31.79
			c-5.65,16.83-13.66,31.65-13.66,31.65l4.09,2.52c0,0,5.5-7.59,13.46-31.3c7.9-23.53,7.81-36.24,7.81-36.24L484.92,367.14z"/>
		<path class="st6" d="M461.35,393.55c0,0,0.31,4.23,4.06,9.39"/>
		<path class="st6" d="M464.75,388.66c0,0,0.31,4.23,4.06,9.39"/>
		<path class="st6" d="M468.19,382.99c0,0,0.31,4.23,4.06,9.39"/>
	</g>
	<path class="st1" d="M377.16,254.44c0,0,36.45,44.3,38.97,49.18c2.52,4.87,40.78,68.51,40.78,68.51s-2.06,2.85-7.31,13.72
		c-5.64,11.67-13.92,17.67-13.92,17.67l-44.59-69.04c0,0-48.85-39.94-59.38-61.36C319.06,247.43,377.16,254.44,377.16,254.44z"/>
</g>
<line class="st8" x1="463.11" y1="335.27" x2="333.41" y2="416.2"/>
<circle class="st8" cx="449.67" cy="451.18" r="83.23"/>
<path class="st9" d="M543.81,457.82c0,0,4.32-59.97-47.39-87.67c-71.08-38.07-118.03,21.07-118.03,21.07"/>
<circle class="st8" cx="449.67" cy="451.18" r="5.68"/>
<circle class="st8" cx="212.74" cy="354.16" r="83.23"/>
<path class="st9" d="M305.39,358.71c0,0,2.98-58.27-45.9-85.58c-67.63-37.8-117.85,19.84-117.85,19.84"/>
<line class="st8" x1="471.53" y1="272.87" x2="449.67" y2="445.5"/>
<path class="st8" d="M467.07,305.53c0,0-27.97,29.28-60.01,45.2c-39.2,19.47-82.42,9.5-82.42,9.5"/>
<polyline class="st8" points="321.15,408.74 325.61,290.15 215.14,347.59 "/>
<line class="st8" x1="325.45" y1="289.68" x2="273.46" y2="259"/>
<circle class="st8" cx="318.82" cy="426" r="17.03"/>
<path class="st1" d="M500.31,291.64c0,0-2.49,1.22-4.38,1.66c-1.89,0.44-3.25,2.9-2.11,5.03c1.14,2.13,4.2,1.94,7.3,1.06
	c1.92-0.54,5.69-2.95,5.69-2.95l-3.46-2.68L500.31,291.64z"/>
<g id="XMLID_151_">
	<g>
		<path d="M462.51,170.83c0.49,2.37,1.3,4.33,1.3,4.33s-0.86,4.58-6.02,4.62c-2.97,0.02-5.21-1.1-5.21-1.1s3.1-4.33,4.16-7.12
			c1.07-2.79,1.96-5.63,1.96-5.63S462.03,168.46,462.51,170.83z"/>
		<path d="M385.47,159.6c-0.12-0.07,1.39,0.07,2.61-0.18c0.96-0.2,1.69-0.82,1.57-0.83c-2.9-0.29-4.47-0.36-8.02-1.27
			c-7.55-1.93-6.27-10.73-6.27-10.73s2.37,1.61,4.56,1.2c2.27-0.44,3.31-1.75,3.41-1.89c-0.28,0.1-4.46,1.57-8.34-1.31
			c-7.75-5.76-3.97-17.86-3.97-17.86s5.91,6.49,13.01,3.19s17.36-10.45,33.27-3.84c8.28,3.44,9.95,2.51,19.28,1.54
			c9.33-0.97,14.68,5.46,14.68,5.46s5.35-0.48,10.6,6.94c5.25,7.42,3.63,11.31,3.63,11.31s-39.93,1.73-46.97,4.43
			c-2.16,0.83-1.67,5.26-0.33,7.73c1.57,2.89,4.81,4.74,4.81,4.74s-1.74,6.11-2.97,6.57c-4.07,1.53-10.5-3.53-16.76-11.02
			c-2.65-3.17-5.9-2.69-9.46-1.89C389.34,162.9,386.3,160.08,385.47,159.6z"/>
	</g>
	<g>
	</g>
</g>
<path class="st6" d="M434.85,184.74c0,0,13.17,12.19,19.71,27.17c6.54,14.98,13.08,23.09,15.2,25.17s7.73,5.84,13.61,10.08
	c5.6,4.03,7.17,5.61,7.17,5.61s0.54,2.78,0.22,4.28"/>
<path class="st6" d="M475.59,268.04c0,0-29.38-23.04-34.81-29.02c-5.43-5.98-7.44-9.43-7.44-9.43"/>
<path class="st6" d="M437.87,224.85c0,0-8.88,8.17-11.23,10.06s-2.93,2.65-2.93,2.65"/>
<path class="st3" d="M517.5,276.38c0,0,3.38,3.93,2.09,8.84c-1.32,5.03-5.04,9.54-9.28,11.02c-3.59,1.25-6.76-0.98-8.01-2.08
	c-0.9-0.8-2.55-2.69-2.23-4.14c0.17-0.79,0.8-1.18,0.8-1.18s0.37-1.92,1.22-2.74c0.85-0.82,1.54-0.56,1.54-0.56s0.26-1.74,1.2-2.39
	s3.44-0.61,4.06,0.18c0.62,0.79,1.58,2.18,2.91,2.66c1.39,0.5,2.42,0.46,2.42,0.46"/>
<path class="st6" d="M509.99,291.21c0,0-2.7-0.74-4.31-2.47c-1.61-1.73-2.05-3.19-2.05-3.19"/>
<path class="st6" d="M505.93,292.97c0,0-1.71-0.67-3-1.81s-2.07-2.32-2.07-2.32"/>
<path class="st6" d="M497.23,279.86c0,0-1.17,1.85-0.32,4.63c0.85,2.78,3.12,4.74,3.12,4.74"/>
<path class="st1" d="M512.09,279.19c0,0-1.63-3.84-2.11-4.82c-0.48-0.98-1.42-1.44-1.42-1.44s-2.01,4.35-8.67,6.18
	s-18.17-0.4-29.82-3.73c-11.65-3.33-20.63-5.52-20.63-5.52s-5.68,10.49-10.28,13.4c-4.61,2.91-6.03,3.06-7.81,0.99
	c-1.78-2.07,1.12-7.35,4.36-10.74s-0.88-17.35-0.88-17.35s-0.33-5.93,5.06-7.79s14.05-3.25,16.39-0.5c2.35,2.75,2.08,5.34,1.43,8.14
	c-0.64,2.8-1.55,6.6-1.55,6.6s26.67,8.73,35.29,7.53s11.18-4.45,15.55-6.47c4.37-2.02,11.1,0.63,11.58,5.97
	c0.48,5.34-0.69,10.51-0.69,10.51s-1.22,0.55-2.96,0.2S512.09,279.19,512.09,279.19z"/>
<path class="st3" d="M511.71,279.01c0,0-1.49,3.43-3.27,3.55c-2.83,0.19-3.61-0.15-4-1.03c-0.39-0.87,0.29-3.98,0.53-4.88
	c0.24-0.91,1.75-4.66,3.44-4.53C511.2,272.32,511.71,279.01,511.71,279.01z"/>
<path class="st6" d="M444.96,256.33c0,0,1.02-2.9-1.66-4.31"/>
<path class="st6" d="M502.74,265.5l-15.44-10.86c0,0-3.67,1.85-5.73,4.73c-1.45,2.02-2.64,5.35-2.64,5.35l8.25,4.87"/>
<path class="st6" d="M481.1,266.15c0,0,0.24,1.31-1.98,2.15"/>
<g>
	<polyline class="st3" points="393.2,441.93 405.28,431.75 410.71,444.05 411.17,458.23 403.15,463.01 393.2,441.93 	"/>
	<g>
		<path class="st7" d="M442.18,424.86c0,0-3.13-0.74-5.98-1.35c-2.85-0.61-7.19,4.74-14.29,12.18c-7.1,7.44-11.22,7.06-11.22,7.06
			s0.49,8.98-3.12,15.34c-2.41,4.24-5.92,6.15-5.92,6.15s1.53,5.24,4.17,8.63c2.33,2.99,4.2,5.53,4.2,5.53s11.01-5.27,20.49-22.22
			C441.69,436.2,442.18,424.86,442.18,424.86z"/>
		<path class="st7" d="M443.86,423.64c-0.79-0.28-1.63,0.21-1.94,1.14c-1.48,4.39-6.02,16.92-13.25,28.68
			c-8.96,14.57-19.79,26.48-19.79,26.48l3.44,3.69c0,0,6.89-5.68,19.52-26.21c12.53-20.37,15.07-32.71,15.07-32.71L443.86,423.64z"
			/>
		<path class="st6" d="M415.57,442.04c0,0-0.57,4.19,1.99,10.32"/>
		<path class="st6" d="M419.88,438.33c0,0-0.57,4.19,1.99,10.32"/>
		<path class="st6" d="M424.38,433.89c0,0-0.57,4.19,1.99,10.32"/>
	</g>
	<path class="st1" d="M366.38,250.48c0,0,24.2,84.61,25.62,90.09s25.3,82.27,25.3,82.27s-2.58,2.13-9.92,11.06
		c-7.87,9.58-17.14,12.88-17.14,12.88l-28.85-80.38c0,0-38.45-54.33-43.64-78.46C307.5,240.32,366.38,250.48,366.38,250.48z"/>
</g>
<path class="st3" d="M406.06,249.92c0,0-2.53,2.49-2.96,4.43s-0.47,4.91-1.44,6.42c-0.96,1.51-2.77,3.45-2.78,4.11
	c-0.01,3.39-2.92,11.75-2.92,11.75s-15.96-2.64-26.44,6.84c-11.86,10.73-31.03-2.11-48.31-3.33c-20.62-1.46-20.25-22.07-20.25-22.07
	s15.03-6.97,20.57-12.86c10.07-10.71,19.15-24.79,24.69-31.95c5.54-7.16,16.77-21.02,28.52-30.55s24.93-10.89,30.9-10.27
	c5.97,0.62,12.85,2.15,12.85,2.15"/>
<path class="st6" d="M352.09,272.99c0,0-9.71-5.71-20.52-4.05c-10.81,1.66-12.28,2.28-16.69,0.61"/>
<path class="st6" d="M398.27,268.85c0,0,0.67-2.79-4.88-7.03s-11.02-5.33-11.02-5.33"/>
<path class="st6" d="M392.03,253.95c0,0-4.79-3.16-10.49-5.5c-5.7-2.34-7.04-2.01-7.4-3.23c-0.36-1.22,7.09-3.8,11.98-3.37
	c4.89,0.43,6.73,1.05,6.73,1.05"/>
<path class="st6" d="M398.7,183.42c0,0,4.39,6.77,7.06,16.37c2.66,9.6,7.74,23.37,8.1,23.83c0.36,0.46,1.99,3.94,3.98,7.39
	c2,3.45,10.35,10.44,10.81,11.9c0.46,1.46-0.22,3.1-0.22,3.1"/>
<path class="st3" d="M416.28,253.6l15.85,11.59c0,0-1.32,5.45,2.83,11.08c4.15,5.64,12.92,6.13,16.17,4.04
	c1.68-1.07,3.91-5.28,5.16-7.79c0.61-1.22,1.56-4.07,0.54-5.18c-1.69-1.85-12.86-7.32-12.86-7.32l0.99-3.69c0,0-2.2-1.3-3.92-1.19
	c-1.72,0.1-3.07,1.44-3.07,1.44l-11.57-12.28c0,0-3.59,0.67-6.34,2.68S416.28,253.6,416.28,253.6z"/>
<path class="st6" d="M456.13,271.94c0,0-5.17-1.03-9.44-4.11"/>
<path class="st6" d="M454.43,275.7c0,0-5.17-1.03-9.44-4.11"/>
<path class="st6" d="M452.17,279.15c0,0-5.17-1.03-9.44-4.11"/>
<line class="st8" x1="320.84" y1="407.66" x2="218.13" y2="349.71"/>
<line class="st8" x1="304.39" y1="435.95" x2="211.24" y2="360.39"/>
<g>
	<line class="st8" x1="324.2" y1="460.27" x2="318.93" y2="424.16"/>
	<line class="st10" x1="335.23" y1="460.52" x2="325.93" y2="461.27"/>
</g>
<g>
	<line class="st6" x1="196.45" y1="272.17" x2="228.03" y2="434.92"/>
	<line class="st6" x1="143.54" y1="307.17" x2="280.94" y2="399.92"/>
	<line class="st6" x1="130.87" y1="369.33" x2="293.61" y2="337.76"/>
	<line class="st6" x1="142.1" y1="397.71" x2="212.38" y2="353.46"/>
	<line class="st6" x1="165.86" y1="422.25" x2="258.62" y2="284.84"/>
	<line class="st6" x1="189.21" y1="433.17" x2="235.27" y2="273.92"/>
	<line class="st6" x1="254.07" y1="425.1" x2="170.41" y2="281.99"/>
	<line class="st6" x1="293.49" y1="369.95" x2="130.99" y2="337.14"/>
</g>
<circle class="st8" cx="212.74" cy="354.16" r="5.68"/>
<path class="st11" d="M202.17,237.4c-8.84-2.95-49.33,1.1-67.23,27.81"/>
<path class="st11" d="M551.88,489.46c0,0,9.27-22.42,6.36-41.98"/>
<path class="st11" d="M397.29,104.53c0.73-0.24-15.76-9.61-36.94-8.44"/>
<g>
	<path class="st12" d="M458.31,600.4c29.49,11.08,54.94-24.71,34.08-48.31c-0.39-0.44-3.84-5.62-4.17-6.1
		c-4.58-6.67-7.09-13.69-8.41-18.51c-0.33-1.21-2.09-1.09-2.26,0.16c-0.68,5.18-1.31,12.31-0.33,16.15
		c0.99,3.86,0.17,7.17-2.56,6.04c-2.73-1.13-14.29-4.97-15.57-21.42c-0.53-6.87-8.22-17.17-13.51-23.5
		c-1.06-1.26-3.08-0.16-2.59,1.42c1.66,5.36,3.55,12.53,3.35,16.83c-0.33,7.53,0.4,17.63-6.5,19.9s-6.76,10.21-10.72,10.5
		c-3.95,0.29-17.18-11.55-17.95-22.1c-0.77-10.54-0.98-25.54-8.9-37.33c-3.73-5.55-7.4-11.68-10.25-16.63
		c-0.94-1.63-3.42-0.79-3.19,1.08c0.58,4.8,0.49,9.74-1.88,11.36c-5.05,3.46-12.91-13.54-10.06-23.02
		c1.64-5.47,0.67-14.44-0.44-21.07c-0.32-1.92-3.01-2.14-3.63-0.3c-1.99,5.94-5.94,13.81-13.61,18.9
		c-12.12,8.03-12.62,16.94-13.85,30.28c-1.24,13.34,0.99,24.3,0.99,24.3s-6.04-1.08-9.74-8.44c-2.33-4.63-4.03-13.56-4.97-19.56
		c-0.26-1.64-2.52-1.87-3.11-0.32c-1.54,4.04-3.61,9.81-5.41,15.89c-2.93,9.88,1.8,18.32,6.73,25.46
		c4.94,7.15,20.79,17.03,36.02,19.89c15.22,2.87,29.62,14.86,40.04,22.25C420.8,584.79,440.2,593.59,458.31,600.4z"/>
	<path class="st0" d="M406.08,565.82c0,0-10.4-26.16-9.09-33.11c1.31-6.95,0.19-27.23-1.31-30.8c-1.5-3.57-3.19-8.08-3.19-8.08
		s1.5,10.71-3.94,22.16c-5.45,11.46-5.45,15.78-5.45,15.78s-2.82-3.76-3.76-10.89s-3.94-15.4-3.94-15.4s-3.19,15.96-5.26,21.98
		c-2.07,6.01,0.19,13.71,0.19,13.71s-3.71-1.98-5.45-6.01c-0.61-1.42-1.31-5.82-1.31-5.82s-2.25,8.83,2.07,14.09
		c4.32,5.26,13.15,7.7,20.85,10.33C394.18,556.38,406.08,565.82,406.08,565.82z"/>
	<path class="st0" d="M456.56,593.34c-2.59-1.09-6.84-3.02-9.1-6.83c-2.27-3.82-2.27-12.52-2.27-12.52s3.1,2.86,3.58,5.13
		c0.48,2.27,3.22,4.89,3.22,4.89s0.83-4.41-0.48-8.59s2.15-11.09,2.15-11.09s-0.6,6.56,0.95,9.42c1.55,2.86,5.61,5.84,6.32,9.78
		c0.72,3.94,4.82,12.03,4.82,12.03S460.88,595.16,456.56,593.34z"/>
</g>
<g>
	<path class="st12" d="M263.39,471.94c7.46-7.65,3.13-21.75-2.96-30.09c-6.09-8.33-20.4-20-24.04-25c-2.91-4-4.89-9.24-6.06-13.02
		c-0.34-1.12-1.96-0.98-2.11,0.18c-0.65,5-1.24,12.53,0.16,17.33c2.24,7.69,1.19,9.57,1.19,9.57s-1.73,2.75-3.81-2.93
		c-0.95-2.58-2.13-3.96-3.24-4.67c-1.24-0.8-2.89,0.28-2.7,1.74c0.21,1.57,0.06,4.01-1.38,7.52c-2.88,7.05-3.65,14.2-3.65,14.2
		l-3.07-7.02c-0.37-0.84-1.53-0.91-1.99-0.11c-1.7,2.99-4.51,9.28-2.83,15.9c3.22,12.7,13.28,17.6,27.51,20.79
		C241.78,477.97,256.09,479.42,263.39,471.94z"/>
	<path class="st0" d="M249.92,474.36c-2.63,0.21-8.02-1.78-8.19-6.64c-0.22-6.2,4.32-15.89,3.79-21.35
		c-1-10.33-5.56-18.74-5.56-18.74s7.05,6.88,9.06,14.18c1.55,5.65,3.61,10.59,3.61,10.59s5.06-11.16,4.57-8.91
		c-0.24,1.12-1.12,4.41,1.61,9.87c2.86,5.72,2.81,10.84-0.08,15.89C257.38,471.61,253.5,474.08,249.92,474.36z"/>
</g>
<g>
	<polygon class="st7" points="478.6,306.82 557.49,323.54 533.22,362.6 471.33,348.76 	"/>
	<line class="st6" x1="552.12" y1="331.48" x2="477.41" y2="315.75"/>
	<line class="st6" x1="547.33" y1="339.29" x2="475.82" y2="324.31"/>
	<line class="st6" x1="542.51" y1="347.2" x2="474.26" y2="332.56"/>
	<line class="st6" x1="537.72" y1="355.13" x2="472.74" y2="340.72"/>
	<line class="st6" x1="504.09" y1="312.61" x2="492.37" y2="353.32"/>
	<line class="st6" x1="530.1" y1="317.66" x2="513.99" y2="358.03"/>
</g>
<g>
	<g id="XMLID_150_">
		<g>
			<path class="st0" d="M526.16,320.13c-0.58,2.74,0.62,4.52,2.88,4.28c0.8-0.09,1.46-0.51,1.97-1.02l0.06,0.06
				c0,0-0.5,1.95,1.61,2.77c2.11,0.81,3.61-1.24,3.61-1.24l0.13-0.03c0.19,0.77,0.9,1.57,2.04,1.38c1.44-0.24,3.31-1.88,3.84-4.18
				c0.53-2.31,0-5.76-5.77-6.82C530.77,314.27,526.74,317.39,526.16,320.13z"/>
		</g>
		<g>
			<path class="st6" d="M532.4,321.24c0,0-0.46,1.22-1.39,2.15c-0.51,0.51-1.17,0.93-1.97,1.02c-2.26,0.24-3.46-1.54-2.88-4.28
				c0.58-2.74,4.61-5.86,10.37-4.8c5.77,1.06,6.3,4.51,5.77,6.82c-0.53,2.3-2.4,3.94-3.84,4.18c-1.14,0.19-1.85-0.61-2.04-1.38
				c-0.05-0.2-0.06-0.41-0.03-0.59c0.14-0.87,0.72-2.07,0.72-2.07"/>
			<path class="st6" d="M531.07,323.45c0,0-0.5,1.95,1.61,2.77c2.11,0.81,3.61-1.24,3.61-1.24"/>
		</g>
	</g>
</g>
<g>
	<g id="XMLID_149_">
		<g>
			<path class="st0" d="M545.9,323.94c-0.58,2.74,0.62,4.52,2.88,4.28c0.8-0.09,1.46-0.51,1.97-1.02l0.06,0.06
				c0,0-0.5,1.95,1.61,2.77c2.11,0.81,3.61-1.24,3.61-1.24l0.13-0.03c0.19,0.77,0.9,1.57,2.04,1.38c1.44-0.24,3.31-1.88,3.84-4.18
				c0.53-2.31,0-5.76-5.77-6.82C550.51,318.08,546.48,321.2,545.9,323.94z"/>
		</g>
		<g>
			<path class="st6" d="M552.14,325.05c0,0-0.46,1.22-1.39,2.15c-0.51,0.51-1.17,0.93-1.97,1.02c-2.26,0.24-3.46-1.54-2.88-4.28
				c0.58-2.74,4.61-5.86,10.37-4.8c5.77,1.06,6.3,4.51,5.77,6.82c-0.53,2.3-2.4,3.94-3.84,4.18c-1.14,0.19-1.85-0.61-2.04-1.38
				c-0.05-0.2-0.06-0.41-0.03-0.59c0.14-0.87,0.72-2.07,0.72-2.07"/>
			<path class="st6" d="M550.81,327.26c0,0-0.5,1.95,1.61,2.77c2.11,0.81,3.61-1.24,3.61-1.24"/>
		</g>
	</g>
</g>
<path class="st13" d="M462.27,176.48c0,0,3.16-9.84-7.54-11.94c-11.58-2.27-18.43-0.04-30.07-3.95
	c-7.68-2.58-13.45-5.21-20.43-12.44s-17.99-19.62-28.2-24.31c-4.57-2.1-8.16-2.79-8.16-2.79l9.11-15.48c0,0,14.14,3.44,25.38,14.19
	c9.86,9.43,15.02,18.03,22.01,22.93c6.99,4.91,19.49,5.5,28.99,5.38c10.87-0.13,15.37,5.82,15.37,5.82s-2.53,6.72-2.91,10.77
	C465.04,173.16,462.27,176.48,462.27,176.48z"/>
<path class="st14" d="M458.85,166.47c0,0-5.64,16.55-14.04,18.23c-9.07,1.81-16.86-7.86-16.86-7.86"/>
<path class="st14" d="M435.3,183.21l-0.32,0.56c-1.47,2.6-5.8,3.96-10.8,0.78c-6-3.83-5.34-7.36-5.34-7.36l4.36-8.72
	c0,0-3.63-2.2-4.9-4.76c-1.26-2.56-1.02-6.03-1.02-6.03"/>
<path class="st6" d="M416.28,253.6c0,0-1.89,4.48-3.52,3.57c-1.63-0.91-6.18-6.54-9.81-11.44c-2.23-3.01-14.05-17.5-17.8-25.07
	c-4.04-8.16-6.55-13.16-6.55-13.16"/>
<ellipse transform="matrix(0.2585 -0.966 0.966 0.2585 164.0434 563.279)" class="st6" cx="448.94" cy="174.78" rx="2.55" ry="2"/>
<path class="st6" d="M453.39,164.4c0,0,0.35,2.32,0.6,3.39c0.17,0.7-0.58,0.97-1.96,0.88"/>
</svg>
