<?xml version="1.0" encoding="utf-8"?>
<!-- Generator: Adobe Illustrator 23.0.2, SVG Export Plug-In . SVG Version: 6.00 Build 0)  -->
<svg version="1.1" xmlns="http://www.w3.org/2000/svg" xmlns:xlink="http://www.w3.org/1999/xlink" x="0px" y="0px"
	 viewBox="0 0 709.97 653.29" style="enable-background:new 0 0 709.97 653.29;" xml:space="preserve">
<style type="text/css">
	.st0{fill:#FFFFFF;}
	.st1{fill:#45D62F;stroke:#000000;stroke-width:2;stroke-linecap:round;stroke-linejoin:round;}
	.st2{fill:#FFFFFF;stroke:#212121;stroke-width:2;stroke-linecap:round;stroke-linejoin:round;stroke-miterlimit:10;}
	.st3{fill:none;stroke:#212121;stroke-width:2;stroke-linecap:round;stroke-linejoin:round;stroke-miterlimit:10;}
	.st4{fill:#FFEC00;stroke:#000000;stroke-width:2;stroke-linecap:round;stroke-linejoin:round;}
	.st5{fill:#808080;stroke:#212121;stroke-width:2;stroke-miterlimit:10;}
	.st6{fill:#E72A8B;}
	.st7{fill:none;stroke:#000000;stroke-width:2;stroke-linecap:round;stroke-linejoin:round;stroke-miterlimit:10;}
	.st8{fill:#45D62F;}
	.st9{fill:#212121;}
</style>
<g id="Layer_1">
	<path class="st0" d="M181.77,405.46c-0.23,0-7.38-2.66-10.73-2.43c-3.35,0.23-6.7,0.08-6.7,0.08s-7.84-6.16-11.94-9.89
		c-4.11-3.73-33.4-35.68-36.9-37.36c-3.5-1.67-15.29-9.97-15.29-9.97s2.74,4.49,2.59,4.26c-0.15-0.23-7.15-0.76-10.96,1.75
		s-7.38,7.68-7.38,7.68l8.75,4.41c0,0-5.33,6.01-7.23,10.5c-1.9,4.49-5.71,21.38-5.71,21.38s26.63-5.71,38.04-3.5
		s25.49,7.91,27.01,9.21c1.52,1.29,1.14,1.75,1.07,2.74c-0.08,0.99,1.45,6.01,3.04,8.45c1.6,2.43,2.28,4.03,4.56,4.95
		c2.28,0.91,5.02,1.98,5.02,1.98s2.66,3.04,5.93,3.88c3.27,0.84,3.73,1.07,6.09,0.91c2.36-0.15,8.75-1.07,8.75-1.07
		s5.48,6.62,8.06,6.09c2.59-0.53,4.64-4.79,3.04-9.74C189.3,414.82,181.77,405.46,181.77,405.46z"/>
	<path class="st1" d="M519.37,401.63c-0.04-0.79-62.93-8.11-62.93-8.11L418,406.34l60.94,11.37L519.37,401.63z"/>
	<polygon class="st2" points="519.37,401.63 519.37,418.13 481.78,428.35 418,424.78 418,406.34 481.65,410.63 	"/>
	<line class="st3" x1="481.65" y1="410.63" x2="481.65" y2="427.99"/>
	<rect x="342.33" y="392.01" class="st4" width="86.4" height="21.6"/>
	<rect x="338.51" y="413.61" class="st1" width="86.4" height="19.2"/>
	<path class="st2" d="M456.6,216.3c0,0-16.53-2.78-24.54,0.33s-11.62,7.2-18.33,33.71c-6.71,26.51,37.31-8.18,38.29-11.94
		S456.6,216.3,456.6,216.3z"/>
	<path class="st2" d="M610.55,246.07c0.21-0.57,13.23-44.28,13.23-44.28s-21.42-15.34-32.13-15.34s-19.68,15.63-25.18,27.5
		c-5.5,11.87-5.21,22.58-5.21,22.58L610.55,246.07z"/>
	<polygon class="st2" points="623.78,201.79 649.92,220.53 646.83,231.78 615.86,230.24 	"/>
	<path class="st2" d="M569.65,231.02c0,0,16.5-39.65,14.18-41.68c-2.32-2.03-22.87-12.45-27.5-11.87
		c-4.63,0.58-88.57,1.74-92.62,5.21c-4.05,3.47-12.45,46.89-15.63,56.44c-3.18,9.55-20.55,74.38-19.1,79.01
		c1.45,4.63,66.57,14.76,74.96,6.95S569.65,231.02,569.65,231.02z"/>
	<path class="st2" d="M610.55,246.07c0,0-70.76-32.32-82.11-34.94c-11.36-2.62-27.52,3.93-34.51,21.4
		c-6.99,17.47-70.76,165.1-70.76,165.1l143.18,17.93L610.55,246.07z"/>
	<path class="st3" d="M470.85,402.89c0,0,6.01-17.54,14.24-41.66s32.36-113.26,36.9-118.36c4.54-5.11,19.59,3.69,28.95,7.1
		s52.51,22.42,52.51,22.42"/>
	<polygon class="st2" points="574.34,386.66 600.48,405.41 597.4,416.65 566.43,415.11 	"/>
	<path class="st2" d="M566.06,159.57c0,0-15.73,12.4-25.62,21.04c-9.89,8.64-20.67,19.36-23.25,19.59
		c-3.71,0.33-8.42-6.04-10.84-12.67c-2.43-6.63,1.41-7.17,1.41-7.17s23.94-16.92,30.84-22.48s9.56-10.45,9.56-10.45
		s5.44-1.9,6.99,0.81C556.71,150.95,566.06,159.57,566.06,159.57z"/>
	<g>
		<path class="st4" d="M602.32,141.29c0,0-1.14,6.69-2.09,9.23c-0.95,2.54-7.32,3.26-16.72,5.11c-9.4,1.85-11.16,5.27-11.16,5.27
			s-3.1,5.66-8.49,3.41c-5.63-2.35-2.3-8.5-5.12-8.65c-2.71-0.14-8.64-0.1-12.98-0.04c-2.71,0.03-4.82-2.33-4.47-5.02l1.48-11.51
			c0,0,10.92-1.54,28.97-0.48C593.02,139.86,602.32,141.29,602.32,141.29z"/>
		<path class="st4" d="M604.1,141c-0.18,0.76-0.98,1.17-1.87,0.95c-4.19-1.04-59.84-1.72-59.84-1.72l0.54-5.28l61.89,2.4L604.1,141z
			"/>
		<path class="st3" d="M575.35,157.43c0,0-3.58-1.65-7.11-6.73"/>
		<path class="st3" d="M580.42,155.91c0,0-3.58-1.65-7.11-6.73"/>
		<path class="st3" d="M586.16,154.6c0,0-3.58-1.65-7.11-6.73"/>
	</g>
	<g>
		<path class="st2" d="M596.46,345.67c0,0-13.24,3.11-25.93,6.47c-12.69,3.37-27.1,8.21-29.52,7.28c-3.47-1.35-4.88-9.14-4.11-16.16
			c0.76-7.02,4.44-5.81,4.44-5.81s28.96-4.58,37.6-6.51s13.2-5.14,13.2-5.14s5.71,0.7,5.91,3.82
			C598.24,332.74,596.46,345.67,596.46,345.67z"/>
		<path class="st4" d="M593.44,331.12c0.02,0.9-5.09,3.92-3.93,8.48c1.17,4.56,7.15,9.52,7.15,9.52s9.64-3.42,13.63-4.08
			c3.99-0.66,18.3-0.69,21.13-0.79c2.83-0.1,10.47-0.87,13.36-3.94c2-2.13,8.85-10.74-2.26-16.55c-10.93-5.72-16.57-5.09-23.24-6.49
			c-6.68-1.4-12.64-5.46-14.61-5.07s-14.34,11.42-14.97,13.91C589.07,328.6,593.44,331.12,593.44,331.12z"/>
		<path class="st3" d="M601.68,315.5c0,0,8.97,4.62,16.11,5.91s27.89,3.65,29.31,14.77"/>
		<path class="st3" d="M600.43,334.28c0,0-2.66,4.66,2.55,9.89"/>
		<path class="st3" d="M606.16,333.2c0,0-2.66,4.66,2.55,9.89"/>
		<path class="st3" d="M612.16,332.87c0,0-2.66,4.66,2.55,9.89"/>
	</g>
	<path class="st5" d="M438.34,295.94c0,0,31.8,16.52,42.16,23.01c10.37,6.49,21.57,15.01,21.57,15.01s41.27-1.92,52.19-5.13
		s17.48-3.26,17.48-3.26s4.75,7.78,8.56,15.57c3.81,7.79,4.81,15.28,4.81,15.28s-37.76,8.73-57.44,10.13
		c-19.68,1.4-27.5,1.46-36.58-0.35s-35.7-8.17-48.25-13.7c-12.55-5.53-34.56-22.56-34.56-22.56s-2.94-16.23,3.27-22.85
		C417.75,300.47,438.34,295.94,438.34,295.94z"/>
	<path class="st5" d="M370.73,273.31c0,0,19.94-15.29,37.91-24.6c13.32-6.91,44.89-21.74,50.8-26.46
		c5.91-4.73,15.12-8.98,16.3-10.63c1.18-1.65,31.66-35.91,41.58-44.18s14.65-10.63,14.65-10.63s8.7,2.32,14.3,6.93
		c5.6,4.62,6.1,11.7,6.1,11.7s-14.42,12.39-20.64,19.38c-4.36,4.91-11.83,16.38-11.83,16.38s-13.55,19.01-23.14,30.84
		c-9.59,11.83-42.35,43.92-62.7,59.27c-10.94,8.25-31.26,20.35-32.49,20.35S370.73,273.31,370.73,273.31z"/>
	<path class="st2" d="M311.15,372.86c0,0,32.6,22.01,41.36,25.88c8.76,3.87,17.52,7.13,29.14,1.43c11.61-5.71,28.27-4.56,37.7-2.85
		c8.37,1.52,15.6-4.24,22.21-16.3c3.19-5.82,5.77-20.35,3.53-26.26c-2.24-5.91-38.34-28.25-59.53-24.17
		C364.37,334.66,311.15,372.86,311.15,372.86z"/>
	<path class="st6" d="M414.73,335.38c0,0-14.09-5.54-25.9-1.57c-11.81,3.98-24.94,10.12-28.31,12.17c-3.37,2.05-5.78,6.63-8.55,9.76
		c-2.77,3.13-5.78,7.47-10.6,9.88c-4.82,2.41-27.83,10.36-34.09,10.72c-6.26,0.36-13.01,0.24-13.01,0.24s-4.58,21.92-5.3,27.46
		c-0.72,5.54-2.29,16.38-7.59,21.68c-5.3,5.3-9.15,5.06-13.73,3.61c-4.58-1.45-4.58-0.84-6.63-2.89s-6.63-7.47-6.63-7.47
		s-24.81,3.37-30.72,5.18c-5.9,1.81-25.18,3.98-28.43,4.82c-3.25,0.84-6.87,0.84-6.87,0.84s2.29-1.93,0.84-6.38
		c-1.45-4.46-9.03-18.91-9.03-18.91l35.17-1.69l22.77-9.76c0,0-5.06-11.2-6.63-13.85c-1.57-2.65-2.29-3.73-3.98-5.54
		c-1.69-1.81-3.37-5.18-3.49-6.87c-0.12-1.69-0.36-3.85-0.36-3.85l12.89-6.09l-0.88-8.14c0,0,6.51,1.63,8.27-1.5
		s2.25-15.28,3.01-18.79c0.75-3.51,18.54-17.91,28.94-20.29c10.4-2.38,16.41-0.13,32.82-5.51c16.41-5.39,15.41-6.01,22.55-10.52
		c7.14-4.51,39.83-27.43,39.83-27.43s29.69,33.95,32.19,36.95c2.51,3.01,7.14,7.89,8.52,11.9
		C413.19,317.53,414.73,335.38,414.73,335.38z"/>
	<g>
		<g>
			<path class="st0" d="M246.76,311.52c-0.09,0.3,0.79,6.06-1.32,9.13s-4.68,2.78-4.68,2.78l5.67,4.19c0,0,2.46,17.83-3.46,21.65
				c-1.99,1.29-4.37,1.82-6.89,1.87c-1.24,0.02,1.5,4.53-0.65,6.3c-3,2.47-9.14,7.75-17.54-4.24c-3.78-5.39-5.63-5.38-3.59-8.97
				c0.91-1.6,13.08-5.35,13.08-5.35s-4.77,2.02-8.21,1.78c-3.43-0.25-7.6-5.5-10.61-10.36c-3-4.86-8.88-26.09-8.88-26.09
				s11.24-2.74,17.3-3.41c6.07-0.67,13.71,3.74,18.39,2.5C240.06,302.05,246.76,311.52,246.76,311.52z"/>
			<g id="XMLID_148_">
				<g>
					<path d="M278.86,300.64c0.28,0.1,4.48,1.51,8.32-1.43c7.68-5.85,6.02-19.49,6.02-19.49s-8.1,8.15-15.24,4.96
						c-7.15-3.2-17.51-10.22-33.33-3.39c-8.22,3.54-9.92,2.63-19.26,1.8c-9.34-0.84-14.61,5.66-14.61,5.66s-5.69-2.44-11.68,4.39
						c-4.32,4.93-4.85,10.74-4.68,13.69c0.27,4.55,3.01,8.95,19.94,0.97c4.98-2.34,12.97,1.81,18.91,5.6
						c4.25,2.7,5.16-2.09,8.07-1.12c2.19,0.73,4.22,3.94,2.92,6.43c-1.53,2.91-4.74,4.8-4.74,4.8s1.81,6.09,3.05,6.53
						c4.1,1.48,10.45-3.67,16.61-11.24c2.61-3.21,5.87-2.77,9.44-2.02c4.47,0.95,7.47-1.92,8.3-2.4c0.12-0.07-1.39,0.09-2.6-0.15
						c-0.97-0.2-1.71-0.8-1.59-0.81c2.9-0.34,4.46-0.42,8-1.38c7.53-2.04,6.13-10.81,6.13-10.81s-2.34,1.64-4.54,1.25
						C280.02,302.08,278.96,300.78,278.86,300.64z"/>
				</g>
				<g>
				</g>
			</g>
			<path class="st7" d="M199.49,307.99c0,0,10,30.7,18.42,32.27c9.09,1.69,16.75-8.08,16.75-8.08"/>
			
				<ellipse transform="matrix(0.9624 -0.2715 0.2715 0.9624 -81.6689 70.4044)" class="st7" cx="213.65" cy="330.4" rx="2" ry="2.55"/>
			<path class="st7" d="M210.48,324.34c-1.37,0.12-2.13-0.14-1.97-0.85c0.24-1.08,0.38-5.12,0.38-5.12s-0.41-2.66-2.72-3.13
				c-2.87-0.58-3.47,0.48-3.47,0.48"/>
			<path class="st7" d="M214.81,316.21c0,0,1.8-2.75,6.48-0.85"/>
		</g>
		<path class="st3" d="M225.6,346.38c0,0,8.02-0.13,5.17-3.75c-2.85-3.62-14-2.27-16.33,1.74c-2.33,4.01-0.26,6.28,2.2,8.09
			c2.46,1.81,8.44,7.89,8.44,7.89"/>
		<path class="st3" d="M231.94,344.44c0,0,2.07-1.03,2.85,1.55c0.78,2.59,1.68,10.74,1.68,10.74"/>
		<path class="st7" d="M164.5,403.4c0,0,9.51-0.9,14.18,1.62"/>
		<path class="st7" d="M186.93,421.35c0,0-12.75,2.99-16.52,3.17c-3.77,0.18-5.19-5.14-7.17-8.37s-1.79-6.28-0.18-6.82
			s6.64,5.74,6.64,5.74"/>
		<path class="st7" d="M162.08,413.86c0,0-2.79-4.18-4.04-2.56c-1.26,1.62-0.36,5.56,1.44,8.43c1.79,2.87,6.82,4.67,8.61,4.49"/>
		<path class="st7" d="M156.78,414.35c0,0-5.92-9.69-8.43-10.41c-2.51-0.72-1.97,3.05-0.72,5.56c1.26,2.51,3.05,5.74,5.02,7.36
			c1.97,1.62,6.82,2.87,6.82,2.87"/>
		<path class="st7" d="M176.57,415.79c0,0-13.27-12.95-17.64-16.19c-4.37-3.24-36.12-37.26-43.71-43.38
			c-8.42-6.8-16.35-10.85-16.35-10.85s6.47,8.26,7.61,10.68c1.13,2.43,0.65,4.53,0.65,4.53s-3.72-2.43-10.68,1.94
			c-6.96,4.37-11.33,12.79-12.63,17.64c-1.29,4.86-3.72,16.03-3.72,16.03s22.01-6.15,39.82-3.72c17.81,2.43,28.44,11.46,28.44,11.46
			"/>
		<line class="st7" x1="107.12" y1="360.59" x2="163.07" y2="409.32"/>
		<path class="st7" d="M102.43,350.23c0,0-6.31-0.32-11.01,2.27c-4.69,2.59-7.28,7.45-7.28,7.45l9.39,4.53"/>
		<path class="st7" d="M300.32,354.33c-0.52,4.81-6.53,19.75-7.39,27.65c-0.86,7.9-4.64,22.19-5.36,29.95s-8.36,17.81-12.6,18.41
			s-11.22-1.63-13.69-3.63c-6.78-5.52-28.35-41.67-29.32-45.19c-0.97-3.51-2.42-6.66-4.85-8.48c-2.42-1.82-4.36-9.09-3.03-10.42
			c1.33-1.33,16.12-7.09,16.12-7.09c-0.53-0.7,0.97,1.72,5.67,7.56c2.68,3.32,4.47,7.21,6.01,10.65c1.55,3.43,8.59,12.54,8.59,12.54
			"/>
		<path class="st7" d="M247.42,331.31c-0.52,0-0.52,8.07,2.4,14.77s7.39,14.08,9.27,18.89s1.89,20.44,2.23,26.79
			s1.37,13.91,1.37,13.91"/>
		<path class="st7" d="M237.23,393.71c0,0-18.65,8.71-21.51,9.26c-2.86,0.54-33.62,0.82-34.57,0.95c-0.95,0.14-1.91,0.41,0.68,3.95
			c2.59,3.54,7.53,14.94,7.62,17.56c0.08,2.41,0.14,4.08-1.77,4.36s-8.17-6.39-8.17-6.39"/>
		<path class="st7" d="M187.69,429.78c0,0,25.72-2.31,33.62-4.9c7.89-2.59,23.14-3.81,26.13-4.76c2.99-0.95,5.58-1.36,5.58-1.36"/>
		<path class="st3" d="M283.3,308.13c0,0,28.35-4.27,38.39-10.04c10.04-5.77,49.12-33.6,49.12-33.6s24.19,26.97,31.38,35.76
			c7.19,8.79,9.59,10.12,10.39,17.58c0.8,7.46,3.2,18.12,3.2,18.12s-10.92-4.53-21.85-3.46s-29.57,10.66-35.7,15.45
			s-8.53,14.12-18.12,18.12c-9.59,4-27.22,9.76-33.96,10.04c-6.74,0.28-11.98,0.37-11.98,0.37"/>
	</g>
</g>
<g id="cup">
	<g>
		<g>
			
				<ellipse transform="matrix(0.2343 -0.9722 0.9722 0.2343 -108.2097 781.0898)" class="st3" cx="441.73" cy="459.24" rx="13.62" ry="4.01"/>
			<path class="st3" d="M438.54,472.47c0,0,6.41,2.39,12.19,2.15c5.78-0.24,8.2-1.46,8.2-1.46s4.21-3.89,5.47-9.14
				c1.45-6.03-0.93-9.71-0.93-9.71s-4.19-3.63-8.38-5.94c-4.18-2.32-10.17-2.37-10.17-2.37"/>
			<path class="st3" d="M450.8,446.52c0,0-2.25-2.18,0.18-6.17s9.15,2.04,10.46,5.46c1.3,3.42-0.38,5.63-0.38,5.63"/>
		</g>
		<path class="st8" d="M443.29,464.33c0,0-26.17-4.48-33.06-0.52s-1.55,9.81-9.47,11.02c-7.92,1.21-26.52-0.34-26.52,5.51
			s17.76,10.96,28.47,10.44c12.21-0.6,22.67-0.45,25.08-8.03c2.41-7.58,8-8.09,9.47-8.95C441.05,471.57,443.29,464.33,443.29,464.33
			z"/>
	</g>
</g>
<g id="plant">
	<g>
		<g>
			<g>
				<path class="st8" d="M310.78,475.19c-3.95-0.95-8.14-1.51-12.51-1.63c-23.76-0.63-43.38,12.3-43.82,28.87
					c-0.06,2.23,0.24,4.41,0.85,6.52c5.97-2.73,14.39-5.81,15.55-2.11c1.29,4.15-5.81,9.36-9.98,12
					c7.44,8.49,20.64,14.34,35.83,14.74c1,0.03,2,0.02,2.99,0c-3.08-4.44-8.59-13.01-6.32-14.5c2.36-1.56,12.21,8.56,16.69,13.39
					c5.43-1.08,10.41-2.9,14.71-5.3c-5.13-2.88-12.86-7.84-11.47-10.95c1.46-3.26,15.78-1.77,23.97-0.64c2-3.34,3.15-7,3.25-10.86
					c0.09-3.31-0.61-6.51-1.95-9.52c-6.83,2.27-22.03,7.06-23.42,5.27c-1.41-1.82,12.03-9.95,17.86-13.35
					c-2.89-2.98-6.51-5.6-10.68-7.72c-5.63,4.69-18.4,14.91-20.76,13.25C299.32,491.05,306.7,480.62,310.78,475.19z M289.43,485.67
					c-1.92,4.69-4.7,7.99-6.22,7.37c-1.52-0.62-1.19-4.92,0.73-9.62c1.92-4.69,4.7-7.99,6.22-7.37
					C291.68,476.67,291.35,480.97,289.43,485.67z"/>
			</g>
			<g>
				<g>
					<path class="st9" d="M255.54,496.84c-19.19-2.26-38.3-6.22-57.24-9.93c-31.71-6.21-63.35-13.19-94.38-22.27
						c-15.56-4.55-31.12-9.57-45.86-16.38c-1.45-0.67-2.72,1.48-1.26,2.16c27.8,12.84,58.15,20.43,87.84,27.49
						c28.82,6.85,57.9,12.68,87.09,17.69c7.91,1.36,15.84,2.8,23.81,3.74C257.13,499.53,257.12,497.03,255.54,496.84L255.54,496.84z
						"/>
				</g>
			</g>
			<g>
				<g>
					<path class="st0" d="M255.03,499.27c21.98,4.82,44.33,7.68,66.77,9.29c1.29,0.09,1.28-1.91,0-2
						c-22.26-1.6-44.43-4.43-66.24-9.21C254.3,497.06,253.76,498.99,255.03,499.27L255.03,499.27z"/>
				</g>
			</g>
			<g>
				<g>
					<path class="st0" d="M286.28,519.69c-0.62-7.47-4.26-13.96-10.29-18.41c-1.04-0.77-2.04,0.97-1.01,1.73
						c5.42,3.99,8.74,9.97,9.3,16.68C284.38,520.96,286.39,520.97,286.28,519.69L286.28,519.69z"/>
				</g>
			</g>
			<g>
				<g>
					<path class="st0" d="M293.84,505.56c6.66-1.47,12.65-4.38,17.97-8.64c1.01-0.81-0.42-2.22-1.42-1.42
						c-5.05,4.04-10.78,6.73-17.08,8.12C292.05,503.9,292.58,505.83,293.84,505.56L293.84,505.56z"/>
				</g>
			</g>
		</g>
		<g>
			<g>
				<g>
					<path class="st9" d="M129.56,482.66c2.99-9.29,5.97-18.59,8.95-27.88c0.29-0.91,5.24-12.39,0.36-10.57
						c-1.5,0.56-0.85,2.97,0.66,2.41c-2.33,0.86-3.07,6.38-3.72,8.4c-0.97,3.01-1.93,6.03-2.9,9.04
						c-1.92,5.98-3.84,11.96-5.76,17.94C126.65,483.53,129.07,484.19,129.56,482.66L129.56,482.66z"/>
				</g>
			</g>
			<g>
				<g>
					<path class="st9" d="M139.15,443.53c-4.34-0.02-8.23-1.12-10.76-4.91c-1.37-2.06-2.14-4.46-3.35-6.62
						c-2.66-4.75-6.89-8.06-11.57-10.7c-5.02-2.83-10.48-4.77-15.89-6.7c-6.03-2.15-12.09-4.75-18.26-6.41
						c-6.87-1.84-23.83-5.81-25.98,3.89c-2.58,11.66-6.1,23.14-9.42,34.61c-1.43,4.93-3.64,10.13-4.45,15.21
						c-0.72,4.51,3.56,9.33,7.24,11.55c5.29,3.18,11.81,4.5,17.68,6.09c6.8,1.84,13.57,3.88,20.43,5.51
						c6.16,1.46,13.59,3.14,19.95,1.94c3.26-0.61,4.94-2.33,7.72-3.94c4.93-2.85,10.25-1.73,15.16,0.53
						c1.45,0.67,2.72-1.49,1.26-2.16c-3.72-1.71-7.64-3.01-11.79-2.54c-2.14,0.24-4.05,0.94-5.9,2.01
						c-4.23,2.45-6.82,3.98-11.83,3.84c-12.43-0.36-24.78-4.98-36.68-8.23c-5.05-1.38-10.8-2.6-15.24-5.52
						c-2.14-1.41-5.8-5.18-5.75-7.94c0.07-3.74,2.51-8.54,3.55-12.1c3.44-11.8,7.14-23.61,9.94-35.58c0.24-1.04,0.28-2.29,0.62-3.28
						c1.2-3.52,5.42-3.45,8.68-3.41c4.68,0.05,9.6,0.72,14.13,1.93c6.7,1.78,13.33,4.62,19.86,6.98c6.17,2.22,12.47,4.58,17.81,8.49
						c3.14,2.3,5.48,5.06,7.22,8.52c1.15,2.29,2.06,4.76,3.71,6.75c2.96,3.57,7.42,4.66,11.88,4.68
						C140.76,446.03,140.76,443.53,139.15,443.53L139.15,443.53z"/>
				</g>
			</g>
		</g>
		<g>
			<g>
				<path class="st8" d="M223.25,541.26c0.26-0.07-1.89-3.25-4.32-8.74c-2.63-5.94-3.72-11.46,0.11-12.39
					c2.2-0.54,13.16,10.54,18.09,15.79c2.61-2.01,4.75-4.5,6.25-7.45c1.75-3.45,2.48-7.21,2.31-11.1
					c-7.74-2.9-21.05-8.41-20.78-11.97c0.26-3.4,9.42-4.08,15.3-4.17c-2.63-4.15-6.15-8.12-10.41-11.66
					c-6.24,2.11-19.72,6.32-21.05,3.82c-1.28-2.39,7.64-7.31,12.47-9.74c-0.86-0.49-1.73-0.97-2.63-1.42
					c-13.55-6.88-27.94-8.02-38.52-4.1c2.41,4.31,6.18,12.27,3.07,15.3c-2.78,2.71-8.72-4.02-12.67-9.26
					c-1.54,1.57-2.84,3.34-3.85,5.33c-5.65,11.13-0.62,25.35,11.15,36.49c1.93,1.83,2.11-11.93,10.44-7.24
					c7.8,4.39,3.04,16.93,3.19,17C200.42,540.12,214.27,543.68,223.25,541.26z"/>
			</g>
			<g>
				<g>
					<path class="st9" d="M165.64,490.94c-38.69-16.75-75.14-36.66-111.29-58.29c-1.38-0.83-2.64,1.33-1.26,2.16
						c36.15,21.63,72.59,41.54,111.29,58.29C165.84,493.73,167.11,491.58,165.64,490.94L165.64,490.94z"/>
				</g>
			</g>
			<g>
				<g>
					<path class="st0" d="M232.03,520.45c-20.29-13.47-44.67-17.61-65.84-29.11c-1.13-0.62-2.15,1.11-1.01,1.73
						c21.17,11.49,45.55,15.64,65.84,29.11C232.09,522.89,233.1,521.16,232.03,520.45L232.03,520.45z"/>
				</g>
			</g>
			<g>
				<g>
					<path class="st0" d="M196.68,505.6c8.32,0.05,16.01-2.46,23.73-5.32c1.2-0.44,0.68-2.38-0.53-1.93
						c-7.53,2.79-15.07,5.3-23.2,5.25C195.39,503.58,195.39,505.59,196.68,505.6L196.68,505.6z"/>
				</g>
			</g>
			<g>
				<g>
					<path class="st0" d="M180.09,513.91c2.74-6.92-0.3-15.91-7.05-19.2c-1.15-0.56-2.17,1.16-1.01,1.73
						c6.01,2.94,8.56,10.8,6.13,16.94C177.68,514.57,179.62,515.09,180.09,513.91L180.09,513.91z"/>
				</g>
			</g>
		</g>
	</g>
</g>
</svg>
