<?xml version="1.0" encoding="utf-8"?>
<!-- Generator: Adobe Illustrator 23.0.2, SVG Export Plug-In . SVG Version: 6.00 Build 0)  -->
<svg version="1.1" id="girl" xmlns="http://www.w3.org/2000/svg" xmlns:xlink="http://www.w3.org/1999/xlink" x="0px" y="0px"
	 viewBox="0 0 709.97 653.29" style="enable-background:new 0 0 709.97 653.29;" xml:space="preserve">
<style type="text/css">
	.st0{fill:#FFFFFF;stroke:#000000;stroke-width:2;stroke-linecap:round;stroke-linejoin:round;stroke-miterlimit:10;}
	.st1{fill:#FFEC00;stroke:#000000;stroke-width:2;stroke-linecap:round;stroke-linejoin:round;}
	.st2{fill:none;stroke:#000000;stroke-width:6;stroke-linecap:round;stroke-linejoin:round;stroke-miterlimit:10;}
	.st3{fill:none;stroke:#000000;stroke-width:2;stroke-linecap:round;stroke-linejoin:round;stroke-miterlimit:10;}
	.st4{fill:#E72A8B;}
	.st5{fill:#FFEC00;}
	.st6{fill:#45D62F;stroke:#000000;stroke-width:2;stroke-linecap:round;stroke-linejoin:round;}
</style>
<g>
	<path class="st0" d="M381.74,374.32l37.58,21.14c0,0-21.66,37.32-31.58,50.89c-9.92,13.57-48.04,64.79-51.52,70.38
		c-3.48,5.59-6.6,8.12-7.7,6.21c-1.1-1.91-3.85-11.8,2.11-21.06c5.96-9.26,31.62-55.44,31.62-55.44L381.74,374.32z"/>
	<path class="st0" d="M475.2,238.84c0,0-12.35,11.77-13.9,12.55c-1.54,0.77,0,3.09,5.02,14.48c5.02,11.39,9.07,21.04,11.19,22.58
		s5.6-0.58,9.07,0.58s5.79,5.98,5.79,7.72c0,1.74-16.41,19.11-18.72,20.46c-2.32,1.35-7.72,5.79-14.09,7.33
		c-6.37,1.54-16.41,1.16-16.41,1.16s9.88-12,13.16-15.09c3.28-3.09,5.75-12.51,4.6-13.86c-1.16-1.35-6.18-7.72-9.26-11
		c-3.09-3.28-22-36.09-25.28-48.64s28.18-35.71,28.18-35.71L475.2,238.84z"/>
	<path class="st1" d="M460.73,301.57c0,0-3.67,10.42-0.77,12.93s9.84,2.32,13.51,0.39c3.67-1.93,12.55-15.63,12.35-18.72
		c-0.19-3.09-3.09-7.53-3.09-7.53s1.74-0.39,5.4,1.93c3.67,2.32,5.02,5.98,4.44,7.53s-15.44,16.21-17.18,18.14
		c-1.74,1.93-3.28,7.91-11.39,9.07c-8.11,1.16-20.84,0.39-20.84,0.39s9.54-7.03,13.01-12.82
		C459.65,307.08,460.73,301.57,460.73,301.57z"/>
	<path class="st0" d="M425.79,289.99c0,0,8.88,18.72,8.88,22.58c0,3.86-7.33,12.35-10.04,13.12c-2.7,0.77-9.26,8.49-12.74,12.55
		c-3.47,4.05-5.02,6.95-3.86,8.3c1.16,1.35,16.6,2.12,22.2-1.54c5.6-3.67,9.46-11.19,13.12-14.09c3.67-2.9,14.86-9.26,17.18-12.93
		c2.32-3.67,0.77-9.07-2.32-12.16c-3.09-3.09-5.79-10.42-5.79-10.42L425.79,289.99z"/>
	<path class="st0" d="M457.64,253.7c0,0,0.96,18.72-0.77,30.3s-8.3,25.28-8.3,25.28l-52.5-37.44L457.64,253.7z"/>
	<line class="st2" x1="500.55" y1="253.47" x2="498.28" y2="289.08"/>
	<path class="st2" d="M467.88,281.83c0,0,73.96,20.64,82.12,26.09c8.17,5.44,4.54,29.95,4.54,29.95"/>
	<path class="st2" d="M518.93,290.9c0,0,1.36-18.83-1.59-19.06c-2.95-0.23-22.69,18.38-33.58,34.26s-12.37,25.01-13.38,32.9
		c-1.13,8.85-1.81,16.56-1.81,16.56"/>
	<path class="st2" d="M573.37,161.59c0,0,1.13,54.22-4.08,58.53c-5.22,4.31-21.1,4.31-21.1,4.31"/>
	<path class="st0" d="M530.5,210.36c0,0,12.22-1.15,18.15,8.62c3.32,5.47,2.04,18.83-0.23,23.82c-2.27,4.99-6.13,6.58-10.66,7.71
		c-4.54,1.13-53.77,8.85-61.48,7.71c-7.71-1.13-14.29-4.31-16.79-6.13c-2.5-1.81-0.45-14.29,4.54-19.51
		C469.02,227.38,530.5,210.36,530.5,210.36z"/>
	<path class="st3" d="M472.83,243.8c0,0,6.62,2.18,22.05,0.82c15.43-1.36,49.23-4.99,54.45-11.57"/>
	<path class="st0" d="M553.41,104.42c0,0-11.8,4.08-12.93,19.28c-1.13,15.2-0.23,22.91,7.26,27.45s21.33,12.93,24.27,16.79
		c2.95,3.86,8.39,5.44,9.53,3.63c1.13-1.81,9.53-35.39,5.44-48.1c-4.08-12.7-20.19-17.47-24.73-19.06
		C557.72,102.83,553.41,104.42,553.41,104.42z"/>
	<polygon class="st0" points="464.4,246.75 464.97,254.28 365.19,280.72 365.19,273.58 	"/>
	<polygon class="st0" points="365.19,273.58 301.31,209.5 301.31,215.87 365.19,280.72 	"/>
	<polygon class="st0" points="464.4,246.75 384.68,189.82 301.31,209.5 365.19,273.58 	"/>
	<path class="st1" d="M424.44,197.73l-13.12,14.86c0,0,33,11.97,43.81,18.53s10.81,10.81,16.02,12.55
		c5.21,1.74,16.02-0.77,16.02-0.77s31.17-14.39,38.21-20.65c12.6-11.21,14.42-14.85,16.21-27.6c1.48-10.52-2.12-27.41-9.07-33.39
		c-6.95-5.98-14.86-6.18-14.86-6.18L424.44,197.73z"/>
	<path class="st4" d="M388.11,491.04c0,0,4.44-28.66,11.1-35.24s10.88-1.74,12.12-7.86s0.83-18.15,5.25-22.4s13.18-17.3,13.18-17.3
		s-6.29,19.43-3.7,29.95c2.59,10.52,6.73,16.6,3.25,25.05c-3.47,8.45-7.87,12.29-5.33,17.43c2.55,5.14,2.34,14.23-3.05,20.48
		c-5.39,6.25-13.37,13.98-13.37,13.98L388.11,491.04z"/>
	<path class="st4" d="M435.81,533.41c1.45-0.96,23.13-9.64,26.03-29.88c2.89-20.24,5.3-27.95,11.09-34.7
		c5.78-6.75,8.68-18.31,8.68-26.99c0-8.68-5.3-36.63-5.3-36.63s-5.3,26.51-11.09,29.88c-5.78,3.37-19.76,13.01-21.21,20.24
		c-1.45,7.23,0,3.37-15.9,10.6c-15.9,7.23-21.21,28.44-21.21,28.44L435.81,533.41z"/>
	<path class="st4" d="M429.06,446.66c0,0,7.71-16.87,18.31-26.99c10.6-10.12,5.78-48.68,5.78-48.68s12.05,17.35,13.98,30.85
		s2.89,38.08-2.89,47.71c-5.78,9.64-15.9,17.83-23.62,27.95c-7.71,10.12-14.46-7.23-14.46-7.23L429.06,446.66z"/>
	<path class="st5" d="M424.91,503.86c0,0,3-29.58,11.15-36.45c8.15-6.86,24.87-22.72,24.87-22.72s-14.58,18.44-14.58,27.01
		c0,8.58-2.57,19.29-2.57,19.29s8.15-2.14,9.43-6c1.29-3.86,0,8.58-2.57,16.29s-17.58,17.58-17.58,17.58L424.91,503.86z"/>
	<path class="st0" d="M352.25,466.21l21.25,89.27c0,0,61.64-14.3,67.01-17.78c5.38-3.48-24.99-89.21-24.99-89.21L352.25,466.21z"/>
	<path class="st0" d="M347.24,271.26c0,0-6.76,12.35,4.83,21.62s39.57,23.35,42.85,29.92s3.86,23.74-1.93,46.13
		s-15.05,65.04-20.07,77.39s-19.11,38.79-26.25,45.55c-7.14,6.76-10.81,10.23-14.67,16.98c-3.86,6.76-3.47,14.09-3.47,14.09
		s-66.97-33.58-67.55-33.58c-0.58,0-0.97-9.07,3.86-14.48c4.83-5.4,19.88-11.97,27.79-22c7.91-10.04,17.18-18.14,18.53-24.51
		c1.35-6.37,15.63-41.3,19.49-55.39c3.86-14.09,14.48-45.93,11.39-51.92c-3.09-5.98-20.65-23.74-21.42-30.11
		C319.84,284.58,347.24,271.26,347.24,271.26z"/>
	<path class="st0" d="M228.24,360.55c0,0,26.89,45.55,37.96,58.52c11.07,12.97,114.83,98.38,127.17,108.19
		c12.34,9.81,24.36,17.4,24.36,17.4s-77.19,20.25-86.68,19.3s-62-41.13-73.08-53.46c-11.07-12.34-60.46-57.75-68.96-71.18
		c-6.01-9.49-6.33-24.36-3.45-37.23C189.32,385.21,228.24,360.55,228.24,360.55z"/>
	<path class="st0" d="M377.95,204.66c0,0-7.93,2.6-18.7,3.67s-24.16-1.49-26.1,0.82c-0.87,1.03-1.83,4.74-1.95,6.76
		s0.33,5.21,1.27,7.34c0.95,2.13,3.93,5.91,3.04,7.06c-0.89,1.15-2.47,1.57-4.19,0.55c-1.72-1.02-3.88-4.24-5.44-6.61
		c-1.13-1.72-2.23-3.19-3.38-4.21c-1.15-1.02-4.64-3.12-5.74-2.55c-1.53,0.79-1.59,4.34-1.4,5.55c0.19,1.21,0.57,4.36,0.57,4.36
		s-0.5,2.28-3.9,4.46c-3.4,2.19-7.63-0.26-7.63-0.26s-0.26-6.34-0.36-9.25c-0.11-3.49,0.59-4.62,1.19-6.07s3.52-3.91,6.01-6.11
		c2.69-2.38,7.76-7.32,11.77-10.22s8.11-5.21,15.19-6.4c7.08-1.19,23.58-7.28,23.58-7.28s11.69,1.05,15.69,6.39
		C381.47,197.98,377.95,204.66,377.95,204.66z"/>
	<path class="st6" d="M383.23,153.07c0,0,6.1,6.24,9.84,15.39s3.88,16.22,3.19,21.21c-0.69,4.99-1.94,9.01-6.38,10.67
		s-12.47,5.82-12.47,5.82s-2.08-8.87-7.48-13.31c-5.41-4.44-10.81-6.79-10.81-6.79s9-2.99,8.86-5.07s-0.96-2.41-1.38-4.22
		s-1.8-7.76-1.8-7.76L383.23,153.07z"/>
	<path class="st0" d="M386.51,154.35c0,0,9.56,0.5,13.74-0.8c0,0,8.14,3.48,3.7-16.15s-14.09-18.36-18.83-18.99
		c-4.75-0.63-11.71,11.71-10.29,17.41C376.26,141.52,386.51,154.35,386.51,154.35"/>
	<path class="st6" d="M384.06,149.88c0,0,3.76,10.4,4.34,14.02c0.52,3.23,0.21,13.09,0.21,13.09c2.36,1.9,13.08,5.97,16.74,6.65
		c9.26,1.74,9.9,3.52,18.63,8.37s-1.39-37.29-1.39-37.29l-12.61-6.24L384.06,149.88z"/>
	<path class="st6" d="M374.91,99.84c0,0,22.73-2.49,28.69-1.11c5.96,1.39,14.83,5.96,20.38,8.59s26.34,11.78,42,18.16
		c15.66,6.38,32.99,10.26,40.34,14.14c7.35,3.88,18.3,11.64,20.79,17.33c2.49,5.68-1.39,29.11-3.6,38.95
		c-2.22,9.84-5.68,27.72-5.82,30.49c-0.14,2.77-2.63,7.35-2.63,7.35s-10.81-6.1-21.21-6.79s-29.39-0.97-44.22-5.82
		c-14.83-4.85-20.79-12.61-28.55-22.32c-7.76-9.7-19.96-22.04-19.96-22.04s5.27-3.6,2.49-16.22s-11.94-32.89-17.21-40.23
		C381.12,112.97,374.91,99.84,374.91,99.84z"/>
	<path class="st3" d="M309.6,231.33c0,0-0.51-4.86-0.77-6.74"/>
	<path class="st6" d="M419.12,149.64c0.86-4.11,3.58-7.78,14.47-8.56c10.89-0.78,22.25,4.82,25.99,11.51
		c3.73,6.69,4.67,11.51,7,16.96c2.33,5.45,4.36,11.98,4.51,15.56s2.18,11.83,3.89,17.12s1.71,10.89,0.62,13.23
		c-1.09,2.33-17.74,9.49-23.96,10.89s-15.56,2.02-15.56,2.02s-0.78-11.98-2.49-15.25c-1.71-3.27-3.27-5.29-3.27-5.29l13.69-4.67
		c0,0-1.87-3.27-3.89-4.98c-2.02-1.71-5.45-3.73-8.87-9.03c-3.42-5.29-4.67-9.03-8.25-16.03
		C419.44,166.13,417.91,155.47,419.12,149.64z"/>
	<path class="st0" d="M344.41,159.94c0,0,5.05,4.39,7,7.32c1.95,2.93,2.28,5.21,3.91,5.7c1.63,0.49,5.21-3.74,5.21-3.74
		s3.58,2.93,4.23,2.93c0.65,0,3.42-1.46,3.42-1.46s3.91,1.3,6.84-0.16s9.11-8.14,10.74-14.49c0.88-3.44,0.98-4.88,0.98-4.88
		s-2.23-11.69-8.56-12.16C371.83,138.52,344.41,159.94,344.41,159.94z"/>
	<path class="st3" d="M355.48,163.2c0,0,3.09-0.49,3.74-3.74"/>
	<path d="M344.61,160.83c0,0-1.41,0.59-3.96,5.68c-2.54,5.09-4.5,5.29-4.5,5.29s1.11-9.47-7.83-14.49
		c-4.71-2.64,0.2-9.59-2.54-13.51s-9.98-8.61-8.81-13.12c1.17-4.5,3.13-7.63,3.13-7.63s-4.11-7.44,0.39-14.68
		c4.5-7.24,17.35-4.54,21.03-10.81c4.57-7.77,6.62-9.82,13.42-11.31c5.22-1.15,10.56-0.34,14.22,1.72c3.45,1.94,6.34,9.24,8.49,11.4
		c2.15,2.15,3.13-2.35,3.13-2.35s8.22,8.03,9,14.88c0.78,6.85-1.76,13.7-2.94,17.81c-1.17,4.11-0.39,15.27-1.76,17.42
		c-1.37,2.15-4.31,4.11-8.03,4.31s-7.63-2.74-10.96,0.39c-3.33,3.13-2.74,5.68-9.59,6.85C349.66,159.85,344.61,160.83,344.61,160.83
		z"/>
	<path class="st0" d="M452.95,238.6c0,0-75.66,18.66-91.72,27.98c-16.06,9.33-65.03,48.45-85.76,64.78
		c-20.73,16.32-70.99,55.45-78.25,61.67s-11.66,9.07-11.66,9.07l16.58-99.24c0,0,18.14-14.51,29.54-25.39
		c11.4-10.88,33.94-38.87,45.34-42.23c11.4-3.37,55.97-8.81,68.4-13.73s61.41-16.06,61.41-16.06L452.95,238.6z"/>
	<path class="st0" d="M430.33,207.84c0,0-10.85,5.85-21.43,5.94s-23.15-0.36-28.31,0.18c-5.15,0.54-11.94,1.99-15.55,3.26
		c-3.62,1.27-9.5,3.71-9.22,5.7c0.27,1.99,3.38,3.42,4.46,3.49c0.17,0.01-0.96,0.5-0.67,2.84c0.23,1.8,2.86,2.79,4.79,2.71
		c1.39-0.06,2.35-0.09,2.35-0.09s-0.28,2.38,1.81,3.35c3.07,1.42,4.85,0.84,4.85,0.84s1.12,2.23,8.17,1.96
		c7.05-0.27,15.1-0.99,19.9-3.35c4.79-2.35,10.13-3.07,18.63-4.7c8.5-1.63,17.82-2.8,17.82-2.8"/>
	<path class="st0" d="M360.28,226.41c0,0,2.48-1.34,7.26-2.72c4.45-1.28,7.99-2.04,7.99-2.04"/>
	<path class="st0" d="M366.13,231.89c0,0,1.71-1.01,6.23-2.01c4.52-0.99,5.45-1.18,5.45-1.18"/>
	<path class="st0" d="M373.38,235.97c0,0,1.71-1.01,6.23-2.01"/>
	<path class="st0" d="M374.38,214.29c0,0-9.49-0.94-10.64-0.68c-1.15,0.27-1.95,1.15-1.15,2.21c0.8,1.06,0.93,1.31,0.93,1.31"/>
	<path class="st1" d="M425.79,324.34c0,0-7.53,4.63-10.23,8.11s-10.81,12.16-10.81,13.7s1.74,2.12,8.3,1.74
		c6.56-0.39,14.44-1.61,17.18-2.9c6.87-3.22,13.27-12.06,15.2-14.57c1.93-2.51,13.17-9.37,15.1-12.45
		c1.93-3.09-0.97-10.43-1.94-12.36c-0.97-1.93,0.15,5.45-3.48,9.38c-1.82,1.98-7.32,5.3-11.95,10.7
		c-4.63,5.4-9.26,13.51-11.97,12.55c-2.7-0.97-8.88-4.44-9.07-7.33C421.93,328.01,425.79,324.34,425.79,324.34z"/>
	<path d="M379.79,213.98l18.81-10.52c0.66-0.37,1.49-0.16,1.89,0.48l0,0c0.45,0.7,0.2,1.64-0.54,2.03l-14.07,7.71"/>
	<path d="M359.56,228.86l-6.84,3.67c-0.66,0.37-3.83,0.66-3.83,0.66s1.73-2.78,2.47-3.16l7.14-4.21"/>
	<path class="st4" d="M281.06,529.69c-11.56-11.63-18.58-27.15-19.01-43.54c-0.15-5.69,0.46-11.65,2.56-17.23
		c8.08-21.51-8.93-27.83-9.69-34.99c-1.35-12.83-1.04-35.38-1.04-35.38s-9.14,17.41-10.05,34.89c-0.49,9.35,0.56,21.11,0.56,21.11
		s-7.18,10.11-15,3.78c-7.82-6.33-13.83-11.19-24.63-14.45s-19.1-19.43-22.31-29c-3.21-9.56-4.84-9.39-12.52-19.58
		c-7.68-10.19-19.11-40.33-18.93-38.7c0.17,1.63-1.88,23.85,4.08,38.62s4.96,31.38,4.36,41.34c-0.6,9.96,1.41,29,6.45,35.07
		c5.04,6.07,9.31,20.47,9.31,20.47s-12.86-1.94-18.93-17.8c-6.07-15.86-7.48-23.96-13.06-29.97c-5.58-6.01-16.01-10.96-16.01-10.96
		s13,18.98,14.52,28.17s-4.95,20.87,4.36,30.89c9.31,10.02,16.9,14.17,18.56,19.49c1.66,5.32,10.86,24.7,45.07,30.99
		s77.96-6.58,77.96-6.58L281.06,529.69z"/>
	<path class="st5" d="M260.3,531.61c0,0-35.04,0.62-44.68-9.37c-9.64-9.99-16.36-33.01-16.36-33.01s8.9,11.62,15.16,13.12
		c6.27,1.5,0.89-13.19-4.95-18.28c-5.84-5.08-23.51-21.31-25.91-29.96c-2.4-8.65-13.12-28.51-13.12-28.51s20.27,32.38,31.41,36.11
		c11.14,3.73,23.5,8.77,29.32,16.87c5.82,8.1,10.1,15.94,11.12,22.3C243.33,507.23,260.3,531.61,260.3,531.61z"/>
</g>
</svg>
