<?xml version="1.0" encoding="utf-8"?>
<!-- Generator: Adobe Illustrator 23.0.2, SVG Export Plug-In . SVG Version: 6.00 Build 0)  -->
<svg version="1.1" xmlns="http://www.w3.org/2000/svg" xmlns:xlink="http://www.w3.org/1999/xlink" x="0px" y="0px"
	 viewBox="0 0 709.97 653.29" style="enable-background:new 0 0 709.97 653.29;" xml:space="preserve">
<style type="text/css">
	.st0{fill:#E72A8B;}
	.st1{fill:#FFFFFF;}
	.st2{fill:#FFFFFF;stroke:#000000;stroke-width:2;stroke-linecap:round;stroke-linejoin:round;}
	.st3{fill:#808080;stroke:#231F20;stroke-width:2;stroke-miterlimit:10;}
	.st4{fill:none;stroke:#000000;stroke-width:2;stroke-linecap:round;stroke-linejoin:round;}
	.st5{fill:#FFEC00;stroke:#000000;stroke-width:2;stroke-linecap:round;stroke-linejoin:round;}
	.st6{fill:#45D62F;stroke:#000000;stroke-width:2;stroke-linecap:round;stroke-linejoin:round;}
</style>
<g>
	<g>
		<path class="st0" d="M277.1,523.5c13.05-16.04,15.08-32.78,8.51-57.87c-8.83-33.75-35.33-36.34-45.54-46.45
			c-10.22-10.11-10.1-25.71-18.72-36.06c-1.48-1.78-2.89-3.36-4.2-4.76c-2-2.13-5.43,0.09-4.37,2.81c1.62,4.17,2.92,8.93,2.92,13.46
			c0,11.97,3.53,24.56,3.53,24.56s-14.28-7.69-16.24-17.4c-1.95-9.71,1.2-24.24-10.98-32.63c-9.12-6.28-14.9-16.14-18.25-23.72
			c-1.1-2.5-4.81-1.86-5.05,0.86c-0.64,7.39-1.21,16.84-0.82,23.87c0.89,16.11,8.92,14.57,9.69,25.11
			c0.77,10.55-0.25,36.12,5.75,47.36c7.77,14.56,26.3,22.78,26.3,22.78s-17.1,0.21-30.98-20.16c-7.06-10.36-15.27-14.92-20.38-16.87
			c-2.07-0.79-4.13,1.19-3.44,3.29c4.39,13.5,17.55,52.59,28.15,70.23c12.92,21.51,28.45,30.98,53.8,34.87
			C252.53,539.21,267.82,534.9,277.1,523.5z"/>
		<path class="st1" d="M258.67,525.07c-6.59,2.87-20.06,4.76-31.12,2.21s-27.17-17.9-27.17-17.9s10.77-0.69,15.8,2.43
			c5.03,3.12,14.73,2.67,14.73,2.67s-6.69-9.33-16.73-14.27c-10.04-4.94-16.73-23.54-16.73-23.54s11.08,12.68,19.12,14.86
			s22.27-1.92,29.25,5.56c13.92,14.92,30.76,12.3,30.76,12.3S269.67,520.29,258.67,525.07z"/>
	</g>
	<path class="st2" d="M258.95,466.98c0,0-11.31,1.73-16.23,3.46c-4.92,1.73-8.78,4.52-8.65,6.65c0.13,2.13,7.05-0.53,8.38-0.67
		c1.33-0.13-1.73,3.06-3.06,8.51c-1.33,5.45-3.19,12.24-2.79,14.9c0.4,2.66,2.93,2.93,2.93,2.93s0.93,4.26,3.33,4.92
		c2.39,0.67,2.25,0.21,2.25,0.21s0.44,2.52,2.96,2.52c2.53,0,2.22-1.78,2.22-1.78s0.15-2.52,1.78-6.96
		c1.85-5.04,3.43-8.89,3.43-8.89s1.6,7.05,3.86,8.51c2.26,1.46,2.93,1.06,2.93,1.06s0.93-1.86-0.4-5.72s-0.67-5.85,0.13-8.91
		c0.8-3.06,6.52-11.44,6.52-11.44L258.95,466.98z"/>
	<path class="st3" d="M327.21,389.69c0,0-5.59,23.47-10.28,33.3c-4.69,9.84-18.33,29.28-23.02,35.09
		c-4.69,5.81-22.58,26.15-22.58,26.15l-14.98-16.54c0,0,12.74-20.12,15.65-32.41c2.91-12.29,20.34-54.99,25.03-59.68
		c4.69-4.69,31.74,14.31,31.74,14.31L327.21,389.69z"/>
	<path class="st4" d="M239.53,502.77c0,0,2.9-11.02,5.57-15.46"/>
	<path class="st4" d="M244.86,506.62c0,0,2.9-11.02,5.57-15.46"/>
	<path class="st1" d="M365.63,396.34l-24.95-29.91c0,0,1.37-13.53-10.92-15.14c-12.29-1.61-24.2-9.06-29.91-1.74
		c-5.71,7.32-8.56,18.87-7.82,20.35c0.74,1.49,2.61,9.43,4.47,10.92c1.86,1.49,3.85,2.98,3.85,2.98s12.16,9.93,17.75,11.17
		c5.59,1.24,10.67,5.83,15.02,6.7S365.63,396.34,365.63,396.34z"/>
	<polygon class="st2" points="395.26,104.62 402.46,117.76 390.22,127.31 376.89,110.38 	"/>
	<polygon class="st2" points="334.01,156.58 348.79,159.1 348.67,174.62 327.37,172.86 	"/>
	<path class="st3" d="M317.47,395.11l0.85,6.96c0,0,11.36,2.93,16.85,4.15c5.5,1.22,15.75-4.15,15.75-4.15s-6.59,0.31-12.23-1.62
		c-4.1-1.4-10.47-6.91-10.47-6.91"/>
	<path class="st4" d="M290.35,368.87c0,0,5.3,12.61,17.8,20.98c12.49,8.37,17.66,5.28,21.33,2.95c6.13-3.89,7.19-10.61,7.19-10.61"
		/>
	<path class="st0" d="M337.63,577.31c-9.84-7.24-13.52-35.36,10.25-47.77c12.02-6.27,21.55-18.79,26.77-28.03
		c1.68-2.98,6.22-1.94,6.45,1.48c0.29,4.24,4.63-8.39,3.11-4.43c-3.84,9.99-0.2,14.21-0.2,14.21s-6.49,1.63,9.22-7.96
		c15.71-9.59,57.65-21.92,64.54-39.28c6.89-17.36,6.59-37.89,23.01-49.38c10.09-7.06,17.31-14.53,22.02-20.25
		c2.28-2.77,6.75-0.69,6.14,2.85c-1.17,6.8-3.88,15.12-10.02,21.67c-12.56,13.39-10.66,24.23-11.69,32.49
		c-1.04,8.26-4.25,16.16-4.25,16.16s18.82-18.1,22.2-34.22c3.38-16.12,12.51-31.39,26.27-44.99c7.13-7.04,11.88-17.16,14.81-25.28
		c1.28-3.55,6.49-2.83,6.79,0.94c0.49,6.29,0.09,13.99-2.81,21.67c-6.79,17.96-16.24,41.98-16.24,41.98s15.64-6.47,20.15-19.69
		c0.77-2.25,1.72-4.41,2.76-6.43c1.8-3.51,7.14-1.74,6.56,2.16c-0.64,4.27-0.97,9.16-0.68,14.56c1.08,20.31-14.14,39.75-21.88,52.29
		s2.76,24.14-2.85,42.51c-4.96,16.24-19.57,61.37-44.96,68.52c-53.45,15.03-46.62-8.61-90.33-0.19
		C361.02,590.93,345.19,582.87,337.63,577.31z"/>
	<path class="st2" d="M370.07,471.26c0,0-10.26,6.39-12.62,8.21c-2.36,1.83-4.62,3.86-3.65,5.8s3.01,1.18,6.66-0.54
		s6.23-2.79,6.55-2.47s-0.21,10.31,0.32,14.82s0.64,12.02,2.25,12.67s2.25,0.21,2.68-2.25s0.97-13.21,1.61-12.99
		s1.5,17.18,2.25,19.22c0.75,2.04,2.47,2.47,3.54,2.15s1.93-0.86,1.93-0.86s1.4,1.72,2.9,1.5s2.36-1.72,2.36-1.72s2.47,0,3.33-0.43
		s1.93-9.23,1.93-9.23s-0.43-6.55-0.86-9.98s1.57,8.54,3.97,8.8c1.88,0.21,2.37-9.35-0.74-15.68s-6-13.57-6-13.57L370.07,471.26z"/>
	<path class="st3" d="M360.99,257.32c0,0,11-22.25,14-31.01s11-26.01,11-26.01s-26.73-6.76-32.23-7.76c-5.5-1-9.78-1.99-9.78-1.99
		l1.25-32.01c0,0,59.26,4.5,63.26,6.5c4,2,18.25,28.51,18.25,37.01c0,8.5-29.26,70.77-29.26,70.77L360.99,257.32z"/>
	<g>
		<path class="st3" d="M333.54,174.84c0,0-4.44,2.54-9.38,2.07s-8.53-1.21-8.53-1.21l0.98-13.71l1.87-0.8c0,0-0.22-5.33-0.18-10.33
			c0.04-5,2.1-16.81,4.55-22.25c2.45-5.43,4.06-8.91,5.71-9.15c1.65-0.24,4.98,1.36,4.98,1.36s-1.38,9.84-1.43,14.98
			c-0.05,5.15,5.54,15.71,6.41,16.99c0.87,1.29,2.75,3.88,1.29,5.02s-3.91,4.22-5.22,4.06c-1.3-0.16-1.61,1.12-2.21,3.55
			S333.54,174.84,333.54,174.84z"/>
		<path class="st4" d="M332.81,155.09c0,0,3.56-2.39,4.25-3.52"/>
		<path class="st4" d="M330.95,151.11c0,0,3.56-2.39,4.25-3.52"/>
		<path class="st4" d="M329.62,147.26c0,0,3.56-2.39,4.25-3.52"/>
	</g>
	<path class="st3" d="M414.51,285.58c0,0,33.76-69.52,35.51-79.02c1.75-9.5-5.25-23.26-11.25-33.76c-6-10.5-26.76-58.01-27.76-61.26
		c-1-3.25-2-5.75-2-5.75s-9.25,8-13.5,10c-4.25,2-13.5,13.75-13.5,13.75s15,29.51,20.75,40.01c5.75,10.5,11.5,24.76,11.5,26.26
		c0,1.5-12.5,27.76-15.75,34.26c-3.25,6.5-13.25,26.76-13.5,31.26C384.75,265.82,414.51,285.58,414.51,285.58z"/>
	<g>
		<path class="st3" d="M381.15,116.95c0,0-5.03-0.92-8.5-4.47c-3.48-3.55-5.74-6.43-5.74-6.43l9.59-9.85l1.94,0.59
			c0,0,3.27-4.21,6.52-8.01s12.45-11.49,17.82-14.07s8.85-4.2,10.26-3.31c1.41,0.88,2.93,4.25,2.93,4.25s-7.4,6.63-10.76,10.53
			c-3.36,3.9-5.89,15.58-6.06,17.12c-0.16,1.54-0.4,4.74-2.25,4.66s-5.71,0.7-6.6-0.26c-0.89-0.97-1.96-0.18-3.98,1.29
			C384.3,110.46,381.15,116.95,381.15,116.95z"/>
		<path class="st4" d="M393.32,101.38c0,0,4.27,0.47,5.51,0.05"/>
		<path class="st4" d="M394.47,97.14c0,0,4.27,0.47,5.51,0.05"/>
		<path class="st4" d="M395.94,93.34c0,0,4.27,0.47,5.51,0.05"/>
	</g>
	<path class="st1" d="M393.52,568.12c0,0,29.66-12.21,36.62-34.16c3.12-9.83,20.6-33.96,25.2-37.24s10.14-7.58,10.14-7.58
		s-10.06,12.14-12.06,30.54c-2,18.39-5.31,23.76-5.31,23.76s6.37-2.51,13-10.65c6.63-8.14,16.68-16.11,16.68-16.11
		s-8.25,22.27-10.28,31.31s-10.72,16.88-10.72,16.88s6.12,0.38,11.36-3.3c1.85-1.3,6.09-6.22,6.09-6.22s-3.96,12.69-13.34,15.91
		c-9.39,3.22-22.22-0.5-33.79-3.13C415.53,565.5,393.52,568.12,393.52,568.12z"/>
	<path class="st3" d="M312.94,339.02c0,0,2.41-8.76,8.98-17.09s11.61-12.92,13.8-23.22c2.19-10.3,10.95-32.86,11.39-38.56
		c0.44-5.7,4.38-15.99,4.38-15.99s5.48,7.45,23.44,12.71c17.96,5.26,36.15,18.4,38.34,22.13s4.82,6.79,4.82,6.79
		s-12.05,30.67-13.8,41.84s-2.41,19.72,1.75,31.76s6.79,51.7,5.04,65.5s-5.26,25.85-7.01,30.67c-1.75,4.82-4.16,23-4.16,23
		s-8.54,4.38-18.4,1.53s-14.02-8.76-14.02-8.76s7.67-22.13,8.54-31.76c0.88-9.64,1.31-25.19-1.31-33.08
		c-2.63-7.89-5.48-15.77-5.48-15.77s-4.16,3.29-11.61,0s-20.06-36.81-24.66-39.22C328.36,349.09,312.94,339.02,312.94,339.02z"/>
	<path class="st3" d="M340.92,363.97c0.37,0.12,14.24,6.93,14.24,7.42c0,0.49,11.4,24.82,11.4,24.82s-13.07-5.62-19.05-10.38
		c-5.98-4.76-10.75-17.95-9.89-20.03C338.48,363.73,340.92,363.97,340.92,363.97z"/>
	<g>
		<path class="st5" d="M195.54,307.35c0,0-5.76,18.73,10.99,30.05c14.74,9.96,19.81,15.91,24.69,22.74
			c3.95,5.53,9.16,17.33,9.16,17.33l22.28-34.93c0,0-1.78-11.72-12.47-21.64c-10.69-9.92-20.36-37.72-20.36-37.72L195.54,307.35z"/>
		<line class="st4" x1="205.94" y1="313.16" x2="224.86" y2="299.54"/>
		<line class="st4" x1="209.69" y1="329.09" x2="235.24" y2="310.1"/>
		<line class="st4" x1="227.93" y1="327.17" x2="239.84" y2="317.89"/>
	</g>
	<g>
		<path class="st5" d="M286.21,541.73c0,0,14.42,3.6,23.69-6.18s24.2-31.93,24.2-31.93l38.62,36.56c0,0-28.38,23.34-38.11,30.38
			c-17.63,12.76-30.9,11.33-30.9,11.33L286.21,541.73z"/>
		<line class="st4" x1="334.28" y1="520.55" x2="353.06" y2="539.51"/>
		<line class="st4" x1="324.14" y1="530.5" x2="342.92" y2="549.46"/>
		<line class="st4" x1="318.32" y1="537.25" x2="326.77" y2="546.45"/>
	</g>
	<g>
		<polygon class="st4" points="491.36,252.35 493.25,206.01 545.2,257.22 538.39,320.14 484.22,352.26 443.35,268.57 		"/>
		<line class="st4" x1="491.36" y1="252.35" x2="538.39" y2="320.14"/>
		<polygon class="st4" points="498.48,222.38 497.12,250.36 531.92,299.25 534.87,259.23 		"/>
		<line class="st4" x1="487.15" y1="265.95" x2="516.1" y2="312.32"/>
		<line class="st4" x1="480.83" y1="276.18" x2="500.65" y2="311.23"/>
		<line class="st4" x1="471.31" y1="280.69" x2="491.12" y2="315.74"/>
	</g>
	<path class="st4" d="M308.87,375.41c0,0,1.58,2.53,1.89,4.48c0.31,1.95-0.1,2.67-0.1,2.67l4-0.92"/>
	
		<ellipse transform="matrix(0.4476 -0.8943 0.8943 0.4476 -171.0205 500.9948)" class="st4" cx="319.97" cy="388.91" rx="1.78" ry="2.48"/>
	<path class="st4" d="M293.14,375.5l24.06-15.06c0,0,2.89,4.15,2.57,7.12c-0.32,2.97-6.58,6.18-7.94,5.94s-6.02-3.93-6.9-3.37
		c-0.88,0.56,1.68,7.22,1.04,8.1c-0.64,0.88-6.73,4.12-8.34,3.96C295.15,381.94,293.14,375.5,293.14,375.5z"/>
	<path d="M338.23,370.04c0,0-2.21-1.48-1.94-3.51s0.78-7.55-2.36-8.81c-3-1.2-4.62,1.17-5.64,2.92c-1.02,1.75-4.6,3.55-8.56,1.25
		c-2.75-1.59-13.89-9.95-13.89-9.95s-1.79,8.79-7.29,10.43c-4.6,1.37-2.86,9.32-5.55,11.01c-7.54,4.73-17.61-5.66-17.61-5.66
		s8.78-2.38,10.51-8.96c2.3-8.77,5.83-21.86,19.39-25.09c13.56-3.23,20.67-0.18,24.45,4.8c3.78,4.98,4.8,6.09,7.94,8.86
		c3.14,2.77,5.54,5.81,6.83,9.97c0,0,0.83,5.72-1.11,8.58S338.23,370.04,338.23,370.04z"/>
	<path class="st6" d="M333.48,397.23c0,0,4.84,3.16,8,3.72s7.07-2.6,7.07-2.6l-7.07-8.93L333.48,397.23z"/>
	<path class="st6" d="M346.12,397.79c0,0,6.47-0.95,11.24-2.16c9.57-2.43,17.93-9.63,22.54-13.13c6.81-5.19,17.51-12.81,27.72-22.05
		c3.52-3.18,7.13-12.13,7.13-12.13l17.11-10.41l4.46,15.99c0,0-5.95,14.88-19.71,25.11s-38.12,22.69-54.68,23.8
		c-16.55,1.12-20.46-1.86-20.46-1.86L346.12,397.79z"/>
	<path class="st4" d="M381.6,515.01c0,0-0.1-15.42-0.98-19.75"/>
	<path class="st4" d="M387.15,513.79c0,0-0.1-15.42-0.98-19.75"/>
</g>
</svg>
