<?xml version="1.0" encoding="utf-8"?>
<!-- Generator: Adobe Illustrator 23.0.2, SVG Export Plug-In . SVG Version: 6.00 Build 0)  -->
<svg version="1.1" xmlns="http://www.w3.org/2000/svg" xmlns:xlink="http://www.w3.org/1999/xlink" x="0px" y="0px"
	 viewBox="0 0 709.97 653.29" style="enable-background:new 0 0 709.97 653.29;" xml:space="preserve">
<style type="text/css">
	.st0{fill:#FFFFFF;}
	.st1{fill:#FFFFFF;stroke:#000000;stroke-width:2;stroke-linecap:round;stroke-linejoin:round;stroke-miterlimit:10;}
	.st2{fill:#45D62F;stroke:#000000;stroke-width:2;stroke-linecap:round;stroke-linejoin:round;}
	.st3{fill:#FFEC00;stroke:#000000;stroke-width:2;stroke-linecap:round;stroke-linejoin:round;}
	.st4{fill:none;stroke:#000000;stroke-width:2;stroke-linecap:round;stroke-linejoin:round;}
	.st5{fill:#4D4F51;stroke:#231F20;stroke-width:2;stroke-linecap:round;stroke-linejoin:round;stroke-miterlimit:10;}
</style>
<path class="st0" d="M369.14,206.96l7.67-10.42l-3.59-3.95c0,0,6.83-10.54,10.54-13.9c3.71-3.35,10.9-5.39,18.21-12.58
	c7.31-7.19,14.74-15.7,15.34-18.33c0.6-2.64,0.24-2.28,0.48-3.83c0.24-1.56,0.12-3.95-0.6-4.79c-0.72-0.84-0.6-1.08-0.84-2.16
	c-0.24-1.08,0.12-3.59-1.8-4.07s-5.75,0.36-5.75,0.36s0.48-1.56-3.71-0.84c-4.19,0.72-23.12,14.02-23.12,14.02s1.2-4.31-0.24-6.35
	c-1.44-2.04-3.12-4.07-4.07-2.52c-0.96,1.56-2.28,8.51-3.12,11.26c-0.84,2.76-2.28,9.35-3.35,13.3s-3.35,9.82-5.03,12.22
	c-1.68,2.4-4.19,5.03-4.19,5.03s-1.2-0.72-1.56,0s-7.31,8.39-7.31,8.39L369.14,206.96z"/>
<path class="st0" d="M255.71,219.87l0.12,10.39c0,0,39.84-1.15,41.8-2.19c1.96-1.04,1.73-2.66,1.85-3.35
	c0.12-0.69,0.12-10.62,0.12-10.62l3.58-3.58l-8.43-8.31c0,0,1.27-6,0.58-7.85s-8.54-12.59-8.54-12.59s-23.9,5.89-26.1,11.55
	C258.49,198.97,255.71,219.87,255.71,219.87z"/>
<g>
	<circle class="st1" cx="197.78" cy="553.62" r="9.66"/>
	<circle class="st1" cx="202.21" cy="553.62" r="9.66"/>
	<circle class="st1" cx="347.85" cy="567.21" r="9.66"/>
	<circle class="st1" cx="352.29" cy="567.21" r="9.66"/>
	<path class="st1" d="M500.86,555.25l2.06,41.25H375.57l8.25-29.39l3.71-11.86H500.86z"/>
	<rect x="423.52" y="373.76" class="st1" width="42.28" height="202.11"/>
	<polygon class="st1" points="385.4,560.15 357.82,560.15 360.17,532.46 385.4,533.45 	"/>
	<rect x="253.69" y="453.22" class="st1" width="12.28" height="53.33"/>
	<polygon class="st1" points="268.47,504.31 250.54,504.31 250.54,510.59 163.32,556.77 163.32,566.41 169.6,566.41 169.6,561.03 
		254.35,530.32 265.56,575.83 270.04,575.83 267.8,528.75 346.94,553.41 346.94,557.89 355.24,557.89 355.24,549.6 268.47,509.69 	
		"/>
	<circle class="st1" cx="264.79" cy="583.18" r="9.66"/>
	<circle class="st1" cx="269.23" cy="583.18" r="9.66"/>
	<circle class="st1" cx="301.07" cy="553.62" r="9.66"/>
	<circle class="st1" cx="305.51" cy="553.62" r="9.66"/>
	<path class="st2" d="M335.78,459.68H229.12c-11.25,0-20.36-9.12-20.36-20.36v0c0-11.25,9.12-20.36,20.36-20.36h106.66
		c11.25,0,20.36,9.12,20.36,20.36v0C356.14,450.56,347.02,459.68,335.78,459.68z"/>
	<circle class="st1" cx="163.6" cy="573.04" r="9.66"/>
	<circle class="st1" cx="168.03" cy="573.04" r="9.66"/>
	<path class="st1" d="M311.65,378.35c0,0,69.58,11.81,85.65,19.34c16.08,7.54,11.55,22.86,11.55,48.73
		c0,25.87-2.76,87.66-2.76,87.66s-12.56,6.03-23.36,6.53c-10.8,0.5-28.89-2.76-28.89-2.76s3.77-54.51,4.77-68.07
		c1-13.56,3.52-31.15,2.76-32.65c-0.75-1.51-110.38,3.14-121.96-5.42c-15.21-11.23-14.18-27.99-6.89-51.1
		C239.81,357.5,311.65,378.35,311.65,378.35z"/>
	<path class="st1" d="M438.61,145.39l-2.6,60.09l86.38,11.27l13-67.6c0,0-15.02,2.89-47.09,0.58
		C458.91,147.6,438.61,145.39,438.61,145.39z"/>
	<path class="st3" d="M410,166.48c-0.29,0.29,36.98,29.47,36.98,29.47s-1.73,30.34-6.93,50.85c-5.2,20.51-3.76,29.47-3.76,29.47
		l-38.71-49.98c0,0,6.07-10.69,7.51-23.4S410,166.48,410,166.48z"/>
	<path class="st3" d="M526.51,78.55c0,0,4.63,11.8,14.81,18.97c5.75,4.05,23.86,9.88,40.49,13.84c12.82,3.05,25.66,4.83,25.66,4.83
		s-14.81-16.66-18.97-24.29s-8.1-18.28-8.1-18.28S527,79.78,526.51,78.55z"/>
	<path class="st3" d="M535.21,92.22c0,0,10.25,5.75,18.38,4.25c8.13-1.5,10.25-3.25,10.25-3.25s7.5,15,16.13,17.63
		s-19.6-2.88-30.11-7.63C541.89,99.61,535.21,92.22,535.21,92.22z"/>
	<path class="st1" d="M515.92,163.41l62.04,3.83c0,0-6.29,41.54-20.23,57.12s-35.8,19.68-35.8,19.68l-38.54-7.11L515.92,163.41z"/>
	<polyline class="st1" points="521.93,244.04 530.13,228.19 554.73,227.1 	"/>
	<rect x="319.4" y="389.16" class="st1" width="266.7" height="8"/>
	<path class="st1" d="M586.1,389.16l-26.34-50.01c0,0-212.03-1.33-212.03,0s-28.34,50.01-28.34,50.01H586.1z"/>
	<line class="st4" x1="255.58" y1="220.85" x2="255.74" y2="225.63"/>
	<path class="st1" d="M501.12,311.51c0,0,3.41,14.13,14.13,24.11c10.72,9.99,19.49,15.59,19.49,15.59s-46.04-1.22-59.43-0.49
		c-13.4,0.73-22.41-10.23-31.67-19c-9.26-8.77-19-17.54-19.24-17.29c-0.24,0.24,34.83,0.73,50.18-1.22
		C489.91,311.27,501.12,311.51,501.12,311.51z"/>
	<path class="st1" d="M502.12,369.25c0,0,12.54-26.02,11.85-25.55c-0.7,0.46,16.26,3.48,28.57-1.16
		c12.31-4.65,26.48-16.26,26.48-16.26s9.29,4.41,17.89,14.87s12.54,20.67,12.54,20.67s-18.12,10.69-49.48,11.85
		C518.62,374.82,502.12,369.25,502.12,369.25z"/>
	<path class="st4" d="M287.69,182.86c0,0,7.09,9.08,7.53,12.18c0.44,3.1-0.22,7.31-0.22,7.31l7.97,8.42l-3.54,3.54
		c0,0,1.33,4.43,0.44,8.86c-0.89,4.43-2.45,4.8-2.45,4.8"/>
	<path class="st4" d="M289.88,196.54c2.34-1.05,5.34-1.5,5.34-1.5"/>
	<path class="st4" d="M299.71,220.44c0,0-2.69,0.82-5.55,0.52"/>
	<path class="st4" d="M291.46,202.44c-0.15,0.15,0.37,2,1.77,2.07c1.4,0.07,1.77-2.16,1.77-2.16c-3.02-1.9-5.79,2.15-5.79,2.15"/>
	<path d="M268.94,207.52c0,0,4.27-3.14,2.37-6.58c-2.04-3.68-1.07-7.39-0.08-8.62c2.66-3.3,16.09,0.22,19.39-8.15
		c3.15-7.98-3.91-18.98-3.91-18.98s-4.58,7.15-17.39,6.54c-7.33-0.34-23.06,4.07-27.55,15.94c-3.66,9.67-2.68,17.13,1.34,22.04
		c4.02,4.91,8.04,9.68,8.79,11.02c0.74,1.34,4.02,2.09,6.11,0.89s5.62-3.91,5.03-5.4c-0.6-1.49-3.32-4.77-2.68-7.04
		C261.4,205.49,268.94,207.52,268.94,207.52z"/>
	<path class="st4" d="M363.04,178.35c0,0,6.16-7.29,7.29-12.7s2.62-11.77,4.11-15.69c1.49-3.92,2.24-11.58,3.55-12.52
		c1.31-0.93,3.55,1.49,3.92,3.36c0.37,1.87-0.56,6.35-0.56,6.35s20.27-14.24,23.26-14.7s4.47,1.38,4.47,1.38s3.79-1.49,5.96-0.23
		s0.57,4.47,0.57,4.47s1.95,1.03,2.29,2.98c0.34,1.95-0.92,3.21-0.92,3.21s0.69,2.75,0.34,4.47s-13.65,16.98-20.07,21.22
		c-6.42,4.24-11.36,6.31-13.76,9.06c-2.41,2.75-9.29,11.81-9.29,11.81"/>
	<line class="st4" x1="409.08" y1="133.83" x2="393.14" y2="146.91"/>
	<line class="st4" x1="415.5" y1="137.96" x2="399.56" y2="151.04"/>
	<line class="st4" x1="417.23" y1="144.04" x2="401.28" y2="157.12"/>
	<path class="st1" d="M354.01,186.02c0,0-32.26,27.06-37.32,31.48c-3.2,2.79-26.75,10.79-27.52,10.79s-10.63-5.58-16.79-6.35
		c-6.17-0.77-24.04,7.29-26.93,9.41c-2.89,2.12-9.7,6.87-12.37,14.09c-1.9,5.14-7.9,32.94-7.32,43.35
		c0.58,10.4-2.15,110.22-2.15,110.22s21.91,1.5,31.58,1.78s44.08,1.71,50.62-1.42s15.07-24.17,15.07-24.17s3.98-51.76,2.84-60.58
		s-5.69-27.87-5.97-32.14s-5.97-23.89-5.97-23.89s16.85-10.94,23.63-16.14c6.78-5.2,17.13-13.32,22.71-18.29
		c6.71-5.97,16.78-15.48,16.78-15.48l-20.74-22.66H354.01z"/>
	<polyline class="st4" points="354.17,186.02 361.26,178.77 377.08,196.89 371.09,203.67 	"/>
	<path class="st4" d="M311.79,258.58c0,0-18.9,9.92-30.24,14.33c-11.33,4.41-17,4.62-17,4.62"/>
	<path class="st1" d="M365.76,335.92c0,0,29.68,0.19,35.33,0c5.65-0.19,10.82,4.21,13.88,6.61c3.06,2.39,7.18,6.13,7.18,6.13
		s-2.01,0.86-4.21,0.86s-9.77-3.26-11.2-3.93c-1.44-0.67,0.96,1.82,0.1,3.16c-0.86,1.34-4.88,1.53-8.43,1.24
		c-3.54-0.29-12.93-0.57-17.04-0.48c-4.12,0.1-7.95-1.44-10.63-1.82s-4.5,0.38-4.69,0.1C365.86,347.51,365.76,335.92,365.76,335.92z
		"/>
	<path class="st1" d="M406.74,345.59c0,0-2.01-1.34-7.56-1.72c-5.55-0.38-7.66-0.86-7.66-0.86"/>
	<path class="st1" d="M323.44,326.36c0,0.87,44.34,6.54,44.34,6.54l0.87,20.19l-46.61,3.08L323.44,326.36z"/>
	<path class="st5" d="M273.39,447.26L273.39,447.26c-3.57,0-6.46-2.89-6.46-6.46v-46.92c0-3.57,2.89-6.46,6.46-6.46h0
		c3.57,0,6.46,2.89,6.46,6.46v46.92C279.84,444.37,276.95,447.26,273.39,447.26z"/>
	<path class="st2" d="M303.79,391.77h-57.77c-2.77,0-5.02-2.25-5.02-5.02l0,0c0-2.77,2.25-5.02,5.02-5.02h57.77
		c2.77,0,5.02,2.25,5.02,5.02l0,0C308.8,389.53,306.56,391.77,303.79,391.77z"/>
	<g>
		<path class="st5" d="M358.03,552.1c0,0-4.67,6.22-4.89,13.78c-0.22,7.56,0.22,13.11,0.22,13.11l20.89,1.11l1.56-2.67
			c0,0,8,1.33,15.56,2.22c7.56,0.89,25.78,0,34.45-2.67c8.67-2.67,14.23-4.45,14.89-6.89c0.67-2.45-1.11-7.78-1.11-7.78
			s-15.11,0.22-22.89-0.67c-7.78-0.89-22.67-11.34-24.45-12.89s-5.33-4.89-7.33-2.89c-2,2-7.11,5.11-7.11,7.11s-2,2.22-5.78,2.67
			C368.25,556.1,358.03,552.1,358.03,552.1z"/>
		<path class="st4" d="M387.71,556.93c0,0,4.29-4.93,6.11-5.75"/>
		<path class="st4" d="M393.37,560.49c0,0,4.29-4.93,6.11-5.75"/>
		<path class="st4" d="M398.94,563.23c0,0,4.29-4.93,6.11-5.75"/>
	</g>
	<path class="st2" d="M220.12,428.49L220.12,428.49c-6.12,0-11.09-4.96-11.09-11.09V264.93c0-6.12,4.96-11.09,11.09-11.09h0
		c6.12,0,11.09,4.96,11.09,11.09V417.4C231.2,423.52,226.24,428.49,220.12,428.49z"/>
</g>
</svg>
