<?xml version="1.0" encoding="utf-8"?>
<!-- Generator: Adobe Illustrator 23.0.2, SVG Export Plug-In . SVG Version: 6.00 Build 0)  -->
<svg version="1.1" xmlns="http://www.w3.org/2000/svg" xmlns:xlink="http://www.w3.org/1999/xlink" x="0px" y="0px"
	 viewBox="0 0 709.97 653.29" style="enable-background:new 0 0 709.97 653.29;" xml:space="preserve">
<style type="text/css">
	.st0{fill:#FFFFFF;stroke:#000000;stroke-width:2;stroke-linecap:round;stroke-linejoin:round;stroke-miterlimit:10;}
	.st1{fill:none;stroke:#000000;stroke-width:2;stroke-linecap:round;stroke-linejoin:round;stroke-miterlimit:10;}
	.st2{fill:#E72A8B;}
	.st3{fill:#45D62F;}
	.st4{fill:#FFEC00;}
	.st5{fill:#808080;}
	.st6{fill:#FFEC00;stroke:#000000;stroke-width:2;stroke-linecap:round;stroke-linejoin:round;}
	.st7{fill:#808080;stroke:#231F20;stroke-width:2;stroke-linecap:round;stroke-linejoin:round;stroke-miterlimit:10;}
</style>
<g>
	<path class="st0" d="M462.17,279.28c0,0-13.53-29.64-21.86-30.92c-8.33-1.28-24.03,1.6-26.27,10.89
		c-2.24,9.29-4.16,62.79-3.2,78.81c0.96,16.02,2.88,45.17,0.64,50.94c-2.24,5.77-13.13,19.86-15.38,24.67
		c-2.24,4.81-5.77,9.93-4.49,10.57c1.28,0.64,9.93-1.92,21.14-15.38c11.21-13.46,21.46-16.02,24.03-19.86
		C439.35,385.15,462.17,279.28,462.17,279.28z"/>
	<polygon class="st0" points="191.46,398.34 192.06,435.43 199.84,438.42 213.89,433.63 213.89,398.04 	"/>
	<line class="st0" x1="199.84" y1="438.42" x2="199.84" y2="398.94"/>
	<polygon class="st0" points="267.72,381.3 268.32,465.63 276.1,468.62 290.15,463.84 290.15,381 	"/>
	<line class="st0" x1="276.1" y1="468.62" x2="276.1" y2="381.9"/>
	<polygon class="st0" points="308.99,334.05 309.59,418.38 317.37,421.37 331.42,416.59 331.42,333.75 	"/>
	<line class="st0" x1="317.37" y1="421.37" x2="317.37" y2="334.64"/>
	<polygon class="st0" points="357.93,351.79 358.53,436.12 366.31,439.11 380.36,434.33 380.36,351.49 	"/>
	<line class="st0" x1="366.31" y1="439.11" x2="366.31" y2="352.38"/>
	<path class="st0" d="M231.33,328.11l-50.29,13.55l3.01,64.45c0,0,2.41-5.12,10.54-4.82c8.13,0.3,68.96,7.23,71.07,9.64
		c2.11,2.41,11.44,9.94,11.44,9.94s12.65-9.94,12.65-14.76c0-4.82-5.42-19.57-5.42-19.57l113.53-20.78l-1.81-35.54l-56.31-9.03
		L231.33,328.11z"/>
	<polyline class="st1" points="284.34,386.53 270.18,353.4 273.49,391.35 289.76,406.11 	"/>
	<path class="st1" d="M181.04,341.66c1.2,0.3,89.14,11.74,89.14,11.74l125.88-23.19"/>
	<g>
		<polygon class="st0" points="340.84,251.33 315.67,246.57 226.23,259.61 228.28,331.79 259.19,337.96 346.19,324.45 348.17,319.5 
					"/>
		<polygon class="st0" points="250.66,262.96 258.4,332.02 348.17,319.5 340.84,251.33 		"/>
		<circle class="st1" cx="332.32" cy="263.61" r="4.76"/>
		<circle class="st1" cx="334.13" cy="278.3" r="4.76"/>
		<g>
			<rect x="260.22" y="268.62" transform="matrix(0.9926 -0.1211 0.1211 0.9926 -32.7801 34.2371)" width="10.1" height="36.33"/>
			
				<rect x="262.7" y="304.81" transform="matrix(0.9926 -0.1211 0.1211 0.9926 -35.2275 34.6878)" class="st2" width="10.1" height="4.69"/>
			
				<rect x="263.72" y="309.43" transform="matrix(0.9926 -0.1211 0.1211 0.9926 -36.2288 34.8722)" class="st3" width="10.1" height="12.1"/>
			
				<rect x="270.25" y="267.4" transform="matrix(0.9926 -0.1211 0.1211 0.9926 -32.5581 35.4426)" class="st4" width="10.1" height="36.33"/>
			
				<rect x="272.73" y="303.58" transform="matrix(0.9926 -0.1211 0.1211 0.9926 -35.0055 35.8933)" class="st3" width="10.1" height="4.69"/>
			
				<rect x="273.75" y="308.21" transform="matrix(0.9926 -0.1211 0.1211 0.9926 -36.0068 36.0777)" class="st5" width="10.1" height="12.1"/>
			
				<rect x="280.26" y="266.18" transform="matrix(0.9926 -0.1211 0.1211 0.9926 -32.3364 36.6463)" class="st2" width="10.1" height="36.33"/>
			<rect x="282.74" y="302.36" transform="matrix(0.9926 -0.1211 0.1211 0.9926 -34.7838 37.097)" width="10.1" height="4.69"/>
			
				<rect x="283.76" y="306.99" transform="matrix(0.9926 -0.1211 0.1211 0.9926 -35.7851 37.2814)" class="st2" width="10.1" height="12.1"/>
			
				<rect x="290.29" y="264.96" transform="matrix(0.9926 -0.1211 0.1211 0.9926 -32.1145 37.8519)" class="st3" width="10.1" height="36.33"/>
			
				<rect x="292.77" y="301.14" transform="matrix(0.9926 -0.1211 0.1211 0.9926 -34.5618 38.3025)" class="st2" width="10.1" height="4.69"/>
			
				<rect x="293.79" y="305.76" transform="matrix(0.9926 -0.1211 0.1211 0.9926 -35.5632 38.4869)" class="st4" width="10.1" height="12.1"/>
			
				<rect x="300.4" y="263.72" transform="matrix(0.9926 -0.1211 0.1211 0.9926 -31.8907 39.0669)" class="st5" width="10.1" height="36.33"/>
			
				<rect x="302.88" y="299.91" transform="matrix(0.9926 -0.1211 0.1211 0.9926 -34.3381 39.5175)" class="st4" width="10.1" height="4.69"/>
			<rect x="303.9" y="304.53" transform="matrix(0.9926 -0.1211 0.1211 0.9926 -35.3394 39.7019)" width="10.1" height="12.1"/>
			
				<rect x="310.41" y="262.5" transform="matrix(0.9926 -0.1211 0.1211 0.9926 -31.669 40.2706)" class="st4" width="10.1" height="36.33"/>
			<rect x="312.89" y="298.68" transform="matrix(0.9926 -0.1211 0.1211 0.9926 -34.1164 40.7213)" width="10.1" height="4.69"/>
			
				<rect x="313.91" y="303.31" transform="matrix(0.9926 -0.1211 0.1211 0.9926 -35.1177 40.9057)" class="st3" width="10.1" height="12.1"/>
		</g>
		<line class="st1" x1="250.66" y1="262.96" x2="226.23" y2="259.61"/>
	</g>
	<path class="st0" d="M438.71,270.79c0,0-7.69-22.1-16.02-23.39c-8.33-1.28-24.03,1.6-26.27,10.89c-2.24,9.29-4.16,62.79-3.2,78.81
		c0.96,16.02,2.88,45.17,0.64,50.94c-2.24,5.77-13.13,19.86-15.38,24.67c-2.24,4.81-5.77,9.93-4.49,10.57
		c1.28,0.64,9.93-1.92,21.14-15.38c11.21-13.46,21.46-16.02,24.03-19.86C421.73,384.19,438.71,270.79,438.71,270.79z"/>
	<path class="st6" d="M412.12,302.82c0,0,7.37,25.31,5.77,32.04s-0.96,24.99-1.6,33c-0.64,8.01-5.77,28.19-9.61,30.11
		c-3.84,1.92-2.49,1.39-2.49,1.39s6.98,2.45,26.84,2.45c19.86,0,42.93-5.77,58.95-2.88c16.02,2.88,42.93-2.88,44.53-3.84
		s6.41-22.75,5.13-45.17c-1.28-22.43,2.56-57.02,2.56-57.02s-21.78-1.28-33.64,0.96c-11.85,2.24-35.24-19.22-35.24-19.22
		l-16.34,9.29c0,0-1.6,7.69-1.6,10.89s0.32,8.33,0.32,8.33l-9.61-20.5L412.12,302.82z"/>
	<line class="st1" x1="403.15" y1="273.03" x2="409.88" y2="291.61"/>
	<polygon class="st7" points="565.4,389.41 472.84,392.64 385.78,395.55 386.1,404.29 474.78,409.15 477.37,401.38 566.04,400.09 	
		"/>
	<polygon class="st7" points="489.99,484.55 584.17,475.17 583.52,480.99 491.93,491.67 	"/>
	<path class="st0" d="M482.6,222.73c0,0-18.26,9.93-26.59,21.78s-24.03,27.87-33.96,34.92c-9.93,7.05-30.11,16.02-33.64,18.58
		c-3.52,2.56-7.69,11.21-6.09,15.7c1.6,4.49,11.21,15.06,11.21,15.06l-1.28-11.53c0,0,29.15-10.25,36.52-14.1
		c7.37-3.84,24.35-14.74,28.19-19.22c3.84-4.49,16.34-9.29,16.34-9.29s2.56,29.47,3.2,34.6c0.64,5.13,63.63-4.51,65.35-4.49
		c1.37,0.02,3.81-61.75-4.28-80.97c-4.97-11.83-8.86-15.78-16.55-16.1S483.56,222.41,482.6,222.73z"/>
	<path class="st1" d="M482.6,222.73c0,0,16.35,12.9,20.26,46c3.91,33.1,1.81,33.1,1.81,33.1"/>
	<path class="st7" d="M554.72,333.42c0,0,18.77-51.46,17.8-53.4c-0.97-1.94-9.71-2.59-9.71-2.59l-2.59,8.74
		c0,0-30.75,1.29-45.96,0.65c-15.21-0.65-39.48-2.91-39.48-2.91s0.3-10.13-1.47-9.27s-4.36-2.7-8.24,7.65s-74.11,225.9-74.11,225.9
		l13.27,1.29l63.76-200.65c0,0,32.36,4.53,49.19,3.88c16.83-0.65,34.63-0.32,34.63-0.32L494.2,475.82l11.33-0.32L554.72,333.42z"/>
	<polygon class="st7" points="460.86,321.12 503.58,529.86 496.78,534.39 491.61,532.45 453.1,338.68 	"/>
	<polygon class="st7" points="550.05,339.58 556.63,321.61 596.79,505.91 592.26,507.86 583.2,504.94 	"/>
	<path d="M476.16,138.54c0,0-13.34,4.57-18.35,15.91c-3.63,8.22-5.13,19.23-5.13,19.23s4.7,1.71,6.41,2.99
		c1.71,1.28,5.98,16.67,5.56,22.65c-0.43,5.98,7.27,22.65,11.97,26.93c4.7,4.27,9.83,4.27,9.83,4.27l-4.27-4.27
		c0,0,4.7,1.71,16.24,0.43c6.79-0.75,15.94-6.68,22.32-11.44c4.99-3.71,8.2-9.32,8.95-15.5c0.44-3.64,0.73-7.17,0.35-8.11
		c-0.85-2.14,1.71,12.82,1.71,12.82s5.56-8.12,1.28-20.09c-4.27-11.97-9.83-27.78-12.39-34.62c-2.56-6.84-12.38-19.44-20.85-20.36
		C484.92,127.79,476.16,138.54,476.16,138.54z"/>
</g>
</svg>
