<?xml version="1.0" encoding="utf-8"?>
<!-- Generator: Adobe Illustrator 23.0.2, SVG Export Plug-In . SVG Version: 6.00 Build 0)  -->
<svg version="1.1" xmlns="http://www.w3.org/2000/svg" xmlns:xlink="http://www.w3.org/1999/xlink" x="0px" y="0px"
	 viewBox="0 0 709.97 653.29" style="enable-background:new 0 0 709.97 653.29;" xml:space="preserve">
<style type="text/css">
	.st0{fill:#FFFFFF;}
	.st1{fill:none;stroke:#000000;stroke-width:2;stroke-linecap:round;stroke-linejoin:round;stroke-miterlimit:10;}
	.st2{fill:#45D62F;stroke:#000000;stroke-width:2;stroke-linecap:round;stroke-linejoin:round;}
	.st3{fill:#E72A8B;}
	.st4{fill:#FFFFFF;stroke:#000000;stroke-width:2;stroke-linecap:round;stroke-linejoin:round;stroke-miterlimit:10;}
	.st5{fill:none;stroke:#45D62F;stroke-width:2;stroke-linecap:round;stroke-linejoin:round;stroke-miterlimit:10;}
	.st6{fill:#808080;stroke:#231F20;stroke-width:2;stroke-linecap:round;stroke-linejoin:round;stroke-miterlimit:10;}
	.st7{fill:#FFEC00;stroke:#000000;stroke-width:2;stroke-linecap:round;stroke-linejoin:round;}
</style>
<path class="st0" d="M173.18,416.67c0,0,6.49-3.1,10.16-3.1s47.24-1.16,47.24-1.16l32.8,10.73c0,0,13.75-41.26,14.81-44.29
	s6.65-24.94,6.65-24.94l95.53,13.75l11.03,86.46c0,0,1.81,38.09,0.45,56.98c-1.36,18.89-10.13,64.54-10.13,64.54H147.96V451.13
	L173.18,416.67z"/>
<path class="st0" d="M289.11,151.1c-0.41,0.61-0.2,23.93,0.61,32.32c0.82,8.39,3.68,19.43,7.16,24.34
	c3.48,4.91,7.36,7.36,7.16,10.84c-0.2,3.48,1.23,11.66,10.02,17.39s29.66-14.32,29.66-14.32s9.41-21.68,10.02-27.82
	s1.43-21.89-1.43-28.23c-2.86-6.34-8.8-22.71-18.61-23.32C323.88,141.69,289.11,151.1,289.11,151.1z"/>
<path class="st1" d="M383.81,374.51c0,0,14.66,98.5,6.3,156.03c-4.05,27.86-8.5,44.85-8.5,44.85"/>
<path class="st2" d="M270.4,301.14c0,0-17.56,19.78-32.01,23.34c-14.45,3.56-23.79,4.67-23.79,4.67l33.34-86.03
	c0,0,16.67-12.45,22.67-14.45C276.62,226.67,270.4,301.14,270.4,301.14z"/>
<path class="st2" d="M358.18,227.19c0,0,3.42,3.96,11.7,6.66c8.28,2.7,20.71,6.12,27.55,16.21c6.84,10.08,14.59,34.03,14.59,46.1
	s2.52,61.04,2.34,69.14s0,31.51-1.62,39.25c-1.62,7.74-7.02,21.61-9.9,25.39s-7.92,10.44-8.82,14.41
	c-0.9,3.96-4.32,16.21-9.36,21.43c-5.04,5.22-17.65,11.52-17.65,11.52l-18.91,14.77c0,0,1.62-13.68-2.88-24.13
	s-9.54-15.67-9.54-15.67l8.46-3.78c0,0,0.54-9.72,6.12-17.29c5.58-7.56,12.78-12.96,16.57-20.89c3.78-7.92,7.02-37.63,7.02-37.63
	s-22.51,0-32.59-1.8c-10.08-1.8-32.23-2.16-41.95-5.58c-9.72-3.42-15.31-6.12-15.31-6.12s-0.18-9.72-4.5-16.57
	s-9.9-20.71-11.34-27.91c-1.44-7.2-4.68-42.67-6.12-54.2c-1.44-11.52-1.44-27.55,5.04-31.15c6.48-3.6,19.99-5.4,27.01-6.66
	c1.84-0.33,4.07,0.23,10.85,0.64c3.06,0.18,8.48,8.79,11.98,9.05c3.09,0.23,11.97-6.87,12.53-6.82
	C345.1,226.86,358.18,227.19,358.18,227.19z"/>
<path d="M305.11,129.76c0,0,5.69-17.69,30.93-15.23c16.44,1.6,31.8,14.29,29.26,40.18c-2,20.41-10.31,17.14-10.31,17.14
	L305.11,129.76z"/>
<path class="st3" d="M299.45,127.79c0,0,7.59-12.29,25.68-9.78c22.85,3.17,31.41,17.02,32.04,34.48
	C357.65,165.67,299.45,127.79,299.45,127.79z"/>
<path d="M335.12,170.21c-1.35-8.35,3.16-14.75-6.55-19.66c-10.04-5.07-13.75-0.04-26.7,4.92c-5.76,2.21-12.12,0.38-12.12,0.38
	s-8.46-9.12,1.43-22.92c18.01-25.13,76.36-0.29,70.81,37.27c-3.76,25.44,2.63,35.58,17,37.85c3.77,0.59-7.94,19-20.68,21.15
	c-21.26,3.58-22.54-7.32-22.54-7.32l5.19-23.69l3.32-1.66l7.71-7.32l0.68-8.68l-6.44-4.39l-6.67,4.71
	C339.55,180.86,336.38,178.02,335.12,170.21z"/>
<path class="st1" d="M339.49,181.85c0,0,2.71-5.96,8.08-5.09c5.37,0.87,6.78,9.13,3.53,13.86c-2.32,3.38-6.56,5.55-8.79,6.51
	c-0.92,0.4-1.57,1.22-1.74,2.2l-3.53,20.39c-1.14,6.58-8.33,12.64-15,12.93c-11.29,0.48-17.14-2.19-17.14-2.19
	s-1.62-19.82,0.22-19.37c12.43,2.98,19.17-2.59,19.15-3.01"/>
<path class="st1" d="M314.67,193.41c0,0-6.12,0.25-8.16,0.33c-1.65,0.07-6.6,0.27-6.6,0.27s1.23,6.64,7.86,6.44
	C314.29,200.25,314.67,193.41,314.67,193.41z"/>
<path class="st2" d="M294.51,168.6c0.01,0.17-0.8,3.74,2.96,3.8c3.31,0.05,3.14-3.81,3.14-3.81"/>
<g>
	<path class="st2" d="M317.54,168.75c0.16,0.05-0.81,3.95,2.95,4.01c3.31,0.05,3.01-3.28,3.01-3.28"/>
	<path class="st1" d="M313.95,171.59c0,0,4.06-7.19,13.42-0.18"/>
</g>
<path class="st1" d="M305.12,211.09c-5.71-1.66-9.8-4.21-13.62-16.43c-3.82-12.23-3.28-41.84-1.26-43.1"/>
<path d="M295.46,204.51c0,0-0.35,5.35-6.08,9.64c-3.79,2.84-11.13,2.92-11.13,2.92s2.75,6.69,12.35,10.59
	c6.17,2.5,14.15,0.52,14.15,0.52l-0.36-17.15L295.46,204.51z"/>
<path class="st1" d="M291.53,170.35c0,0,3.42-3.36,7.57-2.36c2.37,0.57,5.95,2.87,4.62,8.71c-0.94,4.14-2.86,8.98-2.86,8.98
	s5.3,2.07,8.14,0.58"/>
<polygon class="st2" points="304.85,218.53 317.04,232.19 292.38,251.68 295.21,225.9 "/>
<polygon class="st2" points="317.04,232.19 333.94,256.85 362.21,227.98 345.84,211.67 "/>
<path class="st1" d="M315.92,234.2c0,0-1.8,55.32,1.2,76.67c3.01,21.35,5.71,33.68,6.92,41.79c1.2,8.12,1.33,16.28,1.33,16.28"/>
<path class="st1" d="M344.14,448.49c0,0,14.35,0.51,20.09,10.19c5.75,9.68,2.77,18.62,2.77,18.62"/>
<path class="st1" d="M373.85,372.68c0,0,3.02-14.73,1.91-28.51c-1.11-13.78-6.08-49.06-6.08-56.84"/>
<path class="st1" d="M295.57,370.76l-9.06,7.66l6.85,14.63c0,0,16.02-3.95,27.17-1.86c11.15,2.09,29.72,9.87,29.72,9.87l12.77-10.45
	l-6.04-13.58c0,0-19.27,2.44-31.81-0.12C312.64,374.36,295.45,370.76,295.57,370.76z"/>
<circle class="st1" cx="353.09" cy="387.59" r="4.73"/>
<circle class="st1" cx="296.17" cy="381.2" r="4.73"/>
<polyline class="st4" points="137.19,231.54 156.99,199.56 216.38,204.51 265.5,243.35 148.61,467.6 "/>
<polyline class="st1" points="141.57,224.22 203.34,230.04 252.17,267.71 "/>
<path class="st1" d="M216.38,204.51c0,1.14-71.96,134.02-71.96,134.02"/>
<line class="st1" x1="234.08" y1="255.04" x2="147.2" y2="412.4"/>
<line class="st1" x1="174.14" y1="420.47" x2="205.96" y2="432.63"/>
<path class="st1" d="M159.64,446.3l60.86-16.85c0,0,7.65,9.68,21.11,16.68c11.84,6.15,50.65,8.5,50.65,8.5l-128.8,41.49l-15.66-6.5"
	/>
<polyline class="st1" points="280.36,459 293.18,463.34 292.99,469.18 166.51,507.26 150.68,501.04 "/>
<polyline class="st1" points="293.18,463.34 166.89,501.98 149.74,495.57 "/>
<polyline class="st1" points="176.75,414.42 181.83,413.76 230.37,412.65 327.91,446.19 326.36,461.86 343.57,467.82 343.57,500.48 
	149.61,569.54 "/>
<polyline class="st1" points="150.94,516.36 167.93,526.07 169.69,562.26 "/>
<line class="st1" x1="150.05" y1="531.15" x2="343.57" y2="467.82"/>
<polyline class="st1" points="325.48,506.43 325.04,474.22 294.59,464.73 "/>
<path class="st1" d="M335.67,452.27c0,0-0.68-8.55-2.27-9.3c-2.11-0.99-4.95-5.2-6.07-6.32c-1.11-1.11-4.71-0.42-5.33,1.61
	c-0.87,2.85,0,5.57,0,5.57"/>
<path class="st1" d="M348.24,486.77c0,0-4.04,2.53-4.04,2.3"/>
<path class="st1" d="M181.83,413.76c0.16-1.49,144.53,48.1,144.53,48.1"/>
<ellipse transform="matrix(0.065 -0.9979 0.9979 0.065 -175.6893 785.4807)" class="st1" cx="331.32" cy="486.5" rx="2.9" ry="2.1"/>
<ellipse transform="matrix(0.1515 -0.9885 0.9885 0.1515 -212.5757 732.7772)" class="st1" cx="320.52" cy="490.2" rx="2.9" ry="2.1"/>
<ellipse transform="matrix(0.1515 -0.9885 0.9885 0.1515 -382.7547 630.3003)" class="st1" cx="175.74" cy="538.09" rx="2.9" ry="2.1"/>
<ellipse transform="matrix(0.1515 -0.9885 0.9885 0.1515 -406.6624 615.6702)" class="st1" cx="155.27" cy="544.7" rx="2.9" ry="2.1"/>
<line class="st1" x1="327.91" y1="446.19" x2="292.63" y2="449.88"/>
<path class="st1" d="M278.22,444.7c0.11-0.34,25.86-1.91,25.86-1.91l-38.11-13.49c0,0-31.36,1.35-31.48,1.01"/>
<path class="st1" d="M305.68,513.96l35.02,14.88c2.73,1.17,4.49,3.86,4.49,6.82v5.57l-95.05,34.92"/>
<line class="st1" x1="343.88" y1="533.76" x2="231.46" y2="576.15"/>
<path class="st1" d="M284,359.17c0,0-5.3,20.71-12.25,38.91c-6.95,18.2-8.59,25.15-8.59,25.15"/>
<line class="st5" x1="296.4" y1="165.48" x2="171.07" y2="131.24"/>
<line class="st5" x1="322.85" y1="166.55" x2="197.83" y2="131.2"/>
<line class="st5" x1="287.11" y1="172.72" x2="208.77" y2="172.02"/>
<line class="st5" x1="324.02" y1="174.75" x2="246.05" y2="182.27"/>
<g>
	<circle cx="523.25" cy="71.27" r="2.4"/>
	<polygon points="522.49,71.31 515.33,81.55 520.7,83.42 523.38,71.98 	"/>
	<path class="st6" d="M461.46,89.9c0,0-52.44-1.94-58.06,2.5c-5.62,4.45,181.41,91.93,181.41,91.93s5.52-8.86-10.76-28.95
		c-16.28-20.09-29.25-31-29.25-31s-31.3-29.75-43.22-33.06C489.66,88.01,461.46,89.9,461.46,89.9z"/>
	<path class="st4" d="M462.56,90.08c0,0,21.04-22.09,53.72-11.59c32.67,10.5,29.88,46.92,29.88,46.92s-9.84-9.62-33.75-21.71
		C483.81,89.24,462.56,90.08,462.56,90.08z"/>
	<path class="st7" d="M585.61,184.96c-4.79,8.61-51.28-1.51-102.68-25.82c-51.42-24.32-86.77-54.25-82.21-64.72
		c3.93-9.03,52.45-1.63,103.51,23.4C558.73,144.54,591.35,174.66,585.61,184.96z"/>
	<path class="st4" d="M450.04,126.14c0,0,16.89-1.52,43.88,13c24.95,13.42,33.28,26.85,33.28,26.85s-11.93,2.61-20.24,2.41
		c-21.42-0.52-38.66-6.61-52.38-29.85C449.94,130.69,450.04,126.14,450.04,126.14z"/>
	<line class="st5" x1="455.51" y1="148.46" x2="385.19" y2="202.05"/>
	<line class="st5" x1="396.8" y1="233.97" x2="458.57" y2="156.38"/>
	<line class="st5" x1="487.69" y1="171.94" x2="458.97" y2="429.25"/>
	<line class="st5" x1="499.83" y1="171.07" x2="525.94" y2="328.41"/>
</g>
</svg>
