<?xml version="1.0" encoding="utf-8"?>
<!-- Generator: Adobe Illustrator 23.0.2, SVG Export Plug-In . SVG Version: 6.00 Build 0)  -->
<svg version="1.1" xmlns="http://www.w3.org/2000/svg" xmlns:xlink="http://www.w3.org/1999/xlink" x="0px" y="0px"
	 viewBox="0 0 709.97 653.29" style="enable-background:new 0 0 709.97 653.29;" xml:space="preserve">
<style type="text/css">
	.st0{fill:#FFFFFF;}
	.st1{fill:#FFFFFF;stroke:#000000;stroke-width:2;stroke-linecap:round;stroke-linejoin:round;stroke-miterlimit:10;}
	.st2{fill:#45D62F;stroke:#000000;stroke-width:2;stroke-linecap:round;stroke-linejoin:round;}
	.st3{fill:none;stroke:#000000;stroke-width:2;stroke-linecap:round;stroke-linejoin:round;}
	.st4{fill:#FFFFFF;stroke:#231F20;stroke-width:2;stroke-linecap:round;stroke-linejoin:round;stroke-miterlimit:10;}
	.st5{fill:#FFEC00;stroke:#000000;stroke-width:2;stroke-linecap:round;stroke-linejoin:round;}
	.st6{fill:none;stroke:#231F20;stroke-width:2;stroke-linecap:round;stroke-linejoin:round;stroke-miterlimit:10;}
	.st7{fill:none;stroke:#000000;stroke-width:2;stroke-linecap:round;stroke-linejoin:round;stroke-miterlimit:10;}
	.st8{fill:#4D4F51;stroke:#231F20;stroke-width:2;stroke-linecap:round;stroke-linejoin:round;stroke-miterlimit:10;}
	.st9{fill:#4D4F51;stroke:#231F20;stroke-width:2;stroke-miterlimit:10;}
	.st10{fill:none;stroke:#231F20;stroke-linecap:round;stroke-linejoin:round;stroke-miterlimit:10;}
	.st11{fill:#808080;}
	.st12{fill:#231F20;}
</style>
<path class="st0" d="M314.01,466.59c0,0,31.89-15.63,56.78-12.96c24.89,2.67,33.33,15.02,35.79,21.19
	c2.47,6.17,2.88,24.89-3.91,33.53c-6.79,8.64-18.78,10.33-28.75,10.82s-21.48,1.63-22.63,0.57c-1.14-1.06-2.86-2.78-2.86-2.78
	s-15.77,1.63-21.65,0.41c-5.88-1.23-14.95-1.47-14.95-1.47s-18.62,11.27-30.96,11.27s-27.45-1.47-35.29-5.15
	c-7.84-3.68-8.17-7.84-6.62-9.31c1.55-1.47,3.51-1.63,15.27,0.16c11.76,1.8,28.78-1.73,28.78-1.73l-8.43-4.56
	c0,0-26.88-0.65-32.68-4.98c-5.8-4.33-5.31-8.9-2.29-10.54c3.02-1.63,11.19,0.49,18.79,1.06c7.6,0.57,14.62,0.98,14.62,0.98
	L314.01,466.59z"/>
<path class="st1" d="M339.11,243.65c0,0,0.37,19.89-0.56,28.07c-0.93,8.18-0.19,28.07-0.37,29.93s-9.3,19.71-12.27,21.01
	c-2.97,1.3-8.92-3.35-10.22-18.4c-1.3-15.06-0.37-51.12-0.37-51.12L339.11,243.65z"/>
<path class="st1" d="M262.14,213.65c0,0,32.84,3.71,35.44,3.27c2.6-0.43,6.51-4.48,19.95,0.14c13.45,4.63,30.94,22.7,30.94,22.7
	s-8.96,13.01-16.63,18.36c-7.66,5.35-17.78,10.99-17.78,10.99l-76.19,19.37l-8.39-21.11c0,0-11.28-1.45-20.39-6.94
	s-17.64-6.22-17.78-6.8s4.26-13.39,12.92-22.7c6.1-6.55,12.07-8.95,18.43-11.12s10.06-2.27,15.45-3.43
	C248.69,214.1,262.14,213.65,262.14,213.65z"/>
<path class="st2" d="M236.92,268.73c0,0,20.21,2.75,40.94,0.22c20.73-2.53,40.71-9.61,40.71-9.61s-0.25,45.76-1.26,54.86
	c-1.01,9.1-2.16,15.06-1.73,23.61c0.43,8.55-0.86,11.76,4.49,17.96s6.84,10.26,6.84,13.47s0.21,5.77,0.21,5.77s19.45-1.28,41.9,0.21
	s36.34-0.64,44.89,9.19c8.55,9.83,4.92,31,2.14,35.49c-2.78,4.49-9.36,7.9-22.71,12.39c-25.03,8.42-63.73,13.49-63.73,13.49
	l-12.97-34.01c0,0-35.27,22.02-52.38,19.45c-17.1-2.57-33.14-12.19-36.34-16.67c-3.21-4.49-11.33-10.69-11.33-10.69l-5.13,3.63
	c0,0,2.14-10.9,1.71-12.19c-0.43-1.28-3.21-7.91-14.96-7.91c-11.76,0-20.06,6.93-20.06,6.93l0.39,6.84c0,0-6.42-3.07-7.06-8.42
	c-0.64-5.34,2.57-15.61,4.7-25.44s6.2-33.35,6.84-39.98c0.64-6.63,1.92-20.52,5.56-26.08c3.63-5.56,16.67-14.32,30.36-9.41
	c13.68,4.92,16.46,27.79,16.46,27.79L236.92,268.73z"/>
<path class="st3" d="M316.64,411.79c0,0,7.85-7.95,25.26-14.68s21.83-7.43,21.83-7.43"/>
<path class="st3" d="M216.59,403.88c0,0,4.8-4.45,5.03-7.7s-0.7-6.5-0.7-6.5s5.8-26.01,7.2-31.58c1.39-5.57,1.63-9.98,1.63-9.98"/>
<path class="st3" d="M327.12,375.02c0,0-2.34,1.78-10.23-2.54c-7.89-4.32-14.44-5.66-14.44-5.66"/>
<path class="st3" d="M220.81,389.22c0,0-5.44-9.89-16.14-12.29c-10.7-2.4-17.4-0.64-20.6,0.64"/>
<path class="st3" d="M363.91,389.27c0,0-11.98-1.45-21.04,0.37c-9.06,1.81-44.41,2.27-54.61,3.85c-10.2,1.59-19.71,0.91-25.83-4.99
	c-6.12-5.89-4.08-9.06-9.97-15.86c-5.89-6.8-12.46-20.62-14.05-26.74c0,0-2-19.24-3-26.25"/>
<path class="st4" d="M259.17,452.05c0,0,17.03-1.89,33.51-3.24c16.49-1.35,35.64-1.67,38.11-3.8c3.56-3.06,1.94-12.9-1.92-20.92
	c-3.86-8.02-9.97-14.2-9.97-14.2s-34.06,15.95-45.14,17.3s-17.84-0.54-17.84-0.54s-6.49,3.24-5.41,7.03
	C251.6,437.46,259.17,452.05,259.17,452.05z"/>
<path class="st5" d="M256.62,433.52c0.36,1.07,7.7,2.51,8.23,8.41c0.54,5.91-4.47,14.32-4.47,14.32s-12.89,0-17.9,0.89
	c-5.01,0.9-22.02,6.89-25.42,7.97s-10.04,7.7-14.52,4.84c-4.48-2.86-15.85-12.72-6.9-25.43c8.95-12.71,17.13-12.08,24.47-16.56
	s12.71-11.81,15.21-12.17c2.51-0.36,21.84,7.52,23.63,10.2S256.62,433.52,256.62,433.52z"/>
<path class="st6" d="M240.26,418.44c0,0-8.7,9.26-16.64,13.8c-7.94,4.54-14.93,8.13-17.01,10.21"/>
<path class="st6" d="M249.66,440.2c0,0,5.12,4.41,1.14,12.81"/>
<path class="st6" d="M242.4,441.34c0,0,5.12,4.41,1.14,12.81"/>
<path class="st6" d="M235.14,443.48c0,0,5.12,4.41,1.14,12.81"/>
<path class="st4" d="M212.73,396.19l-6.76,65.76l-22.29-1.79l-5.79-67c0,0,4.01-9.62,22.88-6.57
	C213.78,388.7,212.73,396.19,212.73,396.19z"/>
<path class="st5" d="M209.39,469.24c0,0-1-17.1-12.66-17.41c-11.66-0.31-14.27,5.71-15.02,11.08c-0.75,5.37-5.5,33.72-7.85,43.58
	c-2.36,9.87,0.37,23.53,12.63,26.03s18.37-3.84,21.56-21.13S209.39,469.24,209.39,469.24z"/>
<path class="st6" d="M201.21,473.53c0,0-6.66-6.45-14.75-1.63"/>
<path class="st6" d="M200.74,480.95c0,0-6.66-6.45-14.75-1.63"/>
<path class="st6" d="M199.95,489.02c0,0-6.66-6.45-14.75-1.63"/>
<path class="st6" d="M206.58,516.96c0,0-2.46,11.09-17.67,10.19s-15.54-14.96-15.54-14.96"/>
<path class="st2" d="M233.28,217.17c0,0,4.69,4.9,8.52,20.66s4.69,24.29,4.69,24.29l-11.93,2.13c0,0-2.13-18.32-5.33-28.33
	c-3.2-10.01-7.03-15.98-7.03-15.98L233.28,217.17z"/>
<path class="st2" d="M305.58,213.61c0,0,4.27,2.66,8.1,18.43c3.83,15.76,4.69,24.29,4.69,24.29l-11.93,2.13
	c0,0-2.13-18.32-5.33-28.33c-3.2-10.01-7.03-15.98-7.03-15.98L305.58,213.61z"/>
<path class="st3" d="M249.34,286.76c0,0,16.02,0.24,30.13-1.43c10.46-1.24,30.85-5.26,30.85-5.26s-0.24,30.37-1.67,36.59
	s-4.54,10.52-10.04,11.24c-5.5,0.72-45.4,3.15-48.55,0C245.75,323.59,249.34,286.76,249.34,286.76z"/>
<circle class="st1" cx="244.93" cy="276.11" r="3.74"/>
<circle class="st1" cx="312.25" cy="268.54" r="3.74"/>
<g>
	<path d="M304.31,154.45c0,0,17.84,15.51,9.45,31.83c-11.47,22.31-1.87,34.47-1.87,34.47s-4.76,4.94-18.89,3.91
		c-6.98-0.5-17.86-9.39-17.86-9.39s0.02-4.33,5.41-5.21c5.78-0.94,9.57-1.87,13.24-7.57C304.93,185.16,304.31,154.45,304.31,154.45z
		"/>
	<path class="st0" d="M263.96,181.98c0,0,0.82-17.63,10.27-21.83c9.46-4.2,28.02-0.93,29.42,8.64c1.4,9.57-3.26,25.8-6.07,31.29
		c-5.25,10.27-14.5,10.16-14.5,10.16s-0.33,7.12-2.31,8.99c-1.98,1.87-5.49,4.55-11.56,3.5c-6.07-1.05-9.57-3.39-10.04-6.77
		c-0.47-3.39,1.83-18.47,1.15-19.8c-0.68-1.33-7.34-4.71-6.28-10.2c1.05-5.49,2.66-6.99,5.65-7.05s4.16,2.74,4.16,2.74
		L263.96,181.98z"/>
	<path d="M265.22,174.09c1.47-5.58,8.62-9.43,14.05-7.5c2.13,0.76,4.48,1.97,6.95,3.86c9.88,7.57,24.07,4.09,24.07,4.09
		s3.98-9.05-1.81-22.06c-6.53-14.68-34.96-19.41-48.24-8.69c-14.19,11.45-11.64,21-24.55,31.02
		c-18.07,14.03-18.31,25.84-18.31,25.84s14.11,8.87,21.63,16.11c11.35,10.92,19.47-3.79,19.47-3.79l1.97-17.32c0,0-4.96-4-5.6-8.41
		c-1.01-6.96,2.47-8.21,3.97-8.29c1.53-0.08,4.92,3.66,4.92,3.66L265.22,174.09z"/>
	<path class="st7" d="M264.41,184.02c0,0-0.77-4.72-4.73-5.13s-6.52,5.15-5.13,9.11c0.99,2.83,3.57,5.16,4.96,6.27
		c0.57,0.45,0.87,1.16,0.81,1.88l-1.39,15.05c-0.45,4.86,2.65,9.36,7.36,10.61c1.2,0.32,2.52,0.58,3.95,0.74
		c1.02,0.11,2.07,0.14,3.09,0.12c4.68-0.12,8.6-3.59,9.45-8.2l0,0c0.25-1.36,1.69-3.46,0.31-3.29c-10.07,1.23-13.03-5.48-12.93-5.77
		"/>
	<path class="st7" d="M289.13,186.53c-0.19,2.23-0.19,6.69-0.19,6.69s-3.64,0.91-5.36-0.69"/>
	<path class="st7" d="M277.99,179.25c0,0,1.26,2.88,5.23,2.14"/>
	<path class="st7" d="M293.31,183.78c0,0,1.56,2.72,5.44,1.56"/>
	<path class="st7" d="M277.69,196.8l10.3,3.23c0,0-2.13,4.45-6.77,3.05C276.65,201.7,277.69,196.8,277.69,196.8z"/>
	<circle class="st7" cx="279.08" cy="179.96" r="8.18"/>
	<circle class="st7" cx="297.98" cy="184.65" r="8.18"/>
</g>
<path class="st1" d="M238.39,340.42c0,0,17.92,5.6,19.69,9.36c1.77,3.76,3.31,9.17,5.19,10.72c1.88,1.55,11.71,5.3,14.8,6.41
	c3.09,1.1,7.4-0.55,11.27-1.66c3.87-1.1,4.97-3.98,5.86-6.08c0.88-2.1,3.76-7.4,2.32-8.51s-3.65-0.55-4.97,1.22
	c-1.33,1.77-5.86,4.86-7.95,5.3s-7.18-4.09-9.94-7.29s-4.42-4.31-4.42-4.31l0.63-7.32c0,0,2.99,1.3,5.38,2.69
	c2.39,1.39,6.07,1.11,7.57-1.89c1.07-2.14-1.89-2.89-4.98-5.48c-3.09-2.59-6.68-6.18-9.17-7.47c-2.49-1.3-7.07,1.49-8.87,1.49
	c-1.79,0-9.93-2.36-9.93-2.36s-6.02-7.49-6.96-10.43c-0.94-2.94-3.75-15.78-5.62-22.6c-1.87-6.82-8.82-24.82-8.82-24.82
	l-31.04-11.56c0,0,6.96,29.29,9.9,34.51c0,0,19.23,0.06,24.04,19.06C234.51,317.8,238.39,340.42,238.39,340.42z"/>
<path class="st7" d="M263.61,353.97c0,0,10.83,11.38,14.47,12.93"/>
<path class="st8" d="M270.87,338.26c-0.04,0.93,2.42,7.54,7.02,14.72c4.6,7.17,13.9,14.57,13.9,14.57l-2.91-8.63
	c0,0,4.04,4.82,5.94,8.97c1.91,4.15,2.91,5.49,2.91,5.49s0.22-6.5-1.68-10.76c-1.91-4.26-13.96-21.23-13.96-21.23
	s-2.31,1.54-5.83-0.44C272.73,338.96,270.87,338.26,270.87,338.26z"/>
<g>
	<path class="st7" d="M545.94,448.76c0,0-0.5-94-36-146.5s-71-46-71-46"/>
	<path class="st7" d="M433.51,476.38c0,0,9.88-53.16,51.7-67.47s54.89,21.07,54.89,21.07"/>
	<path class="st2" d="M453.59,483.3c0,0-2.04,16.68-10.81,22.25c-6.79,4.31-16.39,3.55-21.75-1.89c-6.38-6.48-1.44-21.1-1.44-21.1
		L453.59,483.3z"/>
	<path class="st4" d="M407.73,477.38c0,0,12.96,3.67,20.46,22.13c3.08,7.59,1.36,16.5-2.7,24.73s-2.13,10.63,1.89,12.01
		c4.02,1.38,10.72-3.66,13.23-16.16c2.51-12.5,0.95-28.49-8.06-40.91c-6.9-9.52-21.72-16.67-37.02-17.95"/>
	<g>
		<polygon class="st4" points="416.13,480.39 416.01,494.06 421.72,488.75 		"/>
		<polygon class="st4" points="419.45,484.87 420.14,498.52 425.53,492.88 		"/>
		<polygon class="st4" points="423.7,489.69 425.62,503.23 430.47,497.12 		"/>
		<polygon class="st4" points="428.82,490.74 432.07,504.02 436.3,497.47 		"/>
		<polygon class="st4" points="434.2,490.06 438.52,503.03 442.2,496.16 		"/>
		<polygon class="st4" points="438.51,487.72 445.4,499.53 447.58,492.04 		"/>
		<polygon class="st4" points="442.28,484.54 451.78,494.36 452.12,486.57 		"/>
		<path class="st2" d="M418.79,464.42c0,0-8.59,21.19,6.09,31.09c14.69,9.89,28.71-12.2,28.71-12.2L418.79,464.42z"/>
		<path class="st6" d="M422.85,473.43c0,0-0.75,7.16,6.19,5.4"/>
		<path class="st6" d="M434.76,480.76c0,0,1.1,7.12,7.36,3.64"/>
	</g>
	<g>
		<path class="st2" d="M449.1,251.33c0.2,1.18,7.01,34.09,4.24,36.86c-2.77,2.77-10.28,5.08-12.01,5.31s-11.95-10.82-14.52-16.26
			S449.1,251.33,449.1,251.33z"/>
		<polygon class="st4" points="421.28,276.57 431.13,286.05 431.19,278.25 		"/>
		<polygon class="st4" points="426.81,277.23 437.83,286.71 436.81,278.31 		"/>
		<polygon class="st4" points="433.24,277.45 444.4,285.34 443.29,277.63 		"/>
		<polygon class="st4" points="437.52,274.45 449.41,281.19 447.54,273.62 		"/>
		<polygon class="st4" points="447.17,291.37 441.16,286.61 442.14,293.33 		"/>
		<polygon class="st4" points="452.66,288.63 446.89,284.19 447.87,290.9 		"/>
		<polygon class="st4" points="440.71,270.07 453.11,275.83 450.63,268.43 		"/>
		<polygon class="st4" points="441.96,265.33 455.28,268.41 451.33,261.69 		"/>
		<polygon class="st4" points="442.24,260.4 455.65,261.34 449.76,252.97 		"/>
		<path class="st2" d="M411.48,263.68c0,0,9.52,20.79,26.8,16.9c17.28-3.9,10.82-29.26,10.82-29.26L411.48,263.68z"/>
		<path class="st6" d="M420.82,266.92c0,0,4.7,5.46,8.18-0.8"/>
		<path class="st6" d="M434.33,263.28c0,0,5.93,4.08,7.7-2.86"/>
	</g>
	<path class="st6" d="M288.73,508.7c0,0-11.05,6.21-28.11,4.9c-13.31-1.02-19.35-4.74-21.86-1.21c-2.5,3.52,1.05,8.35,14.32,11.63
		c10.67,2.63,21.08,4.78,35.81,0.9c12.24-3.22,22.11-9.32,22.11-9.32s25.67,3.21,37.23,1.37"/>
	<path class="st6" d="M369.31,483.99c-0.49,0.37-7.24,0.58-7.68,10.58c-0.44,10,3.59,15.52,3.59,15.52s-15.63,1.57-16.2,6.5
		c-0.56,4.93,11.71,3.24,25.88,2.55c15.64-0.76,21.1-3.28,26.67-8.97c2.74-2.79,11.01-19.07,5.12-33.44
		c-5.89-14.37-18.87-22.17-37.18-23.2c-25.12-1.41-49.3,10.24-52.28,11.42c-2.98,1.18-31.65,27.19-41.41,27.92
		c-9.76,0.73-25.74-1.88-30.34-2.65c-7.93-1.32-9.56,5.6-7.72,8.2c1.84,2.6,12.32,8.95,36.65,7.98l8.06,4.45"/>
	<path class="st6" d="M330.76,460.17c0,0,15.5,6.37,17.42,20.35"/>
	<path class="st6" d="M341.67,456.43c0,0,14.38,5.78,16.29,19.76"/>
	<path class="st6" d="M352.78,455c0,0,12.73,4.24,14.65,18.22"/>
	<g>
		<path class="st9" d="M288.2,459.25c1.34,0.27,2.41-1.11,1.85-2.35c-2.33-5.13-6.94-14.26-10.55-14.99
			c-5.04-1.03-5.28,12.7-5.28,12.7s0.62,5.15,6.94,4.42C284.08,458.67,286.46,458.89,288.2,459.25z"/>
		<path class="st10" d="M274.95,455.82c0,0-1.94-12.57,3.53-14.1c5.47-1.53,11.57,15.18,11.57,15.18"/>
		<path class="st4" d="M266.79,475.02c0.37-3.97,3.59-27.08,28.39-24.69c19.63,1.89,25.87,16.78,25.97,28.22
			c0.07,7.59-2.87,12.04-7.35,14.91c-9.53,6.1-18.91,6.79-29.05,4.9C274.5,496.44,265.43,489.73,266.79,475.02z"/>
		<path class="st11" d="M273.8,458.78c0,0,1.01,6.19,10.4,7.77s13.72,0.66,20.35,6.23c10.36,8.71,15.63,3.84,15.63,3.84
			s-0.32-18.58-18.45-24.19c-10.98-3.4-18.55-0.2-20.38,0.62C276.41,455.28,273.8,458.78,273.8,458.78z"/>
		<path class="st12" d="M282.56,482.05l2.77-2.49c0.57-0.54,0.29-1.49-0.47-1.65l-3.02-0.62c-0.83-0.17-1.47,0.74-1.02,1.46
			L282.56,482.05z"/>
		<path class="st6" d="M304.76,478.47c0,0-7.49-2.37-11.64,0.25"/>
		<path class="st6" d="M299.44,482.67c0,0-3.39-1.71-7.11-0.42"/>
		<path class="st6" d="M264.28,470.38c0,0,7.51,0.88,11.51,5.18"/>
		<path class="st6" d="M268.6,475.95c0,0,3.69,0.2,6.7,2.57"/>
		<path class="st6" d="M295.84,455.95c0,0-3.51,1.83-4.72,5.72"/>
		<path class="st6" d="M290.97,454.59c0,0-3.17,2.38-3.74,6.41"/>
		<path class="st6" d="M285.63,453.6c0,0-2.81,2.79-2.81,6.87"/>
		<path class="st9" d="M311.46,468.1c1.04,0.88,2.65,0.17,2.75-1.19c0.39-5.62,0.69-15.84-2.13-18.21
			c-3.94-3.3-10.69,8.65-10.69,8.65s-1.91,4.83,3.99,7.19C308.12,465.63,310.1,466.96,311.46,468.1z"/>
		<path class="st6" d="M301.45,458.77c0,0,4.28-11.98,9.82-10.72c5.54,1.26,2.94,18.85,2.94,18.85"/>
		<path class="st6" d="M309.41,453.81c0,0,1.61,3.42,0.9,8.1"/>
		<path class="st6" d="M292.94,471.68c0,0-1.52-3.21-4.13-1.09"/>
		<path class="st6" d="M281.91,468.88c0,0-1.54-2.98-4.03-1.04"/>
		<circle class="st12" cx="289.82" cy="475.6" r="1.53"/>
		<circle class="st12" cx="279.2" cy="472.84" r="1.53"/>
		<circle class="st6" cx="282.21" cy="486.6" r="3.11"/>
	</g>
	<path class="st6" d="M311,515.6c0,0,7.78-4,11.14-11.54"/>
	<path class="st1" d="M550.26,479.34h-36.02c-8.04,0-14.55-6.51-14.55-14.55v-29.91c0-8.04,6.51-14.55,14.55-14.55h36.02
		c8.04,0,14.55,6.51,14.55,14.55v29.91C564.81,472.82,558.29,479.34,550.26,479.34z"/>
	<path class="st7" d="M423.9,286.52c0,0-4.17,30.19,0.96,29.86C430,316.06,423.9,286.52,423.9,286.52z"/>
	<path class="st7" d="M441.56,301.61c0,0-3.53,47.53,1.61,47.21C448.3,348.49,441.56,301.61,441.56,301.61z"/>
	<path class="st7" d="M463.42,313.9c0,0,17.89,25.37,42.31,41.16c20.13,13.02,33.81,50.41,33.21,68.84
		c-0.59,18.43,2.97-24.97-16.65-30.92c-19.62-5.95-36.87-13.68-47.57-31.52C464.02,343.64,463.42,313.9,463.42,313.9z"/>
	<path class="st7" d="M476.29,344.3c0,0,5.39,12.93,27.65,27.29c22.26,14.36,27.29,21.54,32.31,35.91"/>
	<path class="st1" d="M562.92,437.04h-60.86c-3.42,0-6.19-2.77-6.19-6.19v-7.32c0-3.42,2.77-6.19,6.19-6.19h60.86
		c3.42,0,6.19,2.77,6.19,6.19v7.32C569.11,434.27,566.34,437.04,562.92,437.04z"/>
	<path class="st7" d="M504.69,254.08c0,0,3.86,12.1,6.18,25.99c2.32,13.88,6.75,24.61,10.15,36.68c3.39,12.07,6.73,21.72,6.73,21.72
		s5.07-27.97,1.78-48.07C526.24,270.28,504.69,254.08,504.69,254.08z"/>
	<path class="st7" d="M518.93,281.98c0,0,5.34,47.53,8.14,56.01"/>
</g>
<path class="st0" d="M336.22,290.28c0,0-0.78-3.88-2.23-3.49s-1.74,2.71-4.07,4.65c-2.33,1.94-6.11,4.65-7.75,7.85
	c-1.65,3.2-3.3,5.91-2.91,9.98c0.39,4.07-0.97,8.24-1.84,10.95c-0.87,2.71-4.26,6.49-2.33,10.66c1.94,4.17,5.52,8.82,9.01,9.6
	c3.49,0.78,9.5-3.2,11.53-6.11c2.04-2.91,4.94-5.91,5.23-9.01c0.29-3.1,0.78-6.49,0.78-6.49s2.71-0.87,4.07-3.1
	c1.36-2.23,2.13-5.62,2.23-6.4c0.1-0.78,2.04-1.65,2.33-3.97s-2.62-3.88-2.62-3.88s1.94-2.33,1.45-4.17
	c-0.48-1.84-4.46-2.91-4.46-2.91s4.09-1.08,4.77-3.7c0.68-2.62,0.56-5.32-1.47-5.32c-2.04,0-3.59-0.1-5.43,0.97
	C340.67,287.47,336.22,290.28,336.22,290.28z"/>
<path class="st7" d="M341,318.46c0,0-0.31,9.07-3.68,13.5c-3.37,4.43-8.66,9.14-12.7,8.76c-4.04-0.38-9.53-5.97-10.1-11.16
	c-0.58-5.2,4.14-11.74,4.91-13.28c0.77-1.54-0.48-7.41,0.19-12.41c0.67-5,3.66-7.02,6.45-9.05c2.79-2.02,4.52-4.43,5.1-5.87
	c0.58-1.44,1.25-2.41,2.69-2.02c1.44,0.38,1.83,3.18,1.83,3.18"/>
<path class="st1" d="M344.14,285.65c0,0-6.76,3.14-8.38,6.28c-1.1,2.13-0.67,4.09,2,3.62c2.67-0.48,9.52-2.19,11.14-4.38
	c1.62-2.19,0.95-4.57-0.29-5.14C347.38,285.45,344.14,285.65,344.14,285.65z"/>
<path class="st1" d="M343.28,294.98c0,0-10.66,4.19-12.28,7.33c-1.1,2.13,0.19,4.95,2.86,4.47c2.67-0.48,12.57-4.09,14.19-6.28
	c1.62-2.19,0.95-4.57-0.29-5.14C346.52,294.79,343.28,294.98,343.28,294.98z"/>
<path class="st1" d="M331,306.02c0,0-2.67,0.86-2.86,2.76s0.95,3.14,3.71,3.05c2.76-0.1,13.14-1.62,15.61-2.67s3.24-5.81,2-6.47
	c-1.24-0.67-3.24-0.95-3.24-0.95s-6.57,3.43-9.71,4.28c-3.14,0.86-4.47,0.95-4.67,0.48C331.67,306.02,331,306.02,331,306.02z"/>
<path class="st7" d="M329.19,311.45c0,0-1.81,0.67-1.62,2.48c0.19,1.81,2.48,2.38,6.38,2.86"/>
<path class="st7" d="M347.47,309.16c0,0,0.29,2.86-0.86,4.86c-1.14,2-2,2.95-4.67,3.81c-2.67,0.86-4.38,2.09-5.14,2.86"/>
<path class="st7" d="M277.89,383.12c0,0,21.53-50.89,71.54-108.47c21.36-24.59,28.37-39.66,28.37-39.66"/>
<g>
	<path class="st1" d="M380.75,213.74c0,0-12.56-3.78-17.12-5.14c-4.56-1.36-12.25,1.78-10.62,7.19
		C354.64,221.18,380.75,213.74,380.75,213.74z"/>
	<path class="st1" d="M391.55,216.15c0,0,13.02,1.61,17.74,2.2c4.72,0.6,10.49,6.58,6.82,10.86
		C412.43,233.5,391.55,216.15,391.55,216.15z"/>
	<path class="st1" d="M369.94,218.49c0,0-20.41,6.15-16.59,14.54c3.82,8.39,13.25-0.89,16.79-4.93s3.76-6.19,3.76-6.19
		L369.94,218.49z"/>
	<path class="st1" d="M375.1,222.6c0,0-15.28,14.86-8.03,20.55s11.35-6.89,12.63-12.11c1.27-5.21,0.48-7.23,0.48-7.23L375.1,222.6z"
		/>
	<path class="st1" d="M381.66,225.14c0,0-7.13,20.09,1.89,21.98s7.13-11.21,5.97-16.45c-1.16-5.24-2.77-6.69-2.77-6.69
		L381.66,225.14z"/>
	<path class="st1" d="M389.53,225.93c0,0,1.35,21.27,10.39,19.46s2.14-13.11-0.99-17.47s-5.18-5.07-5.18-5.07L389.53,225.93z"/>
	<path class="st1" d="M394.99,225.3c0,0,9.99,18.83,17.48,13.45s-3.45-12.83-8.1-15.51c-4.65-2.68-6.8-2.48-6.8-2.48L394.99,225.3z"
		/>
	<path class="st1" d="M370.41,221.48c0,0-18.31,10.91-21.92,2.43c-3.61-8.48,9.6-9.18,14.97-9.06c5.37,0.12,7.11,1.41,7.11,1.41
		L370.41,221.48z"/>
	
		<ellipse transform="matrix(0.1511 -0.9885 0.9885 0.1511 107.0108 566.5089)" class="st5" cx="383.35" cy="220.95" rx="8.86" ry="20.09"/>
	<line class="st7" x1="375.95" y1="215.18" x2="379.03" y2="219.62"/>
	<line class="st7" x1="375.27" y1="218.94" x2="379.7" y2="215.86"/>
	<line class="st7" x1="387.69" y1="216.98" x2="390.77" y2="221.41"/>
	<line class="st7" x1="387.01" y1="220.73" x2="391.44" y2="217.66"/>
	<line class="st7" x1="375.11" y1="223.58" x2="391.04" y2="226.02"/>
</g>
</svg>
