<?xml version="1.0" encoding="utf-8"?>
<!-- Generator: Adobe Illustrator 23.0.2, SVG Export Plug-In . SVG Version: 6.00 Build 0)  -->
<svg version="1.1" xmlns="http://www.w3.org/2000/svg" xmlns:xlink="http://www.w3.org/1999/xlink" x="0px" y="0px"
	 viewBox="0 0 709.97 653.29" style="enable-background:new 0 0 709.97 653.29;" xml:space="preserve">
<style type="text/css">
	.st0{fill:#FFFFFF;stroke:#000000;stroke-width:2;stroke-linecap:round;stroke-linejoin:round;stroke-miterlimit:10;}
	.st1{fill:none;stroke:#000000;stroke-width:2;stroke-linecap:round;stroke-linejoin:round;stroke-miterlimit:10;}
	.st2{fill:#E72A8B;}
	.st3{fill:#FFEC00;}
	.st4{fill:#808080;stroke:#231F20;stroke-width:2;stroke-linecap:round;stroke-linejoin:round;stroke-miterlimit:10;}
	.st5{fill:#45D62F;stroke:#000000;stroke-width:2;stroke-linecap:round;stroke-linejoin:round;}
</style>
<g>
	<path class="st0" d="M464.58,246.97H234.55c-12.86,0-23.28,10.42-23.28,23.28v46.52h276.59v-46.52
		C487.86,257.4,477.44,246.97,464.58,246.97z"/>
	<line class="st1" x1="343.03" y1="388.54" x2="343.03" y2="597.41"/>
	<polygon class="st0" points="211.27,316.77 178.55,333.35 510.81,333.35 487.86,316.77 	"/>
	<rect x="178.94" y="333.35" class="st0" width="332.26" height="9.1"/>
	<rect x="178.94" y="342.19" class="st0" width="332.26" height="289.15"/>
	<circle class="st1" cx="214.12" cy="362.85" r="6.92"/>
	<line class="st1" x1="214.12" y1="359.36" x2="214.12" y2="366.76"/>
	<circle class="st1" cx="239.46" cy="362.85" r="6.92"/>
	<line class="st1" x1="239.46" y1="359.36" x2="239.46" y2="366.76"/>
	<circle class="st1" cx="262.93" cy="362.85" r="6.92"/>
	<line class="st1" x1="262.93" y1="359.36" x2="262.93" y2="366.76"/>
	<line class="st1" x1="189.37" y1="343.6" x2="189.37" y2="631.22"/>
	<line class="st1" x1="497.54" y1="343.6" x2="497.54" y2="631.22"/>
	<line class="st1" x1="190.23" y1="388.97" x2="497.11" y2="388.97"/>
	<line class="st1" x1="190.23" y1="597.84" x2="497.11" y2="597.84"/>
	<line class="st1" x1="190.23" y1="521.65" x2="497.11" y2="521.65"/>
	<rect x="207.1" y="404.78" class="st1" width="115.74" height="5.61"/>
	<rect x="207.1" y="537.1" class="st1" width="115.74" height="5.61"/>
	<rect x="363.21" y="404.78" class="st1" width="115.74" height="5.61"/>
	<rect x="363.21" y="537.1" class="st1" width="115.74" height="5.61"/>
	<path class="st1" d="M455.23,611.74H233.21c-10.66,0-19.31,8.64-19.31,19.31l0,0h260.63l0,0
		C474.54,620.39,465.89,611.74,455.23,611.74z"/>
	<path class="st0" d="M288.74,328.38c0,0-9.6,3.81-26.48,3.81c-15.06,0-28.79-3.81-28.79-3.81v-34.45h55.27V328.38z"/>
	<ellipse class="st0" cx="260.75" cy="294.46" rx="27.49" ry="3.64"/>
	<path class="st1" d="M232.81,302.4c0,0-8.77-0.5-8.94,2.32c-0.17,2.81,13.4,5.46,13.4,5.46"/>
	<path class="st1" d="M288.65,302.4c0,0,8.77-0.5,8.94,2.32c0.17,2.81-13.4,5.46-13.4,5.46"/>
	<path class="st2" d="M238.44,295.63c0,0-5.62-9.52-3.58-15.86c2.05-6.35,3.28-10.65,3.69-15.36c0.18-2.01-0.02-5.11-0.31-8
		c-0.12-1.21,1.53-1.69,2.07-0.59c0.57,1.16,1.22,2.4,1.93,3.68c3.07,5.53,4.1,10.24,4.1,10.24s5.32-15.77,1.84-23.96
		s-8.4-15.77-9.22-23.55c-0.46-4.33,0.67-14.94,1.77-23.5c0.24-1.86,2.91-1.92,3.22-0.07c1.05,6.21,2.76,13.42,5.46,18.24
		c3.11,5.55,11.06,13.72,11.06,13.72s-0.82-6.96-0.41-11.06c0.07-0.74,0.18-1.61,0.31-2.54c0.24-1.75,2.68-1.92,3.18-0.23
		c0.83,2.83,2.06,5.82,3.91,8.25c5.12,6.76,5.5,12.33,4.68,17.04c-0.82,4.71,4.3,8.6,5.12,14.34s-4.1,10.44-0.2,14.54
		c3.89,4.1,9.2,6.61,9,9.27c-0.2,2.66,1.15-4.95-2.64-8.91c-5.18-5.4,0.4-10.19,0.4-10.19s0.26,7.06,7.17,12.08
		c4.24,3.09,1.23,12.08,0.2,14.95s-7.99,6.35-7.99,6.35s-15.46,2.86-20.68,2.92C252.96,297.54,238.44,295.63,238.44,295.63z"/>
	<path class="st3" d="M256.06,292.1c0,0-4.45-8.34-4.73-11.96c-0.28-3.62,0.56-9.46,0.56-9.46l3.34,6.95c0,0,1.39-3.89,2.78-12.24
		c1.39-8.34,2.5-11.4,2.5-16.41s-5.84-13.35-5.84-13.35s7.79,5.28,10.57,14.46s3.06,16.13,2.22,22.8
		c-0.83,6.67,0.64,21.48,0.64,21.48L256.06,292.1z"/>
	<ellipse class="st0" cx="272.01" cy="292.47" rx="28.05" ry="4.14"/>
	<path class="st1" d="M268.65,291.81c0,0-0.83-6.78,2.81-6.78s3.97,6.45,3.97,6.45"/>
</g>
<path class="st4" d="M298.57,497.34c0,0-1.37,3.82,8.96,7.98c10.32,4.15,17.68,6.17,17.68,6.17l1.54-16.61
	c0,0-11.87-7.71-16.73-5.93C305.15,490.72,298.57,497.34,298.57,497.34z"/>
<path class="st0" d="M323.78,494.99c0,0,0.95,14-1.31,25.16c-2.25,11.15-9.37,28.36-10.21,30.26c-0.83,1.9-0.36,4.98,2.49,4.75
	s12.1-3.32,17.68-12.22c5.58-8.9,8.9-18.63,12.93-26.22c4.03-7.59,8.78-13.29,9.61-15.31c0.83-2.02-0.12-5.7-0.12-5.7L323.78,494.99
	z"/>
<path class="st5" d="M364.13,534.62l-2.97-35.01c0,0-7.59,1.19-9.43,3.7c-0.87,1.2-2.78,4.74-4.89,9.01
	c-1.33-0.87-3.97-2.21-9.06-3.7c-8.9-2.61-16.26-1.78-16.26-1.78l-0.59,15.9c0,0,5.81-0.36,11.39,0.83c3.2,0.68,6.19,1.87,8.18,2.76
	c-0.08,0.19-0.15,0.38-0.23,0.57c-2.09,5.34-6.2,11.94-10.12,17.04c-0.77-1.97-2.03-4.14-4.12-5.41c-4.51-2.73-8.9-2.85-8.9-2.85
	l-3.32,10.32c0,0,5.1,0.47,7.71,2.97c0.75,0.72,1.35,1.47,1.83,2.19c-4.95,3.25-13.1,2.32-13.1,2.32s1.34,9.67,1.34,10.02
	c0,0.36,4.83,0.66,10.52-1.36s13.65-6.41,16.73-10.09s3.7-12.29,5.24-17.87s4.84-19.27,5.67-19.39s-0.36,22.9-0.36,22.9
	L364.13,534.62z"/>
<path class="st4" d="M352.57,496.14c0,0-1.37,3.82,8.96,7.98c10.32,4.15,17.68,6.17,17.68,6.17l1.54-16.61
	c0,0-11.87-7.71-16.73-5.93C359.16,489.52,352.57,496.14,352.57,496.14z"/>
<path class="st0" d="M377.79,493.8c0,0,0.95,14-1.31,25.16c-2.25,11.15-9.37,28.36-10.21,30.26s-0.36,4.98,2.49,4.75
	s12.1-3.32,17.68-12.22c5.58-8.9,8.9-18.63,12.93-26.22c4.03-7.59,8.78-13.29,9.61-15.31c0.83-2.02-0.12-5.7-0.12-5.7L377.79,493.8z
	"/>
<path class="st5" d="M418.13,533.43l-2.97-35.01c0,0-7.59,1.19-9.43,3.7c-0.87,1.2-2.78,4.74-4.89,9.01
	c-1.33-0.87-3.97-2.21-9.06-3.7c-8.9-2.61-16.26-1.78-16.26-1.78l-0.59,15.9c0,0,5.81-0.36,11.39,0.83c3.2,0.68,6.19,1.87,8.18,2.76
	c-0.08,0.19-0.15,0.38-0.23,0.57c-2.09,5.34-6.2,11.94-10.12,17.04c-0.77-1.97-2.03-4.14-4.12-5.41c-4.51-2.73-8.9-2.85-8.9-2.85
	l-3.32,10.32c0,0,5.1,0.47,7.71,2.97c0.75,0.72,1.35,1.47,1.83,2.19c-4.95,3.25-13.1,2.32-13.1,2.32s1.34,9.67,1.34,10.02
	c0,0.36,4.83,0.66,10.52-1.36s13.65-6.41,16.73-10.09s3.7-12.29,5.24-17.87s4.84-19.27,5.67-19.39s-0.36,22.9-0.36,22.9
	L418.13,533.43z"/>
<path class="st4" d="M466.92,254.77l-29.51,1.7c-0.1-2.78-0.17-4.58-0.17-4.58s-51.84-1.11-54.05,1.55
	c-2.21,2.66-3.32,11.3-3.32,11.3s1.11,14.84,0,17.72c-1.11,2.88-7.31,7.53-13.07,11.52s-32.94,28.42-38.7,39.5
	s-8.04,23.64-10.92,44.46c-2.88,20.82-9.3,74.43-11.74,85.73c-2.44,11.3-6.87,33.67-6.87,33.67s3.32-4.65,14.4-1.99
	s29.24,7.09,38.77,7.97c9.53,0.89,13.96-1.11,13.96-1.11s0.12-2.65,0.32-7.03c4.98,0.6,16.35,2.91,27.59,4.81
	c14.4,2.44,32-7.02,32-7.02s-3.98-24.57-6.19-38.08s-6.33-66.25-5.88-69.35c0.44-3.1,29.47-23.55,38.78-31.53
	c9.3-7.97,15.95-25.03,17.94-42.31C472.24,294.42,466.92,254.77,466.92,254.77z"/>
<path d="M415.78,76.32c0,0,4.72-19.74,28.29-13.09c15.95,4.51,24.44,15.72,18.8,40.51c-5.65,24.79-8.46,29.72-6.98,35.62
	c1.47,5.89,8.1,8.51,8.1,8.51s-9.34,7.47-27.38,5.09c-8.98-1.19-21.48-7.36-25.04-7.86c-3.56-0.49-14.61-1.1-18.9-5.4
	c-4.3-4.3-4.05-8.47-4.05-8.47s7,0,8.59-8.1s-1.96-29.58,5.52-35.72S415.78,76.32,415.78,76.32z"/>
<path class="st0" d="M437.84,119.48c0,0-1.93,10.56-2.18,16.2s0.57,12.13,3.52,13.6c2.95,1.47,2.33,1.23-1.23,9.57
	c-3.56,8.35-11.64,33.87-17.66,34.24c-6.01,0.37-17.08-39.64-17.2-40.01c-0.12-0.37,5.4-2.7,6.51-10.19
	c1.1-7.49,2.09-18.41,2.09-18.41L437.84,119.48z"/>
<path class="st0" d="M441.76,118.72c0,0,5.16-2.21,4.91-5.16c-0.25-2.95-3.68-2.58-3.68-2.58s3.68-7.98,3.93-13.99
	s-8.1-15.71-14.85-15.47s-18.66,0.74-20.99,7c-2.33,6.26-3.81,21.59-2.7,30.93c0.86,7.24,2.7,11.66,8.71,13.26
	c6.01,1.6,12.48-2.58,12.48-2.58"/>
<path class="st1" d="M411.3,92.46c0.15-0.3,7.92-1.68,10.43,3.27c2.51,4.95,0.99,10.05-0.84,12.41c-1.83,2.36-2.36,3.2-2.36,3.2
	s1.75,1.83,4.87,2.74"/>
<path class="st1" d="M412.84,97.04c0,0,5.72-0.57,7.28,2.91"/>
<path class="st1" d="M431.56,104.68c0,0,4.68-2.5,7.64,2.18"/>
<path class="st1" d="M414.45,97.25c0,0,0.26,2.81,2.13,3.54c1.87,0.73,2.86-1.82,2.86-1.82"/>
<path class="st1" d="M433.33,104.06c0,0-0.52,2.44,1.56,3.59s2.7-2.03,2.7-2.03"/>
<path class="st1" d="M432.08,99.74c0,0,6.03-1.09,8.42,3.17"/>
<path class="st1" d="M415.28,117.63c0.16-0.1,8.27,2.65,8.27,2.65s-2.76,3.02-5.77,2.6C414.76,122.47,415.28,117.63,415.28,117.63z"
	/>
<path d="M420.21,73.43c0,0-10.52-0.09-14.82,7.89s-2.17,13.95-2.17,13.95s4.91-8.59,12.27-5.4c7.36,3.19,14.36,7.49,20.87,4.54
	c6.51-2.95,7.49-5.16,7.49-5.16s-6.51-7.86-12.76-11.78C424.82,73.55,420.21,73.43,420.21,73.43z"/>
<path class="st2" d="M445.25,101.79c0,0,3.97-6.22,3.72-11.07c-0.27-5.36-2.38-10.99-9.99-14.8c-7.61-3.8-15.88-1.01-15.76-1.38
	c0.12-0.37,13.04,3.77,17.58,10.64C445.34,92.05,445.25,101.79,445.25,101.79z"/>
<g>
	<path class="st5" d="M387.14,158.08c0,0-22.53,6.08-25.23,10.59c-2.7,4.51-12.54,50-13.29,58.57c-0.65,7.44-1.53,13.16-1.52,22.04
		c0.01,5.9-0.28,11.3,2.42,15.81c2.7,4.51,4.81,4.9,9.24,4.73c6.64-0.26,18.92-1.58,18.92-1.58s9.98-5.6,10.55-8.2
		c0.58-2.6,5.78-3.9,7.8-3.32c2.02,0.58,27.72-1.44,32.2-1.44s24.4,1.01,24.4,1.01s19.78,16.03,30.47,15.02
		c10.68-1.01,10.4-14.15,10.83-16.6c0.43-2.45,0.72-11.41,0.58-14.29c-0.14-2.89-2.31-11.98-2.31-18.48c0-6.5-7.65-39.13-8.95-45.34
		c-1.3-6.21-1.73-8.52-3.32-9.24c-1.59-0.72-17.33-10.54-26.42-9.82c-4.07,0.32-32.49,39.53-33.35,37.52
		C405.47,160.8,387.14,158.08,387.14,158.08z"/>
	<path class="st0" d="M394.23,244.47c0,0-4.58-4.68-7.56-2.66c-2.98,2.02-4.68,4.26-5.21,5.32c-0.1,0.2-0.3,0.37-0.57,0.51
		c-1.99,1.08-3.28,3.11-3.1,5.37l0.03,0.31c0.24,2.92,2.74,5.17,5.67,5.02c1.56-0.08,3.23-0.09,4.68,0.06
		c4.04,0.43,16.92,5,20.54,5.21s8.19-2.13,11.07-3.72c2.87-1.6,6.81-2.34,8.94-3.09c2.13-0.74,2.55-2.55,2.55-2.55
		s1.81-0.96,1.7-2.34c-0.11-1.38-3.72-3.3-3.72-3.3s-20.22,3.94-23.52,3.19C402.43,251.07,394.23,244.47,394.23,244.47z"/>
	<path class="st0" d="M392.32,247.77c0,0,11.28,4.68,12.34,5.64c1.06,0.96,2.02,1.49,2.02,1.49l21.18-2.23l0.96-1.7
		c0,0,10.35-7.47,10.66-8.04C439.78,242.34,392.32,247.77,392.32,247.77z"/>
	<path class="st1" d="M382.64,245.06c0,0-6.88-1.72-13.18-1.04c-3.61,0.39-9.24,1.01-9.24,1.01"/>
	<path class="st1" d="M457.56,223.91c0,0,4.46,4.95,8.22,6.68c3.75,1.73,9.1,1.59,15.02,5.34c5.92,3.75,6.79,5.78,6.79,5.78"/>
	<path class="st1" d="M443.63,238.01c0,0,0.04,3.33,2.65,8.18c3.03,5.63,7.8,10.68,7.8,10.68"/>
	<path class="st0" d="M432.4,223.73c0,0-3.45,1.03-8.67,1.3c-5.22,0.28-12.3-0.93-12.3-0.93l-4.19-22.36l28.42,0.14L432.4,223.73z"
		/>
	<path class="st1" d="M433.13,205.99c0,0,5.79-4.73,10.64-1.46c4.85,3.26-5.11,15.11-12.84,16.29"/>
	<ellipse class="st0" cx="421.77" cy="201.78" rx="13.88" ry="1.92"/>
	<path class="st0" d="M442.4,203.5c0,0-4.12,0.18-4.55,2.19c-0.44,2.01-0.18,3.68-0.18,3.68s-2.1,2.54-1.75,4.03
		c0.35,1.49,0.53,2.54,0.53,2.54s-1.45,0.11-1.84,2.89c-0.18,1.3-1.4,4.29,0.18,6.31c1.58,2.01,2.54,3.33,2.54,3.33
		s-0.44,2.72,2.19,4.99c2.63,2.28,4.12,4.55,4.12,4.55s6.31,2.72,9.99,0.26c3.68-2.45,4.12-14.02,3.94-14.37s-0.18-11.12-0.88-12.96
		c-0.7-1.84-5.69-5.61-5.69-5.61s1.29-5.08-0.79-6.04c-5.83-2.72-10.19,3.3-10.19,3.3"/>
	<path class="st1" d="M438.2,208.31c0,0,5.7,0.82,8.59,2.66s3.72,3.19,3.72,3.19"/>
	<path class="st1" d="M436.59,214.63c0.26-0.26,9.44,4.72,9.44,4.72"/>
	<path class="st1" d="M434.88,220.71c0.27-0.25,8.4,4.71,8.4,4.71"/>
	<path class="st1" d="M442.4,203.5c0,0,6.13-0.26,8.58,1.84"/>
	
		<ellipse transform="matrix(0.9961 -0.0877 0.0877 0.9961 -19.8925 37.4069)" class="st0" cx="415.62" cy="245.02" rx="23.94" ry="4.35"/>
</g>
<path class="st1" d="M382.52,294.64c0,0,13.07,4.21,15.95,10.63"/>
<path class="st5" d="M438.94,148.42c0,0,2.82-1.72,10.43,2.82c7.61,4.54,18.9,14.48,18.9,14.48s-16.45-2.95-19.52,0.49
	c-3.07,3.44-27.74,30.44-27.74,30.44s-1.35-8.96,4.54-21.48c5.89-12.52,15.34-23.69,15.34-23.69L438.94,148.42z"/>
<path class="st5" d="M409.86,140.08c0,0,1.83,20.86,5.14,34.11c3.31,13.26,4.3,22.22,4.05,21.72s-5.52-10.31-12.03-19.15
	c-6.51-8.84-16.82-16.82-16.82-16.82s-2.21,2.45-6.14,3.56c-3.93,1.1-9.57,2.33-9.57,2.33s14.54-11.41,17.71-16.63
	c4.26-7.01,13.97-10,13.97-10L409.86,140.08z"/>
<path class="st1" d="M366.01,495.18c0,0-2.19-120.7-0.95-131.23s29.08-51.95,34.65-57.84c5.58-5.89,23.6-8.78,23.6-8.78"/>
</svg>
