<?xml version="1.0" encoding="utf-8"?>
<!-- Generator: Adobe Illustrator 23.0.2, SVG Export Plug-In . SVG Version: 6.00 Build 0)  -->
<svg version="1.1" xmlns="http://www.w3.org/2000/svg" xmlns:xlink="http://www.w3.org/1999/xlink" x="0px" y="0px"
	 viewBox="0 0 709.97 653.29" style="enable-background:new 0 0 709.97 653.29;" xml:space="preserve">
<style type="text/css">
	.st0{fill:#FFFFFF;}
	.st1{fill:#FFFFFF;stroke:#000000;stroke-width:2;stroke-linecap:round;stroke-linejoin:round;stroke-miterlimit:10;}
	.st2{fill:none;stroke:#000000;stroke-width:2;stroke-linecap:round;stroke-linejoin:round;stroke-miterlimit:10;}
	.st3{fill:#FFEC00;stroke:#000000;stroke-width:2;stroke-linecap:round;stroke-linejoin:round;}
	.st4{fill:none;stroke:#231F20;stroke-width:8;stroke-linecap:round;stroke-linejoin:round;stroke-miterlimit:10;}
	.st5{fill:#808080;stroke:#231F20;stroke-width:2;stroke-miterlimit:10;}
	.st6{fill:#45D62F;stroke:#000000;stroke-width:2;stroke-linecap:round;stroke-linejoin:round;}
	.st7{fill:none;stroke:#231F20;stroke-width:2;stroke-linecap:round;stroke-miterlimit:10;}
</style>
<path class="st0" d="M423.21,340.74c0,0-4.99,0.14-6.84,0.29s-12.04,0.22-13.57-0.11c-1.54-0.32-8.91-3.72-11.35-3.02
	c-2.44,0.7-13.62,3.38-15.09,5.46c-1.47,2.08-2.89,7.07-2.18,9.64s2,4.56,3.14,5.84c1.14,1.28,26.09-6.41,33.21-4.28
	c7.13,2.14,15.68,1,15.68,1l-0.29-11.4L423.21,340.74z"/>
<path class="st0" d="M505.7,216.88c-0.15-0.44,0.63-19.45,0.63-19.45s4.22-6.41,3.64-8.47c-0.59-2.06-2.06-4.85-3.38-6.32
	c-1.32-1.47-3.97-19.99-17.49-18.66c-13.52,1.32-30.86,3.97-30.42,9.11c0.44,5.14-0.37,18.98,1.8,25.21
	c2.17,6.24,4.52,14.91,9.96,18.43c5.44,3.53,8.23,4.26,8.23,4.26l1.32,25.28L505.7,216.88z"/>
<path class="st0" d="M354.08,175.71l7.02-12.91l-70.92-53.26l-12.85,5.37l-19.97,17.11l-6.05,28.9l8.36,0.76c0,0-2.35,4.76-1.7,7.85
	s1.46,5.53,1.46,5.53L354.08,175.71z"/>
<g>
	<g>
		<path class="st1" d="M272.45,138.31c0,0-0.22,5.79,1.32,8.19c1.54,2.4,3.67,5.15,5.26,4.4c2.66-1.27,7.4,0.74,6.85,3.36
			c-0.55,2.62-6.16,3.49-6.27,4.37c-0.11,0.87-0.66,2.95,0.22,3.38s6.16,2.29,10.24,2.62c4.07,0.33,3.85,6.33,3.85,6.33l6.38,0.33
			c0,0,3.3-14.63,2.42-19.21s-4.51-9.61-9.46-11.9C288.29,137.88,272.45,138.31,272.45,138.31z"/>
		<path class="st1" d="M198.45,325.96c0,0,7.85,4.01,10.85,4.7c3,0.69,8.89-0.46,11.66,1.6c2.77,2.06,3.69,6.07,3.69,6.07
			s-5.31,5.27-12.81,5.84c-7.5,0.57-20.43,0.8-20.43,0.8l-1.62,1.72l-16.51,0.11l2.19-15.35L198.45,325.96z"/>
		<path class="st1" d="M201.91,327.56c0,0-1.96,1.37-3.23,3.78"/>
		<path class="st1" d="M204.57,328.94c0,0-1.96,1.37-3.23,3.78"/>
		<path class="st1" d="M207.57,330.08c0,0-1.96,1.37-3.23,3.78"/>
		<path class="st1" d="M190.39,198.28c0,0,7.66,52.44,7.66,60.43c0,7.98,0.77,50.16,0.96,56.05c0.19,5.89,2.68,12.54,2.68,12.54
			s-15.9,9.69-17.43,9.88c-1.53,0.19-7.09-2.47-7.09-2.47L190.39,198.28z"/>
		<polygon class="st2" points="356.67,172.01 361.1,162.79 287.09,106.28 257.36,132.01 234.93,176.67 		"/>
		<line class="st1" x1="352.22" y1="171.61" x2="289.27" y2="121.31"/>
		<path class="st1" d="M278.6,136.54c0,0,13.21-5.09,14.59-7.43c1.38-2.35,6.51-15.06,6.51-16.24s-1.77-2.54-1.77-2.54
			s-0.59-3.13-1.38-3.52c-0.79-0.39-5.13-1.57-5.13-1.57s-2.37-2.15-3.94-1.96c-1.58,0.2-8.28,5.67-8.68,7.24
			c-0.39,1.57-0.79,10.76-0.99,11.54c-0.2,0.78-4.14,2.93-4.14,2.93"/>
		<path class="st1" d="M277.61,139.67c0,0,1.18-5.48-0.99-9c-2.17-3.52-5.13-7.43-5.13-7.43s-8.09,2.74-9.66,2.54
			s-15.78-6.26-21.5-6.26s-34.71,4.7-41.41,6.65c-6.71,1.96-22.09,7.43-27.41,13.11s-14,15.65-14,15.65s16.57,3.52,19.92,6.46
			c3.35,2.93,11.04,12.91,11.83,16.43s4.34,10.56,4.34,10.56s4.73,3.13,11.64,3.72c6.9,0.59,18.93-5.67,22.68-9.19
			c3.75-3.52,17.35-11.15,21.89-16.43c4.54-5.28,10.45-13.69,12.03-16.24s4.34-6.65,4.34-6.65L277.61,139.67z"/>
		<path class="st1" d="M261.83,125.78l4.34,17.8c0.59-0.98-21.69,11.93-27.02,12.33s-12.62-7.24-12.82-12.33
			c-0.2-5.09,1.77-11.93,5.72-15.46c3.94-3.52,9.66-5.67,9.66-5.67"/>
		<line class="st1" x1="291.41" y1="105.24" x2="285.3" y2="110.72"/>
		<line class="st1" x1="295.95" y1="107.59" x2="289.84" y2="113.07"/>
		<line class="st1" x1="298.12" y1="111.89" x2="292.01" y2="117.37"/>
		<path class="st1" d="M156.56,155.29c-0.41,0.14-4.13,5.87-4.13,5.87s-10.64,8.68-9.46,27.66s8.83,73.32,8.83,78.87
			s-3.53,26.58-2.65,40.89c0.88,14.31,0,59,0,59s14.23,0.57,18.26-0.38c4.02-0.95,14.37-5.7,14.37-5.7l-3.45-12.73l4.02-23.94
			c0,0,2.3-44.08,2.68-45.79c0.38-1.71,1.53-8.17,1.92-13.49c0.38-5.32,3.26-33.25,3.64-47.69c0.38-14.44,3.01-29.47,3.01-29.47
			s1.2-15-5.88-23.74C180.63,155.91,156.56,155.29,156.56,155.29z"/>
		<path class="st1" d="M180.13,359.63c0,0,9.93,10.08,12.01,11.57c2.08,1.49,12.58,2.18,14.89,4.24c2.31,2.06,3.23,5.15,3.23,5.15
			s-3.81,6.87-5.43,7.56c-1.62,0.69-23.67,1.26-27.36,0.11c-3.69-1.15-11.31-4.92-12.81-4.92c-1.5,0-1.85,1.15-1.85,1.15l-12.7-2.63
			c0,0-0.69-14.66,0-17.18C150.8,362.15,180.13,359.63,180.13,359.63z"/>
		<path class="st1" d="M177.47,368.68c0,0,2.77-3.21,5.77-3.89"/>
		<path class="st1" d="M180.93,370.85c0,0,2.77-3.21,5.77-3.89"/>
		<path class="st1" d="M183.36,373.14c0,0,2.77-3.21,5.77-3.89"/>
		<path class="st1" d="M168.6,174.34c0,0,5.61,3.55,5.61,10.2s-2.49,10.97-2.49,10.97"/>
		<path class="st1" d="M152.43,161.16c0,0,21.15,5.6,26.76,9s10.75,9.58,10.75,9.58"/>
		<path class="st2" d="M254.18,161.79l5.5-0.11c0,0-1.87,3.82-1.76,6.22s0.38,2.7,0.38,2.7"/>
		<polygon class="st1" points="239.34,174.94 250.8,171.32 356.67,172.01 356.67,370.46 245.74,370.46 229.91,339.89 229.36,188.69 
			226.78,183.98 		"/>
		<polyline class="st1" points="229.36,188.69 252.04,194.52 323.3,194.7 347.45,202.5 347.45,364.38 		"/>
		<polyline class="st1" points="245.74,370.46 245.74,203.31 347.45,202.5 		"/>
		<line class="st1" x1="245.74" y1="203.31" x2="229.67" y2="197.58"/>
		<polygon class="st1" points="322.04,229.27 334.24,211 269.22,211.22 262.12,229.71 		"/>
		<polyline class="st1" points="256.53,299.51 256.53,260.32 283.16,260.32 286.93,252.84 325.54,252.84 320.88,260.32 
			335.53,260.32 335.53,297.78 		"/>
		<polyline class="st2" points="260.96,299.19 260.96,278.59 330.86,278.59 330.86,297.78 		"/>
		<polyline class="st2" points="252.95,370.22 252.95,210.6 342.2,210.6 342.2,364.07 		"/>
		<polyline class="st2" points="230.07,299.67 245.95,321.95 252.89,322.49 		"/>
		<polyline class="st2" points="347.07,298.12 246.98,299.88 229.9,282.34 		"/>
		<line class="st2" x1="250.8" y1="171.32" x2="251.71" y2="193.56"/>
	</g>
	<g>
		<path class="st1" d="M352.54,458.25l-17.1,36.27c0,0,9.68,9.27,16.07,8.45c6.39-0.82,15.25-6.8,15.25-6.8l7.21-29.88
			L352.54,458.25z"/>
		<path class="st3" d="M367.58,488.95c0,0,7.42,29.67,6.18,30.7c-1.24,1.03-10.1,2.06-11.54,2.27c-1.44,0.21-22.67-2.06-25.76-2.27
			s-19.99,1.03-24.73-0.62c-4.74-1.65-12.98-8.86-14.22-10.72s3.71-4.53,5.98-5.98c2.27-1.44,17.97-4.21,22.09-7.51
			c4.12-3.3,7.58-10.28,8.93-13.83c1.73-4.54,5.45-5.65,6.69-6.06c1.24-0.41,2.06,6.59,2.06,6.59l-4.33,8.04
			c0,0,5.15,3.92,9.89,6.18c4.74,2.27,10.92-0.21,10.92-0.21L367.58,488.95z"/>
		<path class="st4" d="M532.37,550.77c0,0-16.14-135.18-20.22-143.71c-3.46-7.23-33.5-6.59-43.38-4.45
			c-9.88,2.14-10.36,15.72-12.76,25.06c-2.4,9.35-25.9,112.68-25.9,112.68"/>
		<polygon class="st4" points="442.41,488.98 525.4,497.87 498.08,473.12 		"/>
		<line class="st4" x1="493.24" y1="406.32" x2="499.8" y2="521.4"/>
		<path class="st1" d="M436.8,469.62c0,0,15.89,25.3,16.54,27.92c0.66,2.62,3.79,6.18-1.79,7.16c-5.57,0.98-27.71-8.53-27.71-8.53
			l-6.56-20.49L436.8,469.62z"/>
		<path class="st3" d="M429.75,493.07c0,0,0.33-7.21-2.79-8.36c-3.12-1.15-9.67-3.44-10.33-1.97c-0.66,1.48-1.31,11.8-2.3,13.61
			c-0.98,1.8-20.99,17.54-23.12,18.03c-2.13,0.49-7.71,4.92-7.38,8.36c0.33,3.44,4.92,6.89,13.61,7.38
			c8.69,0.49,24.92,0.82,30.66-1.8s8.69-2.95,11.97-3.61c3.28-0.66,19.51-1.64,22.63-3.77s4.1-3.61,4.1-3.61s-4.43-11.31-5.9-15.41
			c-1.48-4.1-6.39-13.12-6.39-13.12s1.64,7.38-1.8,8.03c-3.44,0.66-8.03-4.1-12.79-4.43S429.75,493.07,429.75,493.07z"/>
		<ellipse cx="488.45" cy="403.91" rx="34.04" ry="7.21"/>
		<path class="st5" d="M436.94,362.26c0,0-60.88,8.06-64.21,13.34s-12.79,45.87-16.12,54.76S346.6,455.1,346.6,455.1
			s3.34,7.51,11.4,9.17c8.06,1.67,15.57,6.39,15.57,6.39s21.68-51.15,24.18-56.71s50.04-28.91,50.04-28.91L436.94,362.26z"/>
		<path class="st5" d="M526.17,398.81c5.2-0.46-39.58,10.04-72.27,14.32c-15.95,2.09-40.58,1.67-41.97,2.5
			c-1.39,0.83-0.83-0.83-1.39,0.83c-0.56,1.67,28.08,54.21,28.08,54.21s-1.95,7.23-8.62,7.78c-6.67,0.56-15.84,1.67-19.18,1.67
			s-11.12-3.06-11.12-3.06s-5.84-15.03-8.07-19.47s-9.72-21.95-15.28-28.89c-5.56-6.95-11.4-18.07-11.68-23.91
			c-0.28-5.84,3.61-17.79,15.57-21.4c11.95-3.61,81.17-15.84,84.78-16.12C468.63,366.98,526.17,398.81,526.17,398.81z"/>
		<polygon class="st1" points="294.41,498.29 363.85,503.35 396.74,494.63 402.09,496.04 401.81,506.72 366.1,517.12 294.97,511.22 
					"/>
		<circle class="st1" cx="301.71" cy="554.35" r="6.55"/>
		<circle class="st1" cx="304.71" cy="554.35" r="6.55"/>
		<circle class="st1" cx="405.76" cy="552.84" r="6.55"/>
		<circle class="st1" cx="408.77" cy="552.84" r="6.55"/>
		<circle class="st1" cx="298.31" cy="520.61" r="6.55"/>
		<circle class="st1" cx="301.32" cy="520.61" r="6.55"/>
		<path class="st2" d="M414.91,496.01c0,0,2.81-0.64,8.29,3.32"/>
		<path class="st2" d="M410.58,500.35c0,0,2.81-0.64,8.29,3.32"/>
		<path class="st2" d="M405.73,504.55c0,0,2.81-0.64,8.29,3.32"/>
		<rect x="359.07" y="386.67" class="st1" width="10.96" height="136.64"/>
		<polygon class="st1" points="289.91,532.02 362.22,521.92 370.04,523.31 410.52,529.49 410.24,544.68 364.13,535.4 290.19,545.8 
					"/>
		<polygon class="st1" points="293,379.09 290.11,381.94 290.31,390.87 398.3,390.87 398.3,382.93 391.15,365.86 		"/>
		<path class="st1" d="M389.4,358.87l2.73,19.5l-91.3,1.46l-7.84-0.73l-1.46-20.41l5.65-8.93l4.92-8.2l3.64,3.46
			c0,0,12.94,1.46,13.12,0.91s2.37-8.93,2.37-8.93l40.64,12.39l1.46,3.83L389.4,358.87z"/>
		<polygon class="st1" points="363.16,363.6 363.34,353.22 361.88,349.39 321.24,337 318.88,345.93 305.75,345.02 304.66,351.39 		
			"/>
		<circle class="st1" cx="318.78" cy="356.77" r="6.1"/>
		<polyline class="st2" points="391.96,378.12 388.67,372.9 291.54,358.68 		"/>
		<polyline class="st2" points="305.75,345.02 295,331.9 301.93,323.69 318.61,342.68 		"/>
		<line class="st1" x1="320.33" y1="339.55" x2="314.39" y2="337.9"/>
		<path class="st1" d="M398.46,356.81c-0.35,0-6.46,2.7-5.87,5.4c0.59,2.7,4.7,1.64,7.16,0.7s5.87-3.05,5.87-3.05L398.46,356.81z"/>
		<path class="st1" d="M426.46,351.24c0,0-10.5-2.16-13.44-2.01c-2.93,0.15-17.3-2.01-19.15-1.7c-1.85,0.31-9.27,0.46-12.05,2.32
			c-2.78,1.85-7.26,8.19-7.41,8.8c-0.15,0.62,0.46,1.7,0.46,1.7s0.46,3.24,1.24,3.71c0.77,0.46,4.79-3.24,7.72-5.1
			c2.93-1.85,9.11-1.54,10.97-1.39c1.85,0.15,10.12,4.64,15.05,4.76c4.93,0.12,13.39-0.7,15.5-1.17S426.46,351.24,426.46,351.24z"/>
		<path class="st2" d="M374.88,360.36c0,0,7.14-6.83,11.13-8s5.99-1.41,5.99-1.41"/>
		<path class="st2" d="M419.67,340.59c0,0-13.71,1.48-16.87,0.33c-3.16-1.15-9.2-3.45-11.35-3.02c-2.16,0.43-13.94,4.74-15.09,5.46
			s-2.3,7.04-2.59,8.77c-0.29,1.72,1.58,3.59,1.58,3.59"/>
		<path class="st2" d="M376.21,354.43c0,0,3.31-8.05,4.74-9.2c1.44-1.15,3.88-1.72,3.88-1.72"/>
		<path class="st1" d="M424.73,339.46l-5.06,1.12c0,0,6.02,7.41,6.33,9.42c0.31,2.01,9.58,0.31,9.58,0.31L424.73,339.46z"/>
		<path class="st1" d="M425.4,347.27c0,0-1.41,2.9-1.72,7.69s0.15,10.5,0.15,10.5s7.26,3.86,9.88,4.17
			c2.63,0.31,1.81-21.22,1.81-21.22L425.4,347.27z"/>
		<path class="st6" d="M459.8,327.93l-35.07,11.54c0,0,7.24,8.37,7.69,11.54s10.86,4.07,16.97,1.58c6.11-2.49,16.06-6.34,16.06-6.34
			L459.8,327.93z"/>
		<path class="st6" d="M478.58,248.28c0,0-4.07,4.98-5.2,14.25c-1.13,9.28-7.92,22.17-10.18,32.81
			c-2.26,10.63-5.66,29.87-6.11,38.24s-1.58,32.58-1.58,32.58s14.48,11.54,21.04,18.1c6.56,6.56,12.22,11.99,23.53,15.61
			s19.01,5.88,27.6,3.39c8.6-2.49,16.97-9.96,16.97-9.96s-2.04-45.7-3.85-62.9c-1.81-17.2-2.26-56.56-4.98-67.88
			c-2.72-11.31-9.96-26.02-15.16-31.68s-6.11-5.88-8.82-6.56C509.13,223.62,478.58,248.28,478.58,248.28z"/>
		<circle class="st2" cx="467.01" cy="188.18" r="6.96"/>
		<circle class="st2" cx="488.14" cy="188.18" r="6.96"/>
		<line class="st2" x1="474.05" y1="186.74" x2="481.18" y2="186.74"/>
		<path class="st2" d="M495.01,185.9c0.08-0.25,8.42-4.63,8.42-4.63"/>
		<circle class="st2" cx="468.87" cy="186.87" r="1.05"/>
		<circle class="st2" cx="489.2" cy="186.87" r="1.05"/>
		<path class="st2" d="M475.06,197.1c0,0,2.95,1.18,5.14,0.25"/>
		<path class="st2" d="M474.99,207.15l11.4-5.09c0,0,0.52,4.65-2.54,6.62C478.45,212.14,474.99,207.15,474.99,207.15z"/>
		<path class="st2" d="M464.79,179.17c0,0,4.21-1.94,6.48-0.84"/>
		<path class="st2" d="M483.64,176.56c0,0,4.21-1.94,6.48-0.84"/>
		<path class="st2" d="M502.16,197.93c0,0-5.08,21.32-18.28,23.15c-8.9,1.23-19.49-6.13-24.18-25.74
			c-3.86-16.15,0.31-27.77,16.36-29.8c16.04-2.03,25.79,6.4,27.01,11.88s0.23,8.03,0.23,8.03s2.52-1.63,5.46,1.31
			c2.94,2.94-2.44,10.66-2.44,10.66l-0.51,15.64"/>
		<line class="st2" x1="478.81" y1="221.27" x2="479.62" y2="242.92"/>
		<path d="M506.38,187.19c-2.84,0.5-5.59-1.28-6.28-4.08c-0.66-2.67-1.5-5.8-2.28-7.74c-1.58-3.94-5.21-4.26-15.62-3.16
			c-10.41,1.1-19.98,0.49-21.84,6.73c-0.8,2.68,0.11,19.37,0.11,19.37s-3.28-7.4-4.7-14.66c-1.42-7.26-0.1-9.83-0.1-13.32
			c0-0.29-2.49-2.18-3.85-6.13c-1.49-4.35-1.86-10.8-1.86-10.8s7.32,4.62,18.05,1.78c1.33-0.35,2.98-0.81,4.84-1.26
			c9.27-2.23,23.96-4.28,32.23,7.41c8.68,12.26,3.69,25.44,3.69,25.44L506.38,187.19z"/>
		<path class="st1" d="M508.43,218c0-0.48-1.12-5.77-1.12-5.77l-32.54,33.5c0,0,7.37,14.91,7.21,14.43S508.43,218,508.43,218z"/>
		<path class="st6" d="M508.43,218l6.25,8.01c0,0-8.17,6.09-15.55,17.15c-7.37,11.06-18.91,31.1-21.32,38.15
			c-2.4,7.05-4.01,11.54-4.01,11.54s5.93-26.61,9.78-39.27S508.43,218,508.43,218z"/>
		<path class="st6" d="M527.56,293.85c0,0-2.4,3.59-4.96,10.78c-2.57,7.19-27.54,55.26-31.48,57.65
			c-3.93,2.4-57.48,10.95-57.48,10.95s-3.42-7.36-4.28-13.34s1.88-12.49,1.88-12.49s34.44-6.12,38.06-9.06
			c3.62-2.94,8.37-6.34,8.6-7.69c0.23-1.36,4.53-19.01,5.43-25.79c0.91-6.79,3.62-20.59,5.2-26.92c1.58-6.34,7.01-14.71,8.15-16.29"
			/>
	</g>
	<path class="st7" d="M410.54,416.46c0,0-6.73-3.41-7.5-7.86"/>
</g>
</svg>
